<?xml version="1.0" encoding="UTF-8"?><svg id="Layer_1" xmlns="http://www.w3.org/2000/svg" version="1.1" viewBox="0 0 24 24"><ellipse cx="12" cy="12" rx="2.379234" ry="2.412534"/><g><path d="M7.533636,20.516094c-3.001706-1.625265-5.050571-4.8314-5.050571-8.516095S4.53193,5.10917,7.533636,3.483905l-.985151-2.197624C2.723181,3.291818.103831,7.332194.103831,12s2.61935,8.708183,6.444654,10.713718c0,0,.985151-2.197624.985151-2.197624Z"/><path d="M17.451515,1.286282l-.985151,2.197624c3.001705,1.625265,5.050571,4.8314,5.050571,8.516095s-2.048864,6.89083-5.050571,8.516095l.985151,2.197624c3.825304-2.005537,6.444654-6.045914,6.444654-10.713718s-2.61935-8.708182-6.444654-10.71372Z"/></g><g><path d="M15.480196,5.683958l-.995317,2.220374c1.358432.850586,2.273588,2.361291,2.273588,4.095668s-.915157,3.245082-2.273588,4.095669l.995317,2.220375c2.181086-1.238367,3.657507-3.600985,3.657507-6.316042s-1.476419-5.077674-3.657507-6.316044Z"/><path d="M8.519804,18.316042l.995317-2.220373c-1.358432-.850586-2.273588-2.361291-2.273588-4.095668s.915157-3.245082,2.273588-4.095668l-.995317-2.220374c-2.181085,1.238367-3.657506,3.600984-3.657506,6.316042s1.47642,5.077674,3.657506,6.316041Z"/></g></svg>