<?xml version="1.0"?><svg height="24px" id="Layer_1" style="enable-background:new 0 0 24 24;" version="1.1" viewBox="0 0 24 24" width="24px" xml:space="preserve" xmlns="http://www.w3.org/2000/svg" xmlns:xlink="http://www.w3.org/1999/xlink"><rect height="8" transform="matrix(-4.547492e-011 1 -1 -4.547492e-011 25 -1)" width="2" x="12" y="8"/><polygon points="11.2929688,16.7070313 6.5859375,12 11.2929688,7.2929688 12.7070313,8.7070313 9.4140625,12   12.7070313,15.2929688 "/><path d="M12,4c4.4112091,0,8,3.5887909,8,8s-3.5887909,8-8,8s-8-3.5887909-8-8S7.5887909,4,12,4 M12,2C6.47715,2,2,6.4771576,2,12  s4.47715,10,10,10s10-4.4771576,10-10S17.52285,2,12,2L12,2z"/></svg>