<?xml version="1.0"?><svg height="24px" id="Layer_1" style="enable-background:new 0 0 24 24;" version="1.1" viewBox="0 0 24 24" width="24px" xml:space="preserve" xmlns="http://www.w3.org/2000/svg" xmlns:xlink="http://www.w3.org/1999/xlink"><polygon points="16.3737068,12.4142456 14.9595213,11 11.2562504,14.7032719 9.3349123,12.7819338 7.9207277,14.1961794   11.2562504,17.5436649 "/><path d="M19.09375,4H17V2.999999C17,2.4477148,16.5522861,2,16.0000019,2H15.999999C15.4477148,2,15,2.4477148,15,2.999999V4H9  V2.999999C9,2.4477148,8.5522852,2,8.000001,2H7.999999C7.4477148,2,7,2.4477148,7,2.999999V4H4.90625  C3.8534572,4,3,4.853457,3,5.90625v14.1875C3,21.1465435,3.8534572,22,4.90625,22h14.1875C20.1465435,22,21,21.1465435,21,20.09375  V5.90625C21,4.853457,20.1465435,4,19.09375,4z M19,20H5V8h14V20z"/></svg>