<?xml version="1.0" encoding="UTF-8"?><svg id="Layer_1" xmlns="http://www.w3.org/2000/svg" baseProfile="tiny" version="1.2" viewBox="0 0 24 24"><path d="M23.639241,13.293249v-2.586498l-1.301774-.347148c-.911062-.242954-1.612871-.92698-1.973067-1.798369-.004183-.010121-.008387-.020232-.012605-.030335-.365505-.875145-.356973-1.860589.118208-2.681368l.674619-1.165261-1.828893-1.828971-1.165364.674692c-.820769.475188-1.806212.483738-2.681354.118239-.010062-.004202-.020131-.008387-.030211-.012552-.871403-.360212-1.555448-1.062024-1.798402-1.973105l-.347149-1.301814h-2.586498l-.347128,1.301704c-.242968.911106-.927046,1.612936-1.798492,1.973115-.010124.004183-.020238.008387-.030345.012607-.875135.365462-1.860551.356906-2.6813-.118274l-1.165214-.674612-1.828893,1.828972.674586,1.165233c.475149.82074.483696,1.806128.118239,2.681242-.004226.010118-.008435.020246-.012625.030385-.360179.871446-1.06201,1.555525-1.973115,1.798492l-1.301704.347128v2.586498l1.301802.347145c.91108.242953,1.612887.926998,1.973101,1.798398.004171.01009.00836.020171.012566.030243.365499.875129.356969,1.860555-.118193,2.681324l-.674658,1.165369,1.828893,1.828893,1.165328-.674671c.820786-.475198,1.806249-.483735,2.681407-.11822.010071.004206.02015.008394.03024.012565.871379.360209,1.555396,1.06202,1.798344,1.973077l.34716,1.301868h2.586498l.347181-1.301974c.242937-.911045.92693-1.612849,1.798282-1.973077.010041-.004151.020073-.00832.030096-.012506.875169-.365532,1.86065-.357012,2.681453.118191l1.165468.674747,1.828893-1.828893-.67472-1.165485c-.475173-.820794-.483686-1.806249-.118156-2.681393.004193-.010041.008369-.020091.012528-.03015.360226-.871346,1.06202-1.555336,1.973058-1.798279l1.301909-.347172ZM12,17.172996c-2.852557,0-5.172996-2.32044-5.172996-5.172996s2.320439-5.172996,5.172996-5.172996,5.172996,2.320439,5.172996,5.172996-2.32044,5.172996-5.172996,5.172996Z"/></svg>