<?xml version="1.0"?><svg height="24px" id="Layer_1" style="enable-background:new 0 0 24 24;" version="1.1" viewBox="0 0 24 24" width="24px" xml:space="preserve" xmlns="http://www.w3.org/2000/svg" xmlns:xlink="http://www.w3.org/1999/xlink"><g><path d="M14.5825806,3.1182861l-0.828125,1.8218384C16.27771,6.2874756,18,8.9453735,18,12s-1.72229,5.7125244-4.2455444,7.0598755   l0.828125,1.8218384C17.7981567,19.2191162,20,15.8696289,20,12S17.7981567,4.7808838,14.5825806,3.1182861z"/></g><g><path d="M12.9254761,6.7639771l-0.8366699,1.8406982C13.2307129,9.3098145,14,10.5621948,14,12   s-0.7692871,2.6901855-1.9111938,3.3953247l0.8366699,1.8406982C14.7589111,16.2094116,16,14.2507935,16,12   S14.7589111,7.7905884,12.9254761,6.7639771z"/></g><polygon points="10,6 7,9 4,9 4,15 7,15 10,18 "/></svg>