<?xml version="1.0" encoding="UTF-8"?><svg id="Layer_2" xmlns="http://www.w3.org/2000/svg" version="1.1" viewBox="0 0 204.399994 204.399994"><defs><style>
.st0 {
fill: #020202;
}
</style></defs><g id="Layer_2-2"><circle class="st0" cx="102.199997" cy="181.399994" r="21.5"/><circle class="st0" cx="173.300003" cy="58" r="21.5"/><circle class="st0" cx="31.1" cy="59.099998" r="21.499999"/><path class="st0" d="M33.099998,172.5c6.400002,9,18.900002,11.600006,28.400002,6,6.400002-3.699997,10-10.199997,10.5-17,.300003-4.399994,2.900002-8.399994,6.599998-10.899994l2.400002-1.600006c4-2.600006,9-3,13.5-1.199997,5,2.100006,10.699997,2.199997,15.800003.300003,4.099998-1.5,8.800003-.800003,12.400002,1.600006l3.300003,2.199997c3.599998,2.399994,6.099998,6.100006,6.599998,10.399994.699997,5.899994,3.800003,11.600006,9,15.199997,9.399994,6.600006,22.5,4.5,29.5-4.600006,7.5-9.899994,5.199997-24-5-30.899994-5.600006-3.800003-12.399994-4.600006-18.399994-2.800003-4.100006,1.300003-8.600006.800003-12.199997-1.600006l-5.100006-3.399994c-3.300003-2.199997-5.599998-5.600006-6.199997-9.599998-.699997-4.900002-3.199997-9.699997-7.400002-13.300003-7.400002-6.300003-18.299995-6.800003-26.200005-1.199997-4.599998,3.300003-7.5,7.900002-8.699997,12.900002-.800003,3.599998-2.800003,6.800003-5.900002,8.899994l-8.199997,5.399994c-3.400002,2.199997-7.5,2.699997-11.400002,1.699997-5.700001-1.600006-11.900002-.800003-17.200001,2.600006-10.4,6.600006-13.200001,20.600006-5.900002,30.699997h0l-.200008.200012Z"/><path class="st0" d="M72.199997,1.5c-11,1.1-19.5,10.6-19.299999,21.700001,0,7.4,3.799999,13.799999,9.5,17.600002,3.700001,2.5,5.899998,6.700001,6.200001,11.200001l.199997,2.799999c.300003,4.799999-1.900002,9.300003-5.700001,12.300003-4.299999,3.300003-7.200001,8.199997-8.100002,13.5-.700001,4.300003-3.599998,8-7.599998,10l-3.5,1.800003c-3.799999,1.900002-8.400002,2.199997-12.299999.5-5.5-2.400002-11.9-2.5-17.700001.199997-10.3,4.900002-15.1,17.300003-10.7,27.800003,4.8,11.5,18.2,16.399994,29.299998,11,6.099998-3,10.200001-8.5,11.599998-14.599998,1-4.199997,3.599998-7.900002,7.400002-9.800003l5.5-2.800003c3.5-1.800003,7.699997-2.099998,11.400002-.599998,4.599998,1.800003,10,2.099998,15.199997.199997,9.099998-3.300003,15-12.5,14.099998-22.199997-.5-5.699997-3.099998-10.5-6.900002-13.900002-2.699997-2.5-4.5-5.900002-4.800003-9.599998l-.599998-9.700001c-.199997-4,1.400002-7.900002,4.199997-10.700001,4.199997-4.099998,6.599998-9.9,6.300003-16.299999-.599998-12.3-11.300003-21.700001-23.700005-20.4h0l.000015-.000006Z"/><path class="st0" d="M132.199997,1.5c11,1.1,19.5,10.6,19.300003,21.700001,0,7.4-3.800003,13.799999-9.5,17.600002-3.699997,2.5-5.899994,6.700001-6.199997,11.200001l-.199997,2.799999c-.300003,4.799999,1.899994,9.300003,5.699997,12.300003,4.300003,3.300003,7.199997,8.199997,8.100006,13.5.699997,4.300003,3.600006,8,7.600006,10l3.5,1.800003c3.800003,1.900002,8.399994,2.199997,12.300003.5,5.5-2.400002,11.899994-2.5,17.699997.199997,10.300003,4.900002,15.100006,17.300003,10.699997,27.800003-4.800003,11.5-18.199997,16.399994-29.300003,11-6.100006-3-10.199997-8.5-11.600006-14.599998-1-4.199997-3.600006-7.900002-7.399994-9.800003l-5.5-2.800003c-3.5-1.800003-7.699997-2.099998-11.399994-.599998-4.600006,1.800003-10,2.099998-15.199997.199997-9.099998-3.300003-15-12.5-14.099998-22.199997.5-5.699997,3.099998-10.5,6.900002-13.900002,2.699997-2.5,4.5-5.900002,4.800003-9.599998l.599998-9.700001c.199997-4-1.400002-7.900002-4.199997-10.700001-4.199997-4.099998-6.599998-9.9-6.300003-16.299999.599998-12.3,11.300003-21.700001,23.700005-20.4h0l-.000031-.000006Z"/></g></svg>