<?xml version="1.0" encoding="UTF-8"?><svg id="Layer_1" xmlns="http://www.w3.org/2000/svg" version="1.1" viewBox="0 0 163.708861 33.265823"><defs><style>
.st0, .st1 {
fill: #fff;
}
.st1 {
fill-rule: evenodd;
}
</style></defs><g><circle class="st0" cx="27.443578" cy="23.455787" r="3.210222"/><circle class="st0" cx="5.38879" cy="23.455787" r="3.210222"/><path class="st0" d="M17.404594,20.389598c.153356.554041.441171,1.03168.817403,1.409321.612574.614868.976304,1.434054.976304,2.301989v.37251c0,.867876-.360128,1.689478-.972869,2.304098-.612534.614413-.977586,1.475503-.932654,2.421636.078369,1.650198,1.425374,2.985851,3.07614,3.051187,1.832322.072522,3.340588-1.391424,3.340588-3.207641,0-.900407-.3709-1.713868-.96813-2.296594-.613564-.598663-.941113-1.432001-.941113-2.28924v-.350651c0-.852503.331775-1.676976.941378-2.272917.40355-.394506.695568-.888903.847813-1.428887.234893-.833124.804788-1.53155,1.567356-1.941135l.064702-.034752c.778041-.417896,1.68867-.481652,2.532129-.219809.802464.249116,1.701363.184936,2.497119-.252067,1.494921-.820961,2.089411-2.702221,1.33455-4.231584-.810597-1.642287-2.814122-2.269051-4.409543-1.404565-.776215.42059-1.309203,1.114856-1.544545,1.898422-.242185.806349-.813883,1.47315-1.555598,1.871535l-.23664.127103c-.750275.402983-1.62686.474465-2.44438.235785-.613751-.179188-1.287831-.177377-1.941953.047756-1.592647.54815-2.497379,2.265199-2.048057,3.888499Z"/><path class="st0" d="M2.570287,17.97502c.85513.455064,1.812924.484458,2.643024.171589.758688-.285953,1.604474-.225655,2.318751.157993l.092033.049432c.728924.391515,1.23322,1.088154,1.417527,1.894779.144592.63281.478913,1.209498.955993,1.64934.566697.522465.872958,1.269448.872958,2.040237v.748082c0,.768212-.334826,1.490078-.895128,2.015635-.659173.618298-1.057181,1.511522-1.010388,2.497014.078353,1.650194,1.425338,2.985857,3.076098,3.051215,1.832334.072547,3.340623-1.391407,3.340623-3.207639,0-.927298-.393381-1.762379-1.022234-2.348182-.568811-.529872-.887001-1.275594-.887001-2.052968v-.705535c0-.790045.342219-1.532679.914663-2.077178.427554-.406682.748404-.936338.901005-1.553525.408103-1.650552-.564019-3.355888-2.19274-3.843883-.618241-.185237-1.245285-.175667-1.818068-.008654-.706419.205979-1.465661.122736-2.113908-.225445l-.674246-.362146c-.651584-.349974-1.121459-.95225-1.337465-1.659629-.255041-.835212-.847758-1.563854-1.699826-1.965861-1.6769-.791162-3.692494-.004008-4.369635,1.759578-.576226,1.500757.068819,3.220542,1.487962,3.97575Z"/><path class="st0" d="M6.415207,10.385017c.789713.579048,1.744466.742575,2.617556.542771.745939-.170705,1.528549-.053091,2.171037.362571l.782651.506341c.58483.37836,1.027525.94954,1.214283,1.620586.156029.560633.467005,1.087117.933441,1.511705,1.216059,1.106954,3.10126,1.10666,4.316962-.000685.480067-.437278.79542-.982537.946489-1.561832.178394-.684072.622042-1.269065,1.215604-1.653075l.699385-.452473c.67384-.435946,1.49772-.548749,2.275575-.351136.945663.240244,1.993068.049852,2.821034-.623344,1.272349-1.034512,1.553964-2.89418.646954-4.260351-1.013975-1.527287-3.08324-1.892875-4.555492-.829971-.675503.487686-1.104887,1.189293-1.262701,1.945251-.161743.774783-.606438,1.46115-1.270977,1.891077l-.221489.143294c-.733889.474794-1.640887.585544-2.473492.319477-.64362-.205675-1.339244-.203185-1.981642.007413-.849228.278403-1.776212.183411-2.526569-.302038l-.002312-.001496c-.683154-.441971-1.141594-1.152354-1.282041-1.953798-.147843-.843649-.630891-1.626456-1.404115-2.132497-1.551731-1.015543-3.657284-.514163-4.57141,1.139643-.774564,1.401315-.379952,3.185793.911269,4.132566Z"/><circle class="st0" cx="16.292281" cy="4.464789" r="3.210222"/></g><path class="st0" d="M43.940509,31.091045h-4.376342L50.274021,2.416443h4.337915l-10.671427,28.674602Z"/><g><path class="st0" d="M63.136215,16.753744c0-7.243798,5.870862-13.118529,13.118529-13.118529h15.127132c5.459979,0,9.888476,4.424424,9.888476,9.888272l-.019546.015474v16.333312h-9.694436v-7.127537l-7.5034,7.127537h-7.798225c-3.621797,0-6.902549-1.469854-9.275613-3.842917-2.373267-2.373267-3.842917-5.653815-3.842917-9.275613ZM72.830651,18.62654c0,.856583.69451,1.551094,1.551094,1.551094h15.479987c.732585,0,1.326309-.59352,1.326309-1.326106v-5.39401h-16.806296c-.856583,0-1.551094.69451-1.551094,1.551094v3.617929Z"/><rect class="st0" x="105.374348" y="6.695215" width="9.643583" height="9.643583" rx="4.259008" ry="4.259008"/><rect class="st0" x="105.602979" y="20.228691" width="9.643583" height="9.643583" rx="4.259008" ry="4.259008"/></g><g><path class="st1" d="M153.681662,16.775628c3.392844-5.753376,7.297616-12.531413,7.297616-12.531413h-6.420847v-.073806s-1.771254,3.394938-4.059148,7.306434c-.66421-1.107044-1.254655-1.992631-1.549837-2.435465-1.992671-2.804493-5.461414-5.608985-10.701372-5.608985-18.081612,0-18.081612,26.642701,0,26.642701,5.313803,0,8.708701-2.804493,10.701372-5.608985.295182-.442793.885627-1.328461,1.549837-2.435505l3.179319-5.259848.00306.004872ZM143.192849,22.547244c-13.874893,14.465297-13.874893-25.978491,0-11.513193,1.107044,1.18085,2.583076,3.321092,4.132913,5.756597-1.549837,2.435505-3.025869,4.575747-4.132913,5.756597Z"/><path class="st1" d="M151.17969,23.234158c1.996859,3.467415,3.378741,6.102921,3.378741,6.102921h6.420847s-3.407541-5.914878-6.622091-11.383943l-3.177497,5.281022Z"/></g></svg>