<?xml version="1.0"?><svg data-name="Layer 4" height="24" id="Layer_4" viewBox="0 0 24 24" width="24" xmlns="http://www.w3.org/2000/svg"><title/><path d="M18,9H17V7A5,5,0,0,0,7,7V9H6a2,2,0,0,0-2,2v9a2,2,0,0,0,2,2H18a2,2,0,0,0,2-2V11A2,2,0,0,0,18,9ZM9,7a3,3,0,0,1,6,0V9H9Zm2.85925,12a5.83729,5.83729,0,0,1-5.095-3.5,5.9118,5.9118,0,0,1,5.095-3.5,5.94645,5.94645,0,0,1,5.095,3.5A5.82712,5.82712,0,0,1,11.85925,19Z"/><path d="M11.85925,13.5083a1.99472,1.99472,0,0,0-.45471.05652l.48926,2.14032-1.92523-.82892a1.998,1.998,0,1,0,1.89069-1.36792Z"/></svg>