<?xml version="1.0" encoding="UTF-8"?><svg id="Layer_1" xmlns="http://www.w3.org/2000/svg" baseProfile="tiny" version="1.2" viewBox="0 0 24 24"><path d="M12,16.755029c2.615533,0,4.74258-2.127047,4.74258-4.74258v-7.11387C16.74258,2.270005,14.626204.131101,12.024898.131101c-.083454.000501-.166582.010445-.247799.029641-2.528368.122584-4.51633,2.206501-4.519679,4.737837v7.11387c0,2.615533,2.127047,4.74258,4.74258,4.74258Z"/><path d="M10.814355,21.415799v2.4531h2.37129v-2.4531c4.670254-.586895,8.299515-4.574218,8.299515-9.40335h-2.37129c0,3.923299-3.19057,7.11387-7.11387,7.11387s-7.11387-3.19057-7.11387-7.11387h-2.37129c0,4.827947,3.629259,8.816457,8.299515,9.40335Z"/></svg>