<?xml version="1.0"?><svg height="24px" id="Layer_1" style="enable-background:new 0 0 24 24;" version="1.1" viewBox="0 0 24 24" width="24px" xml:space="preserve" xmlns="http://www.w3.org/2000/svg" xmlns:xlink="http://www.w3.org/1999/xlink"><path d="M8.727417,6.1938477C8.2970581,6.3157959,8,6.7086792,8,7.1560059v8.9755249  c-0.4279175-0.1456909-0.8994141-0.2315674-1.4000244-0.2315674c-1.8777466,0-3.3999634,1.1417236-3.3999634,2.5500488  S4.722229,21,6.5999756,21c1.8626099,0,3.3711548-1.1240845,3.3955688-2.5166626H10v-9.25l8-2.2667236v7.3149414  c-0.4279175-0.1456909-0.8994141-0.2315674-1.4000244-0.2315674c-1.8777466,0-3.3999634,1.1416626-3.3999634,2.5499878  s1.5222168,2.5499878,3.3999634,2.5499878C18.4777832,19.1499634,20,18.0083008,20,16.5999756V3L8.727417,6.1938477z"/></svg>