<?xml version="1.0"?><svg data-name="Layer 4" height="24" id="Layer_4" viewBox="0 0 24 24" width="24" xmlns="http://www.w3.org/2000/svg"><title/><path d="M7.10693,19.35059,6.39417,18.939l.67419-.47223A.74991.74991,0,1,0,6.208,17.23828l-.458.3208V17a.75.75,0,0,0-1.5,0v.701l-.60693-.35046a.74991.74991,0,1,0-.75,1.29883l.71277.41156-.67419.47223A.74991.74991,0,1,0,3.792,20.76172l.458-.3208V21a.75.75,0,0,0,1.5,0v-.701l.60693.35046a.74991.74991,0,1,0,.75-1.29883Z"/><path d="M14.10693,19.35059l-.71277-.41156.67419-.47223a.74991.74991,0,1,0-.86035-1.22852l-.458.3208V17a.75.75,0,0,0-1.5,0v.701l-.60693-.35046a.74991.74991,0,1,0-.75,1.29883l.71277.41156-.67419.47223a.74991.74991,0,1,0,.86035,1.22852l.458-.3208V21a.75.75,0,0,0,1.5,0v-.701l.60693.35046a.74991.74991,0,1,0,.75-1.29883Z"/><path d="M21.10693,19.35059l-.71277-.41156.67419-.47223a.74991.74991,0,1,0-.86035-1.22852l-.458.3208V17a.75.75,0,0,0-1.5,0v.701l-.60693-.35046a.74991.74991,0,1,0-.75,1.29883l.71277.41156-.67419.47223a.74991.74991,0,1,0,.86035,1.22852l.458-.3208V21a.75.75,0,0,0,1.5,0v-.701l.60693.35046a.74991.74991,0,1,0,.75-1.29883Z"/><path d="M16,9.85742H14V6a2,2,0,0,0-4,0V9.85742H8V6a4,4,0,0,1,8,0Z"/><path d="M16.14288,7H7.85712A2.10507,2.10507,0,0,0,6,9.28571v3.42859A2.10515,2.10515,0,0,0,7.85712,15h8.28577A2.10515,2.10515,0,0,0,18,12.71429V9.28571A2.10507,2.10507,0,0,0,16.14288,7ZM12,12a1,1,0,1,1,1-1A1,1,0,0,1,12,12Z"/></svg>