<?xml version="1.0" encoding="UTF-8"?><svg id="Layer_1" xmlns="http://www.w3.org/2000/svg" version="1.1" viewBox="0 0 250.379745 33.265823"><defs><style>
.st0 {
fill: #fff;
}
</style></defs><g><path class="st0" d="M44.606125,31.825108c-3.25388,0-3.88102-3.46273-3.88102-5.814508,0-2.351192.627144-5.813923,3.88102-5.813923s3.88102,3.46273,3.88102,5.813923c0,2.351778-.627144,5.814507-3.88102,5.814508ZM44.606125,21.468512c-1.627522,0-2.366989,1.707672-2.366989,4.542089,0,2.835005.739468,4.542089,2.366989,4.542089,1.62635,0,2.366989-1.707087,2.366989-4.542089,0-2.834419-.740631-4.542089-2.366989-4.542089Z"/><path class="st0" d="M49.45359,24.078283c0-2.061607,1.256622-3.881603,3.639992-3.881603,3.607227,0,3.962917,3.414175,3.962917,5.250549,0,1.208065-.210609,6.377882-4.106834,6.377882-2.658329,0-3.367371-1.932903-3.367371-3.028061h1.418087c.079563,1.143713.755844,1.852171,1.916523,1.852171,1.546787,0,2.368156-1.304592,2.721508-4.23554l-.032761-.032175c-.418877.869339-1.545624,1.352566-2.592808,1.352566-2.093201,0-3.559261-1.401121-3.559254-3.655788ZM55.397392,23.88464c0-1.288212-.659904-2.41613-2.287426-2.41613-1.320972,0-2.190315,1.030806-2.190315,2.544834,0,2.174517,1.352562,2.448305,2.303806,2.448305.739468,0,2.173931-.33814,2.173935-2.577009Z"/><path class="st0" d="M62.216377,31.825108h-1.078773l3.961754-12.176592h1.063568s-3.946541,12.176592-3.946548,12.176592Z"/><path class="st0" d="M75.83094,31.825108c-4.317444,0-5.637245-3.591433-5.637245-6.088297,0-2.496279,1.319809-6.088295,5.637245-6.088295,4.316277,0,5.637245,3.59202,5.637245,6.088295,0,2.496864-1.320976,6.088295-5.637245,6.088297ZM75.83094,21.033842c-2.513245,0-4.027275,1.981461-4.027275,4.702971,0,2.722095,1.51403,4.702971,4.027275,4.702971s4.0261-1.980875,4.0261-4.702971c0-2.721508-1.512863-4.702971-4.0261-4.702971Z"/><path class="st0" d="M91.041451,23.433592c-.435257-2.029432-2.125961-2.39975-3.237503-2.39975-2.093201,0-3.785072,1.546206-3.785072,4.590649,0,2.72151.966454,4.815294,3.833046,4.815294,1.015594,0,2.770653-.483227,3.301842-3.17256h1.51403c-.643524,4.36483-4.186401,4.557886-5.056908,4.557886-2.625565,0-5.201996-1.707087-5.201996-6.152649,0-3.559258,2.028847-6.023943,5.39505-6.023943,2.980087,0,4.526886,1.852757,4.751526,3.785076,0,0-1.51403,0-1.514015-.000004Z"/><path class="st0" d="M92.936913,19.955067h9.390732v1.384741h-3.91378v10.179338h-1.562004v-10.179337h-3.914948v-1.384743Z"/><path class="st0" d="M103.668503,31.519142h-1.675491v-1.707087h1.675491v1.707087Z"/><path class="st0" d="M108.177834,25.07691c.241035.015795.498436.032175.739464.032175,1.096329,0,2.159889-.435253,2.159889-1.852757,0-.676285-.403664-1.787819-2.094368-1.787819-2.013634,0-2.142342,1.643318-2.206696,2.43251h-1.38533c0-1.659117.676285-3.704342,3.656364-3.704342,2.190315,0,3.494911,1.256037,3.494911,2.979504,0,1.449678-.837753,2.141758-1.449677,2.335398v.032175c1.095154.354521,1.884933,1.127333,1.884933,2.641361,0,1.852171-1.192268,3.639992-4.075241,3.639992-.837753,0-1.545616-.209438-2.093201-.499022-1.256622-.660486-1.595932-1.96508-1.691872-3.269672h1.46489c.049141,1.062981.306557,2.496279,2.417297,2.496279,1.448509,0,2.464104-.885719,2.464104-2.190311,0-1.900726-1.675491-2.07799-2.641945-2.07799-.209435,0-.435257.01638-.643524.01638v-1.223862Z"/><path class="st0" d="M118.20623,31.519142h-1.51403v-8.036997h-2.640778v-1.127333c1.834618-.12929,2.592804-.305965,3.043266-2.158138h1.111542v11.322468Z"/><path class="st0" d="M124.827484,27.782623h-3.945366v-1.449678h3.945366v1.449678Z"/><path class="st0" d="M134.195984,19.955067h1.514038v11.564077h-1.756226l-5.878281-9.341589h-.032761v9.341591h-1.51403v-11.564077h1.85334l5.782333,9.341589h.031601s0-9.341591-.000015-9.341591Z"/><path class="st0" d="M142.782898,31.825108c-4.316269,0-5.637238-3.591433-5.637238-6.088297,0-2.496279,1.320984-6.088295,5.637238-6.088295,4.317444,0,5.637253,3.59202,5.637253,6.088295,0,2.496864-1.319794,6.088295-5.637253,6.088297ZM142.782898,21.033842c-2.512085,0-4.026108,1.981461-4.026108,4.702971,0,2.722095,1.514023,4.702971,4.026108,4.702971,2.513245,0,4.027267-1.980875,4.027267-4.702971,0-2.721508-1.514038-4.702971-4.027267-4.702971Z"/><path class="st0" d="M156.704025,19.955067h1.755066l-4.219162,11.564077h-1.659103l-4.219162-11.564077h1.738678l3.301849,9.856991h.032761l3.269073-9.856991Z"/><path class="st0" d="M159.927475,31.519142h-1.674332v-1.707087h1.674332v1.707087Z"/><path class="st0" d="M165.109573,31.825108c-3.253876,0-3.882187-3.46273-3.882187-5.814508,0-2.351192.628311-5.813923,3.882187-5.813923,3.252701,0,3.882187,3.46273,3.882187,5.813923,0,2.351778-.629486,5.814507-3.882187,5.814508ZM165.109573,21.468512c-1.626358,0-2.368164,1.707672-2.368164,4.542089,0,2.835005.741806,4.542089,2.368164,4.542089s2.368164-1.707087,2.368164-4.542089c0-2.834419-.741806-4.542089-2.368164-4.542089Z"/><path class="st0" d="M169.897369,24.254959c0-3.687962,2.689926-4.058279,3.913788-4.058279,1.964508,0,3.544052,1.271832,3.544052,3.381996,0,2.029432-1.337357,2.882977-3.028061,3.785076l-1.175888.644106c-1.545624.853542-1.884933,1.739847-1.94928,2.174519h6.153229v1.336769h-7.748001c.080734-2.351778,1.144302-3.607815,2.658325-4.493534l1.497635-.869925c1.207489-.692663,2.077988-1.159508,2.077988-2.641361,0-.9021-.580338-2.045813-2.239456-2.045813-2.141174,0-2.238281,1.997257-2.286255,2.786446h-1.418091.000015Z"/></g><g><path class="st0" d="M3.417252,9.132208v5.186195H1.002293V2.754328h2.414959v4.380625h4.509329V2.754328h2.4173v11.564077h-2.417299v-5.186195s-4.509329,0-4.509329-.000002Z"/><path class="st0" d="M13.91484,14.318406h-2.544834L15.493222,2.754329h2.785863l4.075245,11.564077h-2.625566l-.740635-2.383954h-4.268301s-.804987,2.383954-.804988,2.383954ZM15.363347,9.937781h2.948497l-1.434465-4.574267h-.031593s-1.482439,4.574267-1.482438,4.574267Z"/><path class="st0" d="M30.371433,6.538818c-.193056-.692078-.563959-1.996671-2.561216-1.996671-1.159508,0-2.866594.772811-2.866594,4.042485,0,2.077403.821367,3.945956,2.866594,3.945956,1.336185,0,2.271046-.757015,2.561216-2.174517h2.41613c-.484394,2.512658-2.127131,4.268301-5.025316,4.268301-3.076031,0-5.282724-2.077403-5.282724-6.071917,0-4.043069,2.335398-6.104677,5.314316-6.104677,3.463314,0,4.865021,2.383954,4.993725,4.091041,0,0-2.41613,0-2.41613-.000002Z"/><path class="st0" d="M46.506264,14.318406h-2.544834l4.123215-11.564077h2.787033l4.074074,11.564077h-2.625568l-.740631-2.383954h-4.268303l-.804985,2.383954ZM47.955944,9.937781h2.947327l-1.433296-4.574267h-.032761s-1.481266,4.574267-1.48127,4.574267Z"/><path class="st0" d="M37.187496,14.318406h-2.414959V2.754328h2.414959v4.702971l4.413383-4.702971h3.125172l-4.718769,4.735146,4.992558,6.82893h-3.108795l-3.575638-5.073287-1.127918,1.159508s0,3.913779.000008,3.913781Z"/><path class="st0" d="M56.226948,2.754328h5.106049c3.897396,0,4.702389,3.317645,4.702389,5.507958,0,2.480482-.981659,6.056121-4.7995,6.056121h-5.008934s0-11.564079-.000004-11.564079ZM58.593937,12.321149h2.35178c1.965664,0,2.625568-1.980876,2.625568-3.881603,0-3.414757-1.62635-3.688547-2.657158-3.688547h-2.320187s0,7.570149-.000004,7.57015Z"/><path class="st0" d="M68.593086,14.318406h-2.546005l4.123215-11.564077h2.787033l4.074074,11.564077h-2.625565l-.739464-2.383954h-4.268303l-.804985,2.383954ZM70.041595,9.937781h2.948502l-1.434471-4.574267h-.032761l-1.48127,4.574267Z"/><path class="st0" d="M82.167877,14.318406h-2.414963v-4.36483l-3.994507-7.199248h2.850212l2.400925,5.024731,2.286247-5.024731h2.737892l-3.865807,7.231424v4.332654Z"/><path class="st0" d="M92.886597,10.759147c.01638.644106.338142,1.867967,2.448891,1.867967,1.143127,0,2.414963-.273789,2.414963-1.497649,0-.9021-.869339-1.143713-2.093201-1.433298l-1.240242-.29017c-1.868553-.434669-3.672752-.853543-3.672752-3.398377,0-1.288798.692665-3.559843,4.446152-3.559843,3.542877,0,4.49295,2.319602,4.509331,3.737103h-2.319016c-.065521-.515402-.257408-1.739847-2.368156-1.739847-.917313,0-2.012474.338726-2.012474,1.385326,0,.9021.739464,1.095156,1.223862,1.208064l2.817451.692664c1.579552.386113,3.028061,1.030804,3.028061,3.108208,0,3.47911-3.542877,3.785076-4.557297,3.785076-4.220329,0-4.94458-2.431925-4.94458-3.865222h2.319016s-.000015,0-.000008-.000002Z"/><path class="st0" d="M110.723839,10.275921c0,3.043855-1.83696,4.34845-4.752693,4.34845-1.062393,0-2.640778-.257409-3.671577-1.401121-.628311-.709044-.870506-1.642735-.9021-2.802828V2.754328h2.465271v7.505214c0,1.610558.933685,2.319601,2.061607,2.319601,1.657944,0,2.335396-.805572,2.335396-2.206693V2.754328h2.464104s0,7.521593-.000008,7.521593Z"/><path class="st0" d="M115.102127,14.318406h-2.417297V2.754328h5.28389c2.238281,0,3.592018,1.433298,3.592018,3.704342,0,1.046599-.580338,3.687962-3.689133,3.687962h-2.769478v4.171775ZM117.340408,8.149962c1.803032,0,1.803032-1.288798,1.803032-1.8042,0-1.127333-.627144-1.594763-2.124794-1.594763h-1.916527v3.398962s2.238281,0,2.238289,0Z"/><path class="st0" d="M131.291946,4.799555h-6.136856v2.431925h5.637238v2.045812h-5.637245v2.995884h6.410637v2.045228h-8.778801V2.754328h8.505013s0,2.045228,0,2.045227h.000015Z"/><path class="st0" d="M133.085617,2.754328h5.845505c3.077194,0,3.641159,2.27046,3.641159,3.269088,0,1.272417-.644684,2.367574-1.787811,2.754271.950073.418874,1.46489.773396,1.46489,2.931532,0,1.691291,0,2.110165.515991,2.303222v.305965h-2.673538c-.161469-.547577-.257401-1.143713-.257401-2.335397,0-1.578382-.097107-2.190313-1.884933-2.190313h-2.496857v4.52571h-2.366989V2.754328h-.000031.000015ZM138.287613,7.84341c1.256622,0,1.868561-.434669,1.868561-1.578382,0-.611931-.273804-1.514029-1.690704-1.514029h-3.012848v3.092412s2.835007,0,2.835007,0h-.000015Z"/><path class="st0" d="M151.583923,6.538818c-.193069-.692078-.56395-1.996671-2.560043-1.996671-1.160675,0-2.866592.772811-2.866592,4.042485,0,2.077403.821365,3.945956,2.866592,3.945956,1.336182,0,2.269882-.757015,2.560043-2.174517h2.416122c-.483215,2.512658-2.125961,4.268301-5.025314,4.268301-3.076035,0-5.282715-2.077403-5.282715-6.071917,0-4.043069,2.335388-6.104677,5.315491-6.104677,3.463318,0,4.863846,2.383954,4.992554,4.091041,0,0-2.416122,0-2.416122-.000002h-.000015Z"/><path class="st0" d="M160.448151,2.447778c1.530411,0,5.556519.660487,5.556519,6.088296s-4.026093,6.088296-5.556519,6.088296-5.557693-.660486-5.557693-6.088296,4.027267-6.088296,5.557693-6.088296ZM160.448151,12.579142c1.304596,0,3.140381-.805572,3.140381-4.043069s-1.8358-4.042484-3.140381-4.042484-3.140381.804987-3.140381,4.042484,1.8358,4.043069,3.140381,4.043069Z"/><path class="st0" d="M174.627853,2.754328h2.254654v11.564077h-2.414948l-4.71994-8.246432h-.032761v8.246432h-2.25351V2.754328h2.543655l4.591232,8.05279h.031601V2.754328h.000015Z"/></g><g><path class="st0" d="M212.018173,11.025164c-1.735382,0-2.212646,1.496743-2.212646,5.46541s.477264,5.486477,2.212662,5.486477c1.734528,0,2.211792-1.517813,2.211792-5.486477s-.477264-5.46541-2.211792-5.46541h-.000015Z"/><path class="st0" d="M248.835358,17.915342V3.372955c0-1.211812-.982361-2.194181-2.194183-2.194181h-57.716705c-1.211823,0-2.194183.982367-2.194183,2.194181v26.519976c0,1.211779.982346,2.19412,2.194122,2.19412h45.739243c1.418701,0,2.779282-.563576,3.782471-1.56675l8.822479-8.822493c1.003159-1.003172,1.566757-2.363766,1.566757-3.782465h-.000015l.000015-.000002ZM205.490295,23.994064h-10.518906c.109207-1.799887.239044-3.686577,3.579147-6.115503,2.775894-2.017015,3.88179-2.797868,3.88179-4.532806,0-1.019037-.651016-2.190313-2.125793-2.190313-2.124939,0-2.190308,1.756425-2.211807,2.884301h-2.949615c0-5.009665,3.665085-5.443493,5.031586-5.443493,2.949615,0,5.291245,1.734939,5.291245,4.857855,0,2.646054-1.713013,3.990569-3.209351,5.009604-2.038925,1.431377-3.100937,2.125364-3.448395,2.841269h6.680099s0,2.689089,0,2.689087ZM212.018204,24.405975c-3.622116,0-5.335144-2.51536-5.335144-7.91539,0-5.400092,1.713013-7.894335,5.335144-7.894335,3.621201,0,5.334213,2.494243,5.334213,7.894335,0,5.40003-1.713013,7.915392-5.334213,7.91539ZM228.665085,23.994064h-10.518906c.109207-1.799887.239105-3.686577,3.579163-6.115503,2.775894-2.017015,3.88179-2.797868,3.88179-4.532806,0-1.019037-.650955-2.190313-2.125793-2.190313-2.124939,0-2.190308,1.756425-2.211807,2.884301h-2.949615c0-5.009665,3.665085-5.443493,5.031586-5.443493,2.949615,0,5.291245,1.734939,5.291245,4.857855,0,2.646054-1.713013,3.990569-3.209351,5.009604-2.038925,1.431377-3.100937,2.125364-3.448395,2.841269h6.680099s0,2.689089,0,2.689087h-.000015ZM229.690125,19.8736h3.036484c.129898,1.25771.802338,2.103449,2.146469,2.103449,1.453278,0,2.299469-1.236164,2.299469-2.884241,0-1.36606-.650955-2.754036-2.25563-2.754036-.411911,0-1.453278.021547-2.038925,1.1059l-2.710571-.130264,1.062927-8.457629h8.457565v2.558824h-6.267319l-.542618,3.340044c.564087-.390426,1.258087-.845799,2.754395-.845799,2.060425,0,4.662643,1.430948,4.662643,4.966205,0,2.103449-1.062866,5.529926-5.594818,5.529926-2.407867,0-4.857864-1.431376-5.010101-4.532375,0,0,.000031,0,.000031-.000002Z"/></g><circle class="st0" cx="246.337387" cy="29.345816" r="2.255109"/></svg>