<?xml version="1.0"?><svg height="24px" id="Layer_1" style="enable-background:new 0 0 24 24;" version="1.1" viewBox="0 0 24 24" width="24px" xml:space="preserve" xmlns="http://www.w3.org/2000/svg" xmlns:xlink="http://www.w3.org/1999/xlink"><path d="M11,9H3c-1.1045532,0-2,0.8953857-2,2v6c0,1.1045532,0.8954468,2,2,2h2v2h4v-2h2c1.1045532,0,2-0.8954468,2-2v-6  C13,9.8953857,12.1045532,9,11,9z M11,17H3v-6h8V17z"/><path d="M21,3h-4c-1.1045532,0-2,0.8953857-2,2v14c0,1.1045532,0.8954468,2,2,2h4c1.1045532,0,2-0.8954468,2-2V5  C23,3.8953857,22.1045532,3,21,3z M19,19h-2v-2h2V19z M21,15h-4v-2h4V15z M21,11h-4V9h4V11z M21,7h-4V5h4V7z"/></svg>