<?xml version="1.0"?><svg height="24px" id="Layer_1" style="enable-background:new 0 0 24 24;" version="1.1" viewBox="0 0 24 24" width="24px" xml:space="preserve" xmlns="http://www.w3.org/2000/svg" xmlns:xlink="http://www.w3.org/1999/xlink"><path d="M19,3H5C3.8954468,3,3,3.8953857,3,5v14c0,1.1045532,0.8954468,2,2,2h14c1.1045532,0,2-0.8954468,2-2V5  C21,3.8953857,20.1045532,3,19,3z M19,19H5V7h14V19z"/><g><path d="M15.6342163,10.3657837C14.7984009,9.2141724,13.4588623,8.5,11.9995117,8.5   c-2.015625,0-3.7993164,1.3554688-4.3369141,3.2963867l1.4453125,0.4003906C9.4663086,10.9033203,10.6552734,10,11.9995117,10   c1.0548096,0,2.0202637,0.5552368,2.5602417,1.4402466L13,13h4V9L15.6342163,10.3657837z"/><path d="M12.0375977,16c-1.0644531,0-2.0361328-0.5657959-2.5731812-1.4644165L11,13H7v4l1.3870239-1.3870239   C9.2211914,16.7769775,10.5689087,17.5,12.0375977,17.5c1.9736328,0,3.7470703-1.3198242,4.3120117-3.2094727l-1.4375-0.4296875   C14.5356445,15.1206055,13.3535156,16,12.0375977,16z"/></g></svg>