<?xml version="1.0"?><svg height="24px" id="Layer_1" style="enable-background:new 0 0 24 24;" version="1.1" viewBox="0 0 24 24" width="24px" xml:space="preserve" xmlns="http://www.w3.org/2000/svg" xmlns:xlink="http://www.w3.org/1999/xlink"><path d="M12,12c2.2091675,0,4-1.7908936,4-4c0-2.2091675-1.7908325-4-4-4S8,5.7908325,8,8C8,10.2091064,9.7908325,12,12,12z M12,6  c1.1030273,0,2,0.8974609,2,2s-0.8969727,2-2,2s-2-0.8974609-2-2S10.8969727,6,12,6z"/><path d="M13,13h-2c-3.9375033,0-7,2.1015015-7,4v2c0,0.5522842,0.4477153,1,1,1h14c0.5522842,0,1-0.4477158,1-1v-2  C20,15.1015015,17,13,13,13z M18.0009766,18H6v-1c0.0913086-0.4462891,1.8330078-2,5-2h2  c3.199707,0,4.9189453,1.5488281,5.0009766,2.0195313V18z"/></svg>