<?xml version="1.0" encoding="UTF-8"?><svg id="Layer_2" xmlns="http://www.w3.org/2000/svg" version="1.1" viewBox="0 0 596.265823 96.417722"><defs><style>
.st0 {
fill: #020202;
}
</style></defs><g id="Layer_2-2"><path class="st0" d="M49.517476,93.607634c25.073031,0,45.398769-20.325747,45.398769-45.398773S74.590498,2.810087,49.517476,2.810087,4.118558,23.135837,4.118558,48.208861s20.325749,45.398773,45.398918,45.398773ZM76.704693,46.935781c0-1.586206,0-2.871884,2.867404-2.871884,2.854387,0,2.854387,1.285678,2.854387,2.871884v2.854247c0,1.573048,0,2.86754-2.854387,2.86754-2.867404,0-2.867404-1.294496-2.867404-2.86754v-2.854247ZM68.113258,41.207411c0-1.577387,0-2.863063,2.867404-2.863063,2.854391,0,2.854391,1.285676,2.854391,2.863063v14.304408c0,1.581867,0,2.871884-2.854391,2.871884-2.867404,0-2.867404-1.290017-2.867404-2.871884v-14.304408ZM59.53498,18.307091c0-1.568707,0-2.854246,2.854247-2.854246,2.871884,0,2.871884,1.285539,2.871884,2.854246v60.111628c0,1.56437,0,2.854387-2.871884,2.854387-2.854247,0-2.854247-1.290017-2.854247-2.854387V18.307091ZM50.943545,32.620317c0-1.577387,0-2.863063,2.871744-2.863063,2.854391,0,2.854391,1.285678,2.854391,2.863063v31.483076c0,1.56423,0,2.867404-2.854391,2.867404-2.871744,0-2.871744-1.303175-2.871744-2.867404,0,0,0-31.483079,0-31.483076ZM42.369603,41.207411c0-1.577387,0-2.863063,2.854247-2.863063,2.86754,0,2.86754,1.285676,2.86754,2.863063v14.304408c0,1.581867,0,2.871884-2.86754,2.871884-2.854247,0-2.854247-1.290017-2.854247-2.871884v-14.304408ZM33.778172,26.898524c0-1.568707,0-2.854247,2.867404-2.854247,2.854389,0,2.854389,1.28554,2.854389,2.854247v42.926521c0,1.564374,0,2.854391-2.854389,2.854391-2.867404,0-2.867404-1.290017-2.867404-2.854391V26.898524ZM25.197655,44.066141c0-1.573048,0-2.858722,2.854247-2.858722,2.871881,0,2.871881,1.285678,2.871881,2.858726v8.591435c0,1.56423,0,2.854247-2.871881,2.854247-2.854247,0-2.854247-1.290017-2.854247-2.854247v-8.591439ZM16.60832,49.790023v-2.854247c0-1.586206,0-2.869644,2.869784-2.871884,2.854246,0,2.854246,1.285678,2.854246,2.871884h.002242v2.854247c0,1.573048,0,2.86754-2.854389,2.86754-2.871881,0-2.871881-1.294496-2.871883-2.86754Z"/></g><g><polygon class="st0" points="158.845826 13.920096 150.267568 33.427069 149.350076 45.117636 147.051528 45.117636 146.082183 33.427069 137.756797 13.920096 105.486138 13.920096 132.803047 65.389716 132.803047 82.906115 164.055695 82.906115 164.055695 64.932597 191.116486 13.920096 158.845826 13.920096"/><path class="st0" d="M230.996014,12.338011c-23.896597,0-42.586592,9.495749-42.586592,35.742792s18.689982,35.794663,42.586592,35.794663,42.583375-9.547621,42.583375-35.794663-18.686766-35.742792-42.583375-35.742792ZM230.996014,62.073174c-5.874462,0-10.672574-3.319784-10.672574-13.992371s4.798113-13.992371,10.672574-13.992371c5.871207,0,10.620715,3.319784,10.620715,13.992371s-4.749483,13.992371-10.620715,13.992371Z"/><path class="st0" d="M332.515282,46.907207c0,10.672587-4.033019,12.715032-9.907506,12.715032-5.919849,0-9.95611-2.249932-9.95611-12.919277V13.920096h-31.145682v36.355525c0,26.247042,17.156553,33.80409,41.101792,33.80409,23.899851,0,41.056391-7.557047,41.056391-33.80409V13.920096h-31.148911s0,32.987112.000025,32.987112Z"/><path class="st0" d="M457.551834,13.819594h-37.837109v68.982778h37.837109c23.896609,0,40.748404-9.191004,40.748404-34.465453,0-25.326321-16.851794-34.517325-40.748404-34.517325ZM457.551834,61.817057c-2.655153,0-3.880671,0-6.584454-.051872v-26.807904c2.399063-.051872,3.62453-.152373,6.584454-.152373,5.871194,0,10.672587,3.216041,10.672587,13.53201,0,10.260856-4.801367,13.480139-10.672587,13.480139Z"/><rect class="st0" x="373.916133" y="13.715851" width="31.249412" height="68.982778"/><path class="st0" d="M547.302714,12.338011c-23.896609,0-42.586579,9.495749-42.586579,35.742792s18.68997,35.794663,42.586579,35.794663,42.583362-9.547621,42.583362-35.794663-18.686753-35.742792-42.583362-35.742792ZM547.302714,62.073174c-5.874462,0-10.672587-3.319784-10.672587-13.992371s4.798125-13.992371,10.672587-13.992371c5.87122,0,10.620715,3.319784,10.620715,13.992371s-4.749496,13.992371-10.620715,13.992371Z"/></g></svg>