<?xml version="1.0" encoding="UTF-8"?><svg id="Layer_2" xmlns="http://www.w3.org/2000/svg" version="1.1" viewBox="0 0 158.365967 189.116455"><defs><style>
.st0 {
fill: #020202;
}
</style></defs><g id="Layer_2-2"><path class="st0" d="M79.183113,158.365723c43.731453,0,79.182854-35.451416,79.182854-79.182861S122.914551,0,79.183113,0,0,35.45142,0,79.182861s35.45142,79.182861,79.183113,79.182861ZM126.602051,76.962402c0-2.766602,0-5.009033,5.001221-5.009033,4.978516,0,4.978516,2.242432,4.978516,5.009033v4.978271c0,2.743652,0,5.001457-4.978516,5.001457-5.001221,0-5.001221-2.257812-5.001221-5.001457v-4.978271ZM111.617188,66.971191c0-2.751221,0-4.993649,5.001221-4.993649,4.978523,0,4.978523,2.242428,4.978523,4.993649v24.949219c0,2.759033,0,5.009033-4.978523,5.009033-5.001221,0-5.001221-2.25-5.001221-5.009033v-24.949219ZM96.655273,27.029301c0-2.73608,0-4.97827,4.978271-4.97827,5.009033,0,5.009033,2.242189,5.009033,4.97827v104.844479c0,2.728516,0,4.978516-5.009033,4.978516-4.978271,0-4.978271-2.25-4.978271-4.978516V27.029301ZM81.67041,51.9939c0-2.751221,0-4.993649,5.008789-4.993649,4.978523,0,4.978523,2.242432,4.978523,4.993649v54.911617c0,2.728271,0,5.001221-4.978523,5.001221-5.008789,0-5.008789-2.272949-5.008789-5.001221,0,0,0-54.911621,0-54.911617ZM66.716057,66.971191c0-2.751221,0-4.993649,4.978271-4.993649,5.001457,0,5.001457,2.242428,5.001457,4.993649v24.949219c0,2.759033,0,5.009033-5.001457,5.009033-4.978271,0-4.978271-2.25-4.978271-5.009033v-24.949219ZM51.731201,42.01416c0-2.73608,0-4.978271,5.001221-4.978271,4.978519,0,4.978519,2.242191,4.978519,4.978271v74.87085c0,2.728523,0,4.978523-4.978519,4.978523-5.001221,0-5.001221-2.25-5.001221-4.978523V42.01416ZM36.765381,71.957283c0-2.743652,0-4.986076,4.978271-4.986076,5.009029,0,5.009029,2.242432,5.009029,4.986084v14.984863c0,2.728271,0,4.978271-5.009029,4.978271-4.978271,0-4.978271-2.25-4.978271-4.978271v-14.984871ZM21.78418,81.940666v-4.978271c0-2.766602,0-5.005127,5.005371-5.009033,4.97827,0,4.97827,2.242432,4.97827,5.009033h.00391v4.978271c0,2.743652,0,5.001457-4.978519,5.001457-5.009029,0-5.009029-2.257812-5.009031-5.001457Z"/><polygon class="st0" points="22.299801 167.982666 19.71582 173.858643 19.439449 177.380127 18.74707 177.380127 18.45508 173.858643 15.94727 167.982666 6.22656 167.982666 14.45508 183.486572 14.45508 188.762939 23.869141 188.762939 23.869141 183.348877 32.020512 167.982666 22.299801 167.982666"/><path class="st0" d="M44.033199,167.506104c-7.198238,0-12.828121,2.860352-12.828121,10.766602s5.629879,10.782227,12.828121,10.782227,12.827152-2.875977,12.827152-10.782227-5.62891-10.766602-12.827152-10.766602ZM44.033199,182.487549c-1.769531,0-3.21484-1-3.21484-4.214844s1.445309-4.214844,3.21484-4.214844c1.768551,0,3.199219,1,3.199219,4.214844s-1.43066,4.214844-3.199219,4.214844Z"/><path class="st0" d="M74.613281,177.919189c0,3.214844-1.214844,3.830078-2.984383,3.830078-1.783203,0-2.999023-.677734-2.999023-3.891602v-9.875h-9.38184v10.951172c0,7.90625,5.167973,10.182617,12.380863,10.182617,7.199219,0,12.367188-2.276367,12.367188-10.182617v-10.951172h-9.382812s0,9.936523.000008,9.936523Z"/><path class="st0" d="M112.277344,167.952393h-11.397461v20.779297h11.397461c7.198242,0,12.274414-2.768555,12.274414-10.381836,0-7.628906-5.076172-10.397461-12.274414-10.397461ZM112.277344,182.4104c-.799797,0-1.168953,0-1.983398-.015625v-8.075195c.722656-.015625,1.091797-.045898,1.983398-.045898,1.768547,0,3.214844.96875,3.214844,4.076172,0,3.09082-1.446289,4.060547-3.214844,4.060547Z"/><rect class="st0" x="87.084229" y="167.921143" width="9.413086" height="20.779297"/><path class="st0" d="M139.3125,167.506104c-7.198242,0-12.828117,2.860352-12.828117,10.766602s5.629875,10.782227,12.828117,10.782227,12.827148-2.875977,12.827148-10.782227-5.628906-10.766602-12.827148-10.766602ZM139.3125,182.487549c-1.769531,0-3.214844-1-3.214844-4.214844s1.445312-4.214844,3.214844-4.214844c1.768555,0,3.199219,1,3.199219,4.214844s-1.430664,4.214844-3.199219,4.214844Z"/></g></svg>