<?xml version="1.0" encoding="utf-8"?>
<!-- Generator: Adobe Illustrator 27.0.1, SVG Export Plug-In . SVG Version: 6.00 Build 0)  -->
<svg version="1.1" id="Layer_1" xmlns="http://www.w3.org/2000/svg" xmlns:xlink="http://www.w3.org/1999/xlink" x="0px" y="0px"
	 viewBox="0 0 126.7 54.5" style="enable-background:new 0 0 126.7 54.5;" xml:space="preserve">
<style type="text/css">
	.st0{fill:#E6E5D7;}
</style>
<g>
	<g>
		<g>
			<g>
				<path class="st0" d="M59.3,13.9c-0.7,0-3.9,0.1-7,1c-3.8,1.2-8.9,5.1-13.7,10.4c-4.7,5.2-9.2,8.3-11,9.1c-2.8,1.2-5,1-5,1l0,0
					l-0.1,0.5v6c0.1,0,0.3,0,0.4,0c1.4,0,4.1-0.2,7.1-1.5c3.6-1.5,8.8-5.7,13.2-10.7c4.8-5.3,8.9-8,10.9-8.6c2.2-0.7,4.7-0.7,5-0.7
					V13.9z"/>
			</g>
		</g>
		<g>
			<g>
				<g>
					<path class="st0" d="M103.2,22.4v-0.2c0-4.7-3.8-8.5-8.5-8.5H74.5c-4.7,0-8.5,3.8-8.5,8.5v0.2c0,1.9,0.8,3.7,2.1,5.1l0.4,0.4
						l-0.4,0.4c-1.3,1.3-2.1,3.2-2.1,5.1l0,0c0,4.7,3.8,8.5,8.5,8.5h20.2c4.7,0,8.5-3.8,8.5-8.5v-0.1c0-1.9-0.8-3.7-2.1-5.1
						l-0.4-0.4l0.4-0.4C102.5,26.1,103.2,24.3,103.2,22.4z M74.5,20.2h20.2c1.1,0,2.1,0.9,2.1,2.1v0.4c0,1.1-0.9,1.9-1.9,1.9H74.4
						c-1.1,0-1.9-0.9-1.9-1.9v-0.4C72.5,21.1,73.4,20.2,74.5,20.2z M94.7,35.5H74.5c-1.1,0-2.1-0.9-2.1-2.1V33
						c0-1.1,0.9-1.9,1.9-1.9h20.5c1.1,0,1.9,0.9,1.9,1.9v0.4C96.8,34.5,95.9,35.5,94.7,35.5z"/>
				</g>
			</g>
		</g>
	</g>
	<g>
		<g>
			<path class="st0" d="M99.9,53.5H26C11.8,53.5,0.3,42,0.3,27.8C0.3,13.7,11.8,2.1,26,2.1h73.9c14.1,0,25.7,11.5,25.7,25.7
				C125.6,42,114,53.5,99.9,53.5z M26,4.2C13,4.2,2.4,14.8,2.4,27.8S13,51.4,26,51.4h73.9c13,0,23.6-10.6,23.6-23.6
				S112.9,4.2,99.9,4.2H26z"/>
		</g>
	</g>
</g>
</svg>
