<?xml version="1.0" encoding="UTF-8"?>
<svg id="Layer_1" data-name="Layer 1" xmlns="http://www.w3.org/2000/svg" version="1.1" viewBox="0 0 288 55">
  <defs>
    <style>
      .cls-1 {
        opacity: .6;
      }

      .cls-2 {
        fill: #fff;
        stroke-width: 0px;
      }
    </style>
  </defs>
  <g>
    <circle class="cls-2" cx="41" cy="37.6" r="4.9"/>
    <circle class="cls-2" cx="7.6" cy="37.6" r="4.9"/>
    <path class="cls-2" d="M25.8,33c.2.8.7,1.6,1.2,2.1.9.9,1.5,2.2,1.5,3.5v.6c0,1.3-.5,2.6-1.5,3.5-.9.9-1.5,2.2-1.4,3.7.1,2.5,2.2,4.5,4.7,4.6,2.8.1,5.1-2.1,5.1-4.9s-.6-2.6-1.5-3.5c-.9-.9-1.4-2.2-1.4-3.5v-.5c0-1.3.5-2.5,1.4-3.4.6-.6,1.1-1.3,1.3-2.2.4-1.3,1.2-2.3,2.4-2.9h0c1.2-.7,2.6-.8,3.8-.4,1.2.4,2.6.3,3.8-.4,2.3-1.2,3.2-4.1,2-6.4-1.2-2.5-4.3-3.4-6.7-2.1-1.2.6-2,1.7-2.3,2.9s-1.2,2.2-2.4,2.8l-.4.2c-1.1.6-2.5.7-3.7.4-.9-.3-1.9-.3-2.9,0-2.4.8-3.8,3.4-3.1,5.9Z"/>
    <path class="cls-2" d="M3.3,29.3c1.3.7,2.7.7,4,.3s2.4-.3,3.5.2h.1c1.1.7,1.9,1.7,2.1,2.9.2,1,.7,1.8,1.4,2.5s1.3,1.9,1.3,3.1v1.1c0,1.2-.5,2.3-1.4,3s-1.6,2.3-1.5,3.8c.1,2.5,2.2,4.5,4.7,4.6,2.8.1,5.1-2.1,5.1-4.9s-.6-2.7-1.5-3.6c-.9-.8-1.3-1.9-1.3-3.1v-1.1c0-1.2.5-2.3,1.4-3.1.6-.6,1.1-1.4,1.4-2.4.6-2.5-.9-5.1-3.3-5.8-.9-.3-1.9-.3-2.8,0-1.1.3-2.2.2-3.2-.3l-1-.5c-1-.5-1.7-1.4-2-2.5s-1.3-2.4-2.6-3c-2.5-1.2-5.6,0-6.6,2.7-.9,2.3.1,4.9,2.3,6Z"/>
    <path class="cls-2" d="M9.2,17.9c1.2.9,2.6,1.1,4,.8,1.1-.3,2.3,0,3.3.5l1.2.8c.9.6,1.6,1.4,1.8,2.5s.7,1.6,1.4,2.3c1.8,1.7,4.7,1.7,6.5,0,.7-.7,1.2-1.5,1.4-2.4.3-1,.9-1.9,1.8-2.5l1.1-.7c1-.7,2.3-.8,3.4-.5,1.4.4,3,0,4.3-.9,1.9-1.6,2.4-4.4,1-6.4-1.5-2.3-4.7-2.9-6.9-1.3-1,.7-1.7,1.8-1.9,2.9-.2,1.2-.9,2.2-1.9,2.9l-.3.2c-1.1.7-2.5.9-3.7.5-1-.3-2-.3-3,0s-2.7.3-3.8-.5h0c-1-.7-1.7-1.7-1.9-3-.2-1.3-1-2.5-2.1-3.2-2.3-1.5-5.5-.8-6.9,1.7-1.2,2.1-.6,4.8,1.4,6.3Z"/>
    <circle class="cls-2" cx="24.1" cy="8.9" r="4.9"/>
  </g>
  <g class="cls-1">
    <path class="cls-2" d="M66.5,50h-8.3L75,5h8.2l-16.7,44.9ZM60.4,48.4h5l15.6-41.8h-4.9l-15.6,41.8Z"/>
  </g>
  <g>
    <path class="cls-2" d="M95.3,27.3c0-11,8.9-19.9,19.9-19.9h22.9c8.3,0,15,6.7,15,15h0v24.7h-14.7v-10.8l-11.4,10.8h-11.8c-5.5,0-10.4-2.2-14-5.8-3.6-3.6-5.8-8.6-5.8-14ZM109.9,30.2c0,1.3,1.1,2.3,2.3,2.3h23.4c1.1,0,2-.9,2-2v-8.2h-25.4c-1.3,0-2.3,1.1-2.3,2.3v5.5Z"/>
    <rect class="cls-2" x="157.6" y="7.6" width="14.6" height="19.7"/>
    <rect class="cls-2" x="157.6" y="32.9" width="14.6" height="14.6" rx="4" ry="4"/>
  </g>
  <g>
    <g id="_14" data-name="14">
      <path class="cls-2" d="M199,16.9v10.7c-5.9,0-10.7-4.8-10.7-10.7s4.8-10.7,10.7-10.7,10.7,4.8,10.7,10.7h-10.7ZM220.5,27.6c5.9,0,10.7-4.8,10.7-10.7s-4.8-10.7-10.7-10.7-10.7,4.8-10.7,10.7h10.7v10.7ZM199,27.6c-5.9,0-10.7,4.8-10.7,10.7s4.8,10.7,10.7,10.7,10.7-4.8,10.7-10.7h-10.7v-10.7ZM220.5,27.6v10.7h-10.7c0,5.9,4.8,10.7,10.7,10.7s10.7-4.8,10.7-10.7-4.8-10.7-10.7-10.7Z"/>
    </g>
    <circle class="cls-2" cx="209.8" cy="27.6" r="7.3"/>
  </g>
  <g>
    <g id="_-39" data-name="-39">
      <path class="cls-2" d="M285.2,21.4c1.2,0,2.2-1.2,2-2.3,0-2.8-2.9-5-5.6-4.5-4,.5-8,1.3-11.9,2.6-1.3.5-2.7,1.3-3.3,2.6s0,1.6.8,1.9c2.9,1,6,0,9,0,3-.3,5.9,0,8.9-.2ZM275.3,8.5c.2-.2.3-.5.3-.7,0-.8-.8-1.4-1.5-1.7-1.8-.6-4.3-.4-5.4,1.3-1.6,2.1-3.1,4.4-4.5,6.7-.6,1.1-1.2,2.5-.5,3.7.8.8,1.9.2,2.7-.2,2-1.2,3.3-3.2,4.9-4.8,1.3-1.5,2.8-2.8,4-4.3ZM256.8,18.9c-2.2-.5-4.5-.8-6.8-.9s-.9.1-1.2.4c-1,.8-1.9,2.2-2,3.5-.1,1.1.8,2,1.9,2,3.3,0,7.4.7,9.6-1.9s.5-1.3,0-1.9-.8-1-1.5-1.1ZM262.3,16.3c0-2.4-.8-4.6-1.4-6.9-.2-1.1-1.3-1.7-2.4-1.4-1.3.3-2.4,1.2-3,2.3-.3.5-.3,1.1,0,1.6.8,2.3,1.6,4.8,3.2,6.6,1.6,1.4,3.7-.4,3.7-2.1ZM247.8,33.1c-.9,1.8-.2,5.5,1.9,5.9.5,0,1-.1,1.3-.5,1.8-2.4,3.3-4.9,5.1-7.2,1.2-1.7,2.9-3.6,2.7-5.8,0-.7-.7-1.1-1.3-1-1.1.2-2.1.6-2.8,1.4-2.5,2.3-5,4.6-6.9,7.4ZM267.4,30.5c3.4,3.4,6.8,6.8,10.5,9.9,3,2.2,7.2-.9,7-4.4.2-2.2-1.7-3.7-3.3-4.8-3.9-2.7-7.7-5.7-12.1-7.7-1.6-.7-4.5-.8-5,1.4-.2,2.2,1.4,4,2.8,5.5ZM258.9,45.1c.8,2.1,2.8,3,4.9,3,.9,0,1.8-.5,2.3-1.3s.5-1.4.2-2.2c-1-4.9-1.7-9.9-2.2-15-.3-1.5-1-3.9-2.9-3.5-2.6,1.7-2.5,5.3-2.7,8.1,0,3.6-.4,7.3.4,10.9Z"/>
    </g>
    <circle class="cls-2" cx="270.9" cy="45.6" r="1.3"/>
  </g>
</svg>