<?xml version="1.0" encoding="UTF-8"?>
<svg id="Layer_1" xmlns="http://www.w3.org/2000/svg" version="1.1" viewBox="0 0 485 58">
  <!-- Generator: Adobe Illustrator 29.6.1, SVG Export Plug-In . SVG Version: 2.1.1 Build 9)  -->
  <g>
    <path d="M73.5,33.900002c-.5-.799999-1.199997-1.900002-1.900002-2.299999.099998,0,.099998-.1.199997-.1,5.199997-2.299999,7.400002-7,7.400002-13.5,0-10.2-5.900002-16.200001-18.400002-16.200001h-15v54.1h10.299999v-22h3.900005c.799999,0,1.400002.200001,1.799999.5.400002.299999.799999.700001,1.099998,1.5l8.600002,18.099998c.699997,1.799999,2,2.599998,3.599998,2.599998h9.699997l-9.799995-19.699997c-.400002-1-1-2.200001-1.5-3ZM61.5,25.299999h-5.299999v-15h5.299999c4.599998,0,7.300003,2.2,7.300003,7.5s-2.700005,7.5-7.300003,7.5Z" fill="#fff"/>
    <path d="M205.199997,47v-13.799999h-10.300003v22.700001h14.399994c11.800003,0,18.399994-5.099998,18.899994-18.700001v-4.700001l-22.999985,14.5Z" fill="#fff"/>
    <path d="M209.300003,1.8h-14.399994v21.6h10.300003v-13.9l23,14.6v-3.6c-.500015-13.6-7.100006-18.7-18.900009-18.7Z" fill="#fff"/>
    <path d="M11.8,39.900002c0,6,2.599999,7.700001,6.8,7.700001,4.1,0,6.800001-1.700001,6.800001-7.700001v-4.799999h10.400002v3.400002c0,13.399998-7.1,18.200001-17.200001,18.200001S1.400002,51.900005,1.400002,38.500004v-19.400003c-.000002-13.400001,7.099998-18.2,17.199999-18.2s17.200003,4.8,17.200003,18.2v3.299999h-10.500004v-4.6c0-6-2.6-7.7-6.799999-7.7-4.1,0-6.8,1.7-6.8,7.7v22.100002h.1Z" fill="#fff"/>
    <path d="M88.5,19.1c0-13.4,7.099998-18.200001,17.199997-18.200001s17.199997,4.8,17.199997,18.200001v19.4c0,13.400002-7.099998,18.200001-17.199997,18.200001s-17.199997-4.799999-17.199997-18.200001v-19.4ZM98.800003,39.900002c0,6,2.599998,7.700001,6.800003,7.700001,4.099998,0,6.800003-1.700001,6.800003-7.700001v-22.100002c0-6-2.599998-7.7-6.800003-7.7-4.099998,0-6.800003,1.7-6.800003,7.7v22.100002Z" fill="#fff"/>
    <path d="M128.100006,1.6h9.600006l7.300003,35.499998h.199997l7.5-35.5h10l7.5,35.5h.199997l7.199997-35.5h9.699997l-11.900009,54.400002h-10l-7.600006-37.200001h-.199997l-8.199997,37.200001h-9.899994L128.100006,1.6Z" fill="#fff"/>
  </g>
  <g>
    <path d="M268.899994,16.799999c-1.700012-5.1-4-7.3-7.600006-7.3-3.700012,0-5.699997,2.3-5.699997,5.900001,0,8.199999,23.199997,8.800001,23.199997,25.799997,0,9.299999-6.399994,15.5-17.299988,15.5-8.399994,0-15-4.599998-17.800003-15.299999l10.199997-2.200001c1.199997,6.599998,5,8.900002,8.100006,8.900002,3.600006,0,6.399994-2.400002,6.399994-6.5,0-10.200001-23.199997-10.4-23.199997-25.6,0-9.3,5.600006-15.2,16.300003-15.2,9.299988,0,14.899994,5.5,16.700012,13.2l-9.300018,2.800001Z" fill="#fff"/>
    <path d="M298.700012,1.6v37.999998c0,5.200001,2.299988,7.900002,7.299988,7.900002s7.399994-2.700001,7.399994-7.900002V1.599998h10.399994v38.099998c0,12-7.100006,17-17.799988,17s-17.700012-5-17.700012-17V1.6h10.400024Z" fill="#fff"/>
    <path d="M335.299988,56V1.6h15c12.799988,0,19.100006,6,19.100006,16.3,0,10.199999-6.200012,16.299997-19.100006,16.299997h-4.600006v21.800003h-10.399994ZM345.700012,25.6h5.600006c5.100006,0,7.700012-2.6,7.700012-7.699999s-2.600006-7.7-7.700012-7.7h-5.600006v15.399999Z" fill="#fff"/>
    <path d="M376.899994,56V1.6h15c12.799988,0,19.100006,6,19.100006,16.3,0,10.199999-6.200012,16.299997-19.100006,16.299997h-4.600006v21.800003h-10.399994ZM387.299988,25.6h5.600006c5.100006,0,7.700012-2.6,7.700012-7.699999s-2.600006-7.7-7.700012-7.7h-5.600006v15.399999Z" fill="#fff"/>
    <path d="M419.899994,56V1.6h10.399994v45.199999h16.700012v9.200001h-27.100006Z" fill="#fff"/>
    <path d="M463.700012,23.6l8.799988-21.9h11.100006l-14.899994,32.299999v22h-10.399994v-22l-14.800018-32.4h11.100006l9.100006,22Z" fill="#fff"/>
  </g>
</svg>