<?xml version="1.0" encoding="UTF-8"?><svg id="Layer_2" xmlns="http://www.w3.org/2000/svg" viewBox="0 0 331.69356 92.74852"><defs><style>.cls-1{fill:#020202;}</style></defs><g id="Layer_2-2"><path id="Wordmark" class="cls-1" d="M331.69356,92.74852h-30.40399v-11.52496h13.61046v-8.23212h-12.73236c-9.98828,0-17.67159-7.4638-17.67159-17.56185V18.11066h17.56185v43.35582h12.07377V18.11066h17.56185v74.63787ZM247.62689,41.7094h12.07377v-12.07377h-12.07377v12.07377ZM247.18782,72.99144c-9.98828,0-17.67159-7.4638-17.67159-17.56185v-19.64733c0-10.09806,7.68331-17.67161,17.67159-17.67161h11.85426c9.98832,0,17.67163,7.57355,17.67163,17.67161v17.45209h-29.08682v8.23212h23.59874v11.52496h-24.03781M207.46629,0h20.08638l-18.43995,36.0018,18.98876,36.98964h-20.08638l-18.98872-36.98964L207.46629,0ZM168.17166,0h18.65947v72.99144h-18.65947V0ZM141.26019,0h17.56185v11.52496h-17.56185V0ZM141.26019,18.11066h17.56185v54.88078h-17.56185V18.11066ZM102.84438,61.46648h12.07377v-31.83085h-12.07377v31.83085ZM101.74676,81.22356h13.7202v-8.23212h-13.06161c-9.98832,0-17.67163-7.4638-17.67163-17.56185v-19.64733c0-10.09806,7.68331-17.67161,17.67163-17.67161h30.07465v74.63787h-30.73324v-11.52496ZM58.94123,0h17.56185v11.52496h-17.56185V0ZM58.94123,18.11066h17.56185v54.88078h-17.56185V18.11066ZM18.65946,60.91767h12.84212V12.07377h-12.84212v48.8439ZM0,0h32.48943c10.64686,0,17.67161,6.47594,17.67161,16.46424v38.96536c0,8.56141-4.71976,17.56185-17.67161,17.56185H0V0Z"/></g></svg>