<?xml version="1.0" encoding="UTF-8"?><svg id="Layer_2" xmlns="http://www.w3.org/2000/svg" viewBox="0 0 239.56966 218.28292"><defs><style>.cls-1{fill:#020202;}</style></defs><g id="Layer_2-2"><path class="cls-1" d="M0,30.52462c0-2.03469.21094-4.00344.59765-5.93706l19.52506,17.3058,21.40152-23.7526L22.42107,1.13817c2.58401-.71632,5.29106-1.13817,8.10358-1.13817,16.76965.02196,30.38842,13.54844,30.52464,30.31808v.20655c0,1.52052-.11865,3.03663-.3296,4.49124l23.80975,21.08512c-8.67047,6.68413-15.56554,15.38977-20.09633,25.35225l-24.68427-21.84977c-2.98391.95362-6.09527,1.4458-9.22419,1.4458C13.67149,61.04048.01318,47.37778,0,30.52462M209.04503,157.23749c-3.05422,0-6.00296.44825-8.78474,1.28761l-23.04069-20.40394c-3.79253,10.3316-10.01962,19.59974-18.15836,27.01337l19.89418,17.61781c-.28124,1.65675-.43066,3.33108-.43505,5.00979.01758,16.87073,13.70663,30.52904,30.57298,30.51146,2.94875,0,5.87992-.43066,8.70561-1.27442l-19.88537-17.67054,21.36197-23.6076,19.77553,17.56947c.33837-1.80617.51855-3.62991.51855-5.52837v-.25927c-.13621-16.76087-13.76375-30.27416-30.52463-30.26537M175.13657,81.45324l24.68428-21.84977c2.9136.92725,5.99857,1.4458,9.22419,1.4458,16.86632-.02198,30.52463-13.71543,30.49829-30.58616,0-1.96877-.19336-3.93314-.57131-5.86674l-19.52945,17.31019-21.39711-23.7614L217.14861,1.14695c-2.63673-.74268-5.36576-1.12499-8.10358-1.13378-16.76967.01757-30.39281,13.54844-30.52464,30.31369v.20655c0,1.52052.11865,3.03665.3252,4.49563l-23.80535,21.08073c8.66608,6.68413,15.56554,15.38978,20.09633,25.35225v-.00879ZM62.33689,138.12116l-23.02751,20.40394c-16.13685-4.85599-33.157,4.28472-38.01299,20.42594C.46143,181.72401.02637,184.60245,0,187.50286v.25927C0,189.6606.18018,191.48434.51856,193.2905l19.78433-17.56947,21.36198,23.6076-19.89419,17.67054c16.1676,4.82523,33.18335-4.37258,38.00418-20.5358.84377-2.82132,1.27004-5.75249,1.27443-8.70124-.00879-1.67872-.15381-3.35305-.43945-5.00979l19.8942-17.61781c-8.13875-7.41363-14.37024-16.68177-18.16715-27.01337M151.88492,164.64234c3.26517,4.95267,1.89846,11.61482-3.05422,14.87999-4.94827,3.26517-11.61042,1.89846-14.87559-3.05422-1.47658-2.23683-2.06545-4.94388-1.64358-7.59381h-1.91603c.9009,5.86675-3.12013,11.34677-8.98248,12.24765-5.86234.90528-11.34677-3.12015-12.24764-8.98248-.167-1.08108-.167-2.18411,0-3.26517h-1.49854c.77783,6.04253-3.4893,11.5709-9.53183,12.34873-.43506.05713-.87011.08788-1.30958.09228-6.02934,0-10.92048-4.99222-10.92048-11.13143,0-2.0962.56689-4.043,1.56007-5.70853-14.90637-11.39949-24.69746-30.45433-24.69746-52.03605,0-34.90603,25.54121-63.20702,57.02387-63.20702,31.48705,0,57.03267,28.30099,57.03267,63.20702,0,21.69158-9.89218,40.8343-24.92598,52.21622l-.0132-.01319ZM110.02232,105.61015c-1.35793-2.5796-3.26077-4.82523-5.5811-6.58744-2.76419-1.68313-5.92826-2.5972-9.16266-2.63675-1.07229.00439-2.14017.12305-3.18607.36036-4.04299.50097-7.45757,3.26516-9.80866,6.45562-2.06545,2.56642-3.67385,5.68216-3.71341,9.03522-.3208,2.77736.23731,5.55034.74708,8.26616.65917,3.21244,2.92678,5.8316,5.48881,7.72566,1.19093.94922,2.896,2.25439,4.39456,1.15576.99756-1.33593.1582-3.29152,1.06786-4.76811.34279-1.40626,1.28321-2.59279,2.57523-3.25635,2.62356-1.31398,5.26028-2.61477,8.06402-3.54202,2.27639-.66797,4.15286-2.18411,6.09087-3.4849,2.54445-1.96436,4.23195-5.56791,3.02346-8.72321M119.9628,128.81786c-2.78175-.07031-6.28862,12.34873-5.7305,17.7716,1.74904,7.18513,2.36867-5.04495,5.7305-5.05373,3.22563.14062,2.74661,12.52889,5.29107,5.03178.77783-4.99224-2.23682-17.67055-5.29107-17.74965M160.25219,120.50333c.50976-2.71582,1.06786-5.4888.74706-8.26616-.03954-3.35306-1.64796-6.46881-3.71342-9.03522-2.35548-3.19046-5.77006-5.94585-9.81304-6.45562-1.04591-.23731-2.1094-.35597-3.18167-.36036-3.19484-.00879-6.42925.99757-9.16267,2.63675-2.3467,1.70508-4.19241,4.05178-5.58109,6.58744-1.2085,3.1553.479,6.75885,3.02346,8.72321,1.938,1.30079,3.81447,2.81693,6.09087,3.49368,2.79495.91847,5.44046,2.21926,8.06401,3.53324,1.28761.66357,2.22805,1.85009,2.57523,3.25635.90965,1.46778.07031,3.43217,1.05908,4.76811,1.50734,1.09863,3.21244-.20653,4.39017-1.15576,2.57523-1.89406,4.84282-4.51322,5.50201-7.72566"/></g></svg>