<?xml version="1.0" encoding="UTF-8"?><svg id="Layer_2" xmlns="http://www.w3.org/2000/svg" viewBox="0 0 569.6394 123.39993"><defs><style>.cls-1{fill:#020202;}</style></defs><g id="Layer_2-2"><g id="Page-1"><path id="Fill-17" class="cls-1" d="M4.57037,15.14074V4.57037h10.5768s-1.46373-3.26436-1.43606-4.57037H0v13.7111c1.31222-.03946,4.57037,1.42964,4.57037,1.42964ZM123.39993,13.7111c-1.31146-.03946-4.98787,1.42964-4.98787,1.42964V4.57037h-10.5707s1.88302-3.26436,1.84747-4.57037h13.7111v13.7111ZM4.57037,108.25615v10.57341h10.5768s-1.46373,3.26004-1.43606,4.57037H0v-13.7111c1.31222.03552,4.57037-1.43268,4.57037-1.43268ZM118.82956,108.25615v10.57341h-10.5707s1.46552,3.26004,1.42997,4.57037h13.7111v-13.7111c-1.31146.03552-4.57037-1.43268-4.57037-1.43268Z"/><path id="Fill-1-copy-2" class="cls-1" d="M9.72669,31.49457c-.6663-.66401-.8884-20.80448,0-21.68983.8884-.88534,21.09987-.88534,21.76616,0,.6663.88534.6663,21.02582,0,21.68983-.6663.66401-21.09987.66401-21.76616,0ZM37.1489,31.49457c-.6663-.66401-.8884-20.80448,0-21.68983.8884-.88534,21.09987-.88534,21.76616,0,.6663.88534.6663,21.02582,0,21.68983-.6663.66401-21.09987.66401-21.76616,0ZM64.5711,31.49457c-.6663-.66401-.8884-20.80448,0-21.68983.8884-.88534,21.09986-.88534,21.76616,0,.66631.88534.66631,21.02582,0,21.68983-.6663.66401-21.09986.66401-21.76616,0ZM91.99332,31.49457c-.6663-.66401-.8884-20.80448,0-21.68983.88839-.88534,21.09986-.88534,21.76615,0,.66631.88534.66631,21.02582,0,21.68983-.6663.66401-21.09986.66401-21.76615,0ZM9.72669,58.91678c-.6663-.66401-.8884-20.80448,0-21.68983.8884-.88534,21.09987-.88534,21.76616,0,.6663.88534.6663,21.02582,0,21.68983-.6663.66401-21.09987.66401-21.76616,0ZM37.1489,58.91678c-.6663-.66401-.8884-20.80448,0-21.68983.8884-.88534,21.09987-.88534,21.76616,0,.6663.88534.6663,21.02582,0,21.68983s-21.09987.66401-21.76616,0ZM64.5711,58.91678c-.6663-.66401-.8884-20.80448,0-21.68983.8884-.88534,21.09986-.88534,21.76616,0,.66631.88534.66631,21.02582,0,21.68983-.6663.66401-21.09986.66401-21.76616,0ZM91.99332,58.91678c-.6663-.66401-.8884-20.80448,0-21.68983.88839-.88534,21.09986-.88534,21.76615,0,.66631.88534.66631,21.02582,0,21.68983-.6663.66401-21.09986.66401-21.76615,0ZM9.72669,86.33898c-.6663-.664-.8884-20.80448,0-21.68982.8884-.88534,21.09987-.88534,21.76616,0,.6663.88534.6663,21.02582,0,21.68982-.6663.66401-21.09987.66401-21.76616,0ZM37.1489,86.33898c-.6663-.664-.8884-20.80448,0-21.68982.8884-.88534,21.09987-.88534,21.76616,0,.6663.88534.6663,21.02582,0,21.68982-.6663.66401-21.09987.66401-21.76616,0ZM64.5711,86.33898c-.6663-.664-.8884-20.80448,0-21.68982.8884-.88534,21.09986-.88534,21.76616,0,.66631.88534.66631,21.02582,0,21.68982-.6663.66401-21.09986.66401-21.76616,0ZM91.99332,86.33898c-.6663-.664-.8884-20.80448,0-21.68982.88839-.88534,21.09986-.88534,21.76615,0,.66631.88534.66631,21.02582,0,21.68982-.6663.66401-21.09986.66401-21.76615,0ZM9.72669,113.76119c-.6663-.664-.8884-20.80448,0-21.68983.8884-.88534,21.09987-.88534,21.76616,0,.6663.88534.6663,21.02582,0,21.68983-.6663.66401-21.09987.66401-21.76616,0ZM37.1489,113.76119c-.6663-.664-.8884-20.80448,0-21.68983.8884-.88534,21.09987-.88534,21.76616,0,.6663.88534.6663,21.02582,0,21.68983-.6663.66401-21.09987.66401-21.76616,0ZM64.5711,113.76119c-.6663-.664-.8884-20.80448,0-21.68983.8884-.88534,21.09986-.88534,21.76616,0,.66631.88534.66631,21.02582,0,21.68983-.6663.66401-21.09986.66401-21.76616,0ZM91.99332,113.76119c-.6663-.664-.8884-20.80448,0-21.68983.88839-.88534,21.09986-.88534,21.76615,0,.66631.88534.66631,21.02582,0,21.68983-.6663.66401-21.09986.66401-21.76615,0Z"/></g><path class="cls-1" d="M162.96301,67.29941c.06959,2.79976,1.46947,8.11861,10.6377,8.11861,4.96975,0,10.49853-1.18996,10.49853-6.50881,0-3.92013-3.77979-4.96859-9.09865-6.22814l-5.38844-1.25954c-8.11861-1.89048-15.95771-3.71137-15.95771-14.76892,0-5.5972,3.00969-15.46712,19.3165-15.46712,15.39753,0,19.52642,10.07868,19.59601,16.23723h-10.07752c-.28067-2.23842-1.12037-7.55727-10.2886-7.55727-3.98856,0-8.74839,1.46831-8.74839,6.01705,0,3.92013,3.21961,4.75983,5.31885,5.24926l12.24867,3.01085c6.85791,1.67939,13.15679,4.47915,13.15679,13.50705,0,15.11686-15.39637,16.44599-19.80594,16.44599-18.33647,0-21.48649-10.56811-21.48649-16.79625h10.07868Z"/><path class="cls-1" d="M234.97627,82.76653h-9.37816v-5.24926h-.13918c-2.23958,3.98972-6.15971,6.22814-11.33822,6.22814-7.3485,0-12.66736-4.19848-12.66736-13.71582v-24.49501h9.79801v23.09397c0,5.7387,3.35879,6.85907,6.36847,6.85907,3.21961,0,7.55843-1.81857,7.55843-8.46887v-21.48417h9.79801v37.23196Z"/><path class="cls-1" d="M253.31157,50.92301h.14034c1.81973-2.93894,4.54874-6.36963,11.1283-6.36963,8.1882,0,15.46712,6.30004,15.46712,19.17616,0,10.21785-4.61949,20.01586-15.67704,20.01586-6.85907,0-9.30857-3.70905-10.49853-5.7387h-.14034v19.24807h-9.79801v-51.7202h9.37816v5.38844ZM261.92078,75.69869c6.29888,0,8.04786-6.85907,8.04786-11.26863,0-5.87788-2.09924-11.40781-8.32854-11.40781-6.71873,0-8.32854,6.01937-8.32854,11.96684,0,5.52994,2.37991,10.70961,8.60921,10.70961Z"/><path class="cls-1" d="M296.07115,50.92301h.14034c1.81973-2.93894,4.54874-6.36963,11.1283-6.36963,8.1882,0,15.46712,6.30004,15.46712,19.17616,0,10.21785-4.61949,20.01586-15.67704,20.01586-6.85907,0-9.30857-3.70905-10.49853-5.7387h-.14034v19.24807h-9.79801v-51.7202h9.37816v5.38844ZM304.68035,75.69869c6.29888,0,8.04786-6.85907,8.04786-11.26863,0-5.87788-2.09924-11.40781-8.32854-11.40781-6.71873,0-8.32854,6.01937-8.32854,11.96684,0,5.52994,2.37991,10.70961,8.60921,10.70961Z"/><path class="cls-1" d="M339.74116,82.76653h-9.79801v-50.24957h9.79801v50.24957Z"/><path class="cls-1" d="M368.43466,82.13559c-4.61833,13.78772-5.87788,15.60861-14.41634,15.60861-1.33029,0-3.00969-.06959-4.40957-.1415v-7.83794c.41985.06959,1.04962.1415,1.88932.1415,3.56987,0,5.52878-.49176,6.43922-5.59952l-13.71814-38.77217h10.91837l7.97828,27.43395h.14034l7.62802-27.43395h10.35819l-12.80769,36.60103Z"/><path class="cls-1" d="M398.31811,82.76653h-9.79801v-30.23371h-5.3896v-6.99824h5.3896v-3.01085c0-7.69876,4.19964-10.6377,10.91837-10.6377,2.86935,0,4.19848.06959,5.03818.13918v7.90985h-2.72901c-3.35995,0-3.42953,1.04846-3.42953,4.12889v1.47063h6.36847v6.99824h-6.36847v30.23371Z"/><path class="cls-1" d="M410.2142,45.53457h9.37816v6.4369h.14034c2.02965-3.77863,4.26923-7.41809,10.21785-7.41809.62977,0,1.25954.06959,1.88932.13918v9.9395c-.8397-.13918-1.88932-.13918-2.79976-.13918-7.62802,0-9.0279,4.75751-9.0279,8.8864v19.38725h-9.79801v-37.23196Z"/><path class="cls-1" d="M466.27322,75.48761c0,4.40957.97887,5.38844,2.16883,5.80829v1.47063h-10.56811c-.55902-1.74898-.69936-2.31033-.90928-4.40957-2.23958,2.31033-5.3896,5.38844-12.03758,5.38844-5.59952,0-11.33822-3.1477-11.33822-10.84647,0-7.27892,4.61949-10.98796,10.84763-11.89725l8.81913-1.33145c1.53906-.20876,3.42837-.8397,3.42837-2.93894,0-4.12889-3.91897-4.33998-6.43806-4.33998-4.899,0-5.7387,3.01085-6.01937,5.17967h-9.44775c1.11921-11.40781,9.0279-13.01762,16.65707-13.01762,5.2481,0,14.83734,1.6098,14.83734,10.7792v20.15504ZM456.68398,64.63882c-.97887.77011-2.58868,1.40104-6.64798,2.02965-3.63946.63093-6.64914,1.54022-6.64914,5.59952,0,3.43069,2.65943,4.47915,4.54874,4.47915,4.33998,0,8.74839-2.79976,8.74839-7.3485v-4.75983Z"/><path class="cls-1" d="M528.27971,82.76653h-9.79801v-22.60686c0-5.52762-2.4495-7.3485-5.31885-7.3485-4.899,0-6.64914,3.21961-6.64914,7.62918v22.32618h-9.79801v-22.39577c0-3.15002,0-7.55959-5.87904-7.55959-4.61949,0-6.08896,3.21961-6.08896,7.27892v22.67644h-9.79801v-37.23196h9.37816v5.45803h.14034c1.25954-2.4495,3.98856-6.43922,10.56811-6.43922,5.38844,0,7.83794,1.96007,10.35819,5.94978,1.25954-1.82089,3.98856-5.94978,9.93718-5.94978,7.27892,0,12.94803,4.27039,12.94803,12.45859v25.75456Z"/><path class="cls-1" d="M569.21839,71.84815c-2.58868,8.95831-10.00793,11.89725-16.3764,11.89725-10.49853,0-18.54639-5.03818-18.54639-20.36612,0-4.47915,1.53906-18.8259,17.84703-18.8259,7.3485,0,17.49677,3.50028,17.49677,20.50762v1.74898h-25.54579c.27951,2.79976.8397,9.09749,8.74839,9.09749,2.72901,0,5.52878-1.39872,6.29888-4.05931h10.07752ZM559.56072,60.44034c-.56018-6.01937-4.40957-7.83794-7.55843-7.83794-4.61949,0-7.06899,2.93894-7.62918,7.83794h15.1876Z"/></g></svg>