<?xml version="1.0" encoding="UTF-8"?>
<svg id="Layer_1" xmlns="http://www.w3.org/2000/svg" version="1.1" viewBox="0 0 720 490">
  <!-- Generator: Adobe Illustrator 29.6.1, SVG Export Plug-In . SVG Version: 2.1.1 Build 9)  -->
  <g>
    <path d="M543.710938,342.37207c-14.250977,0-28.430664-1.980469-42.208984-6.025391-37.255859-8.615234-71.430664-28.223633-101.591797-58.292969-15.384766-15.336914-29.585938-33.412598-42.063477-53.428223-14.436035,21.858887-30.28125,43.190918-49.55127,62.20752-19.749512,21.681641-45.744629,37.615234-75.23877,46.105469-27.356445,7.874023-57.314453,9.298828-86.63623,4.115234-29.425781-5.200195-57.198242-16.868164-80.31543-33.743164-25.015625-18.259766-44.113281-42.376953-55.258789-69.769531C-.530762,207.882324-4.200195,178.993652.234863,149.953125c4.074219-26.679688,14.851074-53.005371,31.166016-76.130371,16.384277-23.224121,37.694824-42.295898,61.626953-55.154297C118.178711,5.15625,145.730469-1.145996,172.928711.362793l1.825195-.00293c.123535,0,.25-.000488.373535-.000488,15.819336,0,30.756348,1.571777,44.408203,4.67334,37.28418,8.474121,71.969727,29.029297,103.094727,61.095703,13.967773,14.390137,26.309082,30.065918,37.114258,45.478027,21.941895-32.058105,47.42041-62.232422,83.062012-84.869141C467.095703,10.274414,496.238281.793457,527.124023-.689453c28.699219-1.377441,58.299805,4.106445,85.626953,15.857422,57.045898,24.530273,96.438477,72.361816,105.375,127.949219,4.62793,28.273926.946289,57.993164-10.660156,85.861328-10.668945,25.616211-27.772461,49.213867-49.461914,68.243164-33.602539,29.480469-74.213867,45.149414-114.292969,45.150391ZM393.630859,167.582031c16.551758,33.655273,55.629883,96.498047,121.861328,111.441406l1.019531.229492,1.000977.301758c33.166992,9.996094,71.141602.020508,101.580078-26.683594,30.859375-27.07373,46.490234-65.508789,40.794922-100.305664-5.726562-35.618652-32.055664-66.688965-70.443359-83.196289-39.53418-16.999023-83.142578-14.550781-113.807617,6.39209l-.876953.576172c-34.563477,21.843262-58.241211,54.934082-81.128906,91.244629ZM165.152344,59.149414c-31.765625,0-64.038574,18.206055-85.541504,48.685059-22.803711,32.322754-28.433105,71.444336-14.691895,102.098633l.447266,1.050781c14.064941,34.941406,48.204102,60.351074,91.321777,67.970215,42.868164,7.578125,83.383789-4.491211,108.378906-32.282227l.620117-.688965.662109-.648926c22.822266-22.37207,40.61084-49.86377,58.759766-79.186035-29.544922-46.985352-66.751953-91.787598-118.646973-103.581543-8.771973-1.993164-18.575684-3.065918-29.169922-3.193848l-1.894531.332031-3.738281-.297363c-2.162109-.172363-4.336426-.257812-6.506836-.257812Z" fill="#fff"/>
    <rect x="118" y="152.5" width="120" height="25" fill="#fff"/>
    <polygon points="551 215 519 215 519 181 486 181 486 149 519 149 519 115 551 115 551 149 586 149 586 181 551 181 551 215" fill="#fff"/>
  </g>
  <g>
    <path d="M84,485l-6.400002-23h-40.599998l-6.6,23H8.7l34.400002-116h30.600002l34.400002,116h-24.100006ZM57.599998,390l-15.299999,54.100006h30.399998l-15.099998-54.100006ZM180,485s-11.699997-27.600006-18.300003-41c-3.830002-5.76001-11.399994-8.019989-18-7.100006-.600006,15.700012-.479996,48.100006-.479996,48.100006h-21.900002v-116s33.000008-.970001,49.400002,1.200012c34.699997,3.920013,37,54.399994,2.130005,59.700012,6.539993,2.600006,10.5,8.649994,13.300003,14.799988l17.5,36.200012c1.229996,2.480011,1.199997,4.399994-2.339996,4.380005l-21.310013-.280029ZM174.580002,402.899994c-.100006-17.899994-18-15.899994-31.300003-16v32.799988c15.699997.529999,31-1.070007,31.300003-16.799988ZM302,455c-10.600006,24.5-33.799988,30.200012-55.800003,29.799988h-26.899994v-116l40.900009.200012c50.600006,1.649994,52.399994,56.200012,41.700012,86.399994l.099976-.399994ZM274,393.700012c-10.200012-8.76001-21.399994-6.970001-32.800003-6.970001v79.699982c10,0,20.900009.799988,29.400009-5.399994,18.100006-11.399994,15.799988-54.600006,3.350006-67.300018l.049988-.029968ZM407,442c2.170013,58.600006-81.5,58.399994-84,12.700012-1.529999-14-.269989-28-.679993-42v-44.200012h21.899994l.399994,83c2.570007,22.899994,33,20.899994,37.600006,8.200012,4.660004-10.100006,2.5-21.5,2.980011-32.299988v-58.899994h21.899994v73.499969h-.100006ZM428,386v-17.899994h73.5v17.899994h-25.600006v80.399994h25.600006v18.100006h-73.5v-18.100006h25.600006v-80.399994h-25.600006ZM583,485l-37.599976-84.399994v84.399994h-19.900024v-116h26.900024l37.400024,83.600006c.099976-6,.039978-83.600006.039978-83.600006h19.900024v116h-26.740051ZM700,475c-24.299988,20.899994-66.700012,16.299988-75.099976-24.899994-11.5-62.600006,22.400024-98.600006,69.599976-77.600006,29,16.299988,27.400024,83.399994,5.5,103v-.5ZM670.700012,386.299988c-20.700012-.549988-23.700012,20.600006-24.5,30.799988-.169983,19.299988-1.880005,51.399994,24.900024,50,8.299988,0,15.5-6.019989,18.200012-13.700012,5.450012-12.100006,9.559998-68.100006-18.599976-67.100006l-.000061.000031ZM676,13.4v2.34h5.150024v13.6h2.659973v-13.6h5.200012v-2.34h-13.01001ZM690.799988,13.4v15.9h2.429993v-13.599999l4.299988,13.599999h2.400024l4.099976-13.3v13.3h2.400024v-15.9h-3.799988l-3.900024,12.699999-4-12.7h-3.929993Z" fill="#fff"/>
    <path d="M362.966797,488.103516c-19.57666,0-39.250977-11.160156-40.46582-33.375977-.958496-8.761719-.821289-17.681641-.688477-26.307617.079102-5.149414.160645-10.473633.007324-15.705078v-44.714844h22.897949l.402344,83.498047c1.060547,9.423828,7.39502,15.756836,16.942383,16.886719,8.865234,1.051758,17.507812-2.839844,19.6875-8.854492,3.327148-7.217773,3.140625-15.231445,2.958984-22.982422-.070312-3.018555-.143555-6.140625-.007812-9.169922l-.000977-59.37793h22.899414v74.5h-.083008c.866211,30.083984-20.511719,44.554688-42.193359,45.549805-.78418.035156-1.570312.053711-2.356445.053711ZM322.819824,369v43.700195c.153809,5.239258.071777,10.575195-.007812,15.735352-.131836,8.595703-.268555,17.483398.685059,26.209961,1.230469,22.485352,21.959473,33.304688,41.780273,32.405273,21.3125-.977539,42.324219-15.28125,41.222656-45.032227l-.018555-.518555h.118164v-72.5h-20.899414v58.400391c-.133789,3.017578-.061523,6.12207.008789,9.124023.183594,7.865234.374023,15.99707-3.035156,23.384766-2.313477,6.394531-11.421875,10.575195-20.728516,9.46875-10.041016-1.188477-16.703125-7.851562-17.822266-17.822266l-.400391-82.555664h-20.902832ZM667.40918,487.661133c-4.947266,0-9.844727-.769531-14.478516-2.354492-14.808594-5.067383-24.9375-17.535156-28.520508-35.107422-6.148438-33.469727.613281-61.65918,18.085938-75.415039,13.591797-10.698242,32.133789-11.671875,52.207031-2.741211,11.510742,6.467773,19.351562,21.704102,21.552734,41.825195,2.757812,25.203125-3.938477,51.280273-15.922852,62.003906l-.833008.746094v-.543945c-9.158203,7.537109-20.74707,11.586914-32.09082,11.586914ZM668.716797,366.986328c-9.626953,0-18.34375,2.869141-25.602539,8.583984-17.175781,13.521484-23.800781,41.349609-17.72168,74.438477,3.505859,17.201172,13.402344,29.40332,27.862305,34.351562,15.249023,5.217773,33.47168,1.396484,46.418945-9.739258l.826172-.710938v.4375c11.236328-10.973633,17.421875-36.058594,14.761719-60.371094-2.166016-19.795898-9.822266-34.754883-21.006836-41.041016-8.926758-3.969727-17.545898-5.949219-25.538086-5.949219ZM201.36377,485.780273h-.056641l-21.640137-.28418-.127441-.300781c-.116699-.276367-11.77002-27.740234-18.288086-40.974609-3.795898-5.702148-11.231934-7.563477-17.067383-6.87793-.575195,15.664062-.465332,47.333984-.463867,47.655273l.001953.501953h-22.902344v-116.985352l.485352-.014648c.330566-.007812,33.229492-.944336,49.480469,1.204102,18.604004,2.101562,27.35498,17.287109,27.608398,30.505859.243164,12.660156-7.060547,26.578125-23.852539,29.902344,4.872559,2.452148,8.735352,7.069336,12.063477,14.380859l17.495117,36.189453c.85791,1.729492,1.008789,2.999023.459961,3.878906-.511719.820312-1.557617,1.21875-3.196289,1.21875ZM180.33252,484.503906l20.983887.276367c1.325195.004883,2.081055-.245117,2.395508-.748047.345215-.552734.17334-1.532227-.509766-2.910156l-17.502441-36.204102c-3.555176-7.80957-7.695312-12.430664-13.03418-14.552734l-1.714844-.681641,1.824219-.277344c17.343262-2.636719,24.861816-16.553711,24.619629-29.176758-.245605-12.796875-8.715332-27.49707-26.730469-29.532227-15.102051-1.999023-44.695801-1.318359-48.844238-1.210938v115.013672h20.898926c-.011719-4.170898-.071289-33.154297.481934-47.619141l.015625-.417969.415039-.057617c6.202148-.864258,14.325684,1.0625,18.485352,7.318359,6.190918,12.561523,16.922852,37.740234,18.21582,40.780273ZM610.240234,485.5h-27.564453l-.132812-.296875-36.642578-82.25293v82.549805h-20.900391v-117h27.724609l.131836.295898,36.461914,81.503906c.073242-14.194336.022461-80.579102.021484-81.299805v-.5h20.900391v117ZM583.324219,484.5h25.916016v-115h-18.900391c.004883,6.689453.054688,77.424805-.040039,83.108398l-.956055.195312-37.267578-83.303711h-26.076172v115h18.900391v-83.900391l.957031-.203125,37.466797,84.103516ZM108.77002,485.5h-25.149902l-6.399902-23h-39.84375l-6.600098,23H8.030273l34.696777-117h31.346191l.106445.357422,34.590332,116.642578ZM84.379883,484.5h23.050293l-34.103516-115h-29.853516l-34.103027,115h20.65332l6.600098-23h41.356445l6.399902,23ZM248.253418,485.318359c-.682129,0-1.369141-.005859-2.0625-.018555h-27.391113v-117.001953l41.402832.202148c16.860352.549805,29.543457,6.896484,37.710938,18.864258,12.944824,18.96875,11.384766,48.651367,4.45752,68.203125l-.064941-.019531c-8.710449,19.762695-26.888184,29.770508-54.052734,29.770508ZM219.799805,484.299805h26.400391c28.027832.511719,46.651367-9.415039,55.34082-29.498047l.035156.011719c6.720215-19.324219,8.167969-48.339844-4.48877-66.885742-7.977539-11.689453-20.393555-17.889648-36.90332-18.427734l-40.384277-.197266v114.99707ZM502,485h-74.5v-19.099609h25.599609v-79.400391h-25.599609v-18.900391h74.5v18.900391h-25.599609v79.400391h25.599609v19.099609ZM428.5,484h72.5v-17.099609h-25.599609v-81.400391h25.599609v-16.900391h-72.5v16.900391h25.599609v81.400391h-25.599609v17.099609ZM669.441406,467.643555c-6.00293,0-10.916992-1.791016-14.607422-5.334961-9.569336-9.194336-9.335938-28.394531-9.165039-42.415039l.03125-2.798828c1.658203-21.166016,10.038086-31.681641,24.99707-31.294922,6.621094-.234375,11.947266,2.591797,15.842773,8.389648,10.792969,16.066406,7.463867,49.984375,3.21582,59.416016-2.889648,8.223633-10.567383,13.994141-18.65625,13.994141-.561523.029297-1.114258.043945-1.658203.043945ZM669.921875,386.789062c-13.832031,0-21.643555,10.206055-23.223633,30.349609l-.029297,2.766602c-.167969,13.837891-.399414,32.788086,8.858398,41.681641,3.81543,3.666016,9.037109,5.350586,15.545898,5.013672,7.698242-.000977,14.988281-5.49707,17.754883-13.366211,4.34082-9.642578,7.070312-43.321289-3.118164-58.487305-3.692383-5.496094-8.723633-8.176758-14.992188-7.947266h-.03125c-.256836-.006836-.511719-.010742-.764648-.010742ZM247.486816,466.963867c-1.070312,0-2.13916-.008789-3.20459-.017578-1.03418-.007812-2.062988-.016602-3.082031-.016602h-.5v-80.699219h.5c1.656738,0,3.309082-.038086,4.95459-.075195,9.491211-.222656,19.311035-.443359,28.170898,7.166016l.522461.448242-.109863.067383c7.053223,7.731445,10.919434,25.444336,9.020996,41.650391-1.455566,12.424805-6.03418,21.646484-12.892578,25.96582-6.848145,4.99707-15.141113,5.510742-23.379883,5.510742ZM241.700195,465.930664c.85791.001953,1.722168.008789,2.590332.015625,9.101074.074219,18.516113.150391,26.015137-5.320312,6.625488-4.173828,11.041016-13.136719,12.460449-25.255859,1.905273-16.260742-2.038574-34.011719-9.172852-41.290039l-.388184-.395508c-8.435547-6.957031-17.473633-6.750977-27.027344-6.530273-1.487793.03418-2.980957.068359-4.477539.075195v78.701172ZM73.358887,444.599609h-31.720215l15.964355-56.448242,15.755859,56.448242ZM42.960938,443.599609h29.080566l-14.444336-51.750977-14.63623,51.750977ZM147.952637,420.286133c-1.57373,0-3.143066-.03418-4.689941-.085938l-.48291-.016602v-33.787109l.503906.003906c1.254395.009766,2.552246,0,3.872559-.009766,8.657227-.0625,18.47998-.132812,23.85791,5.176758,2.708496,2.673828,4.038086,6.379883,4.065918,11.330078v.012695c-.092773,4.84375-1.619629,8.704102-4.538086,11.472656-5.119141,4.855469-13.891113,5.90332-22.589355,5.90332ZM143.779785,419.21582c9.76123.310547,20.390137-.167969,26.07373-5.558594,2.754395-2.612305,4.136719-6.131836,4.226562-10.759766-.027344-4.668945-1.259766-8.141602-3.768066-10.618164-5.08252-5.018555-14.679688-4.951172-23.148438-4.888672-1.148438.007812-2.282715.016602-3.383789.012695v31.8125ZM684.30957,29.839844h-3.65918v-13.599609h-5.150391v-3.340332h14.009766v3.340332h-5.200195v13.599609ZM681.650391,28.839844h1.65918v-13.599609h5.200195v-1.340332h-12.009766v1.340332h5.150391v13.599609ZM706.929688,29.799805h-3.399414v-10.480957l-3.231445,10.480957h-3.134766l-3.433594-10.859863v10.859863h-3.430664V12.899902h4.797852l3.626953,11.516602,3.536133-11.516602h4.668945v16.899902ZM704.530273,28.799805h1.399414v-14.899902h-2.930664l-4.262695,13.883789-4.373047-13.883789h-3.063477v14.899902h1.430664v-13.099609l.976562-.150879,4.189453,13.250488h1.664062l3.992188-12.947266.977539.147461v12.799805Z" fill="#fff"/>
  </g>
</svg>