<?xml version="1.0" encoding="UTF-8"?>
<svg id="_图层_1" data-name="图层_1" xmlns="http://www.w3.org/2000/svg" version="1.1" viewBox="0 0 116.839996 21.040001">
  <!-- Generator: Adobe Illustrator 29.6.1, SVG Export Plug-In . SVG Version: 2.1.1 Build 9)  -->
  <path d="M6.93,15.65c0,.817381-.662618,1.48-1.48,1.480001-.817381,0-1.48-.662619-1.48-1.48s.662618-1.48,1.48-1.48h0c.817381,0,1.48.662619,1.48,1.48" fill="#fff"/>
  <path d="M19.84,14.11c-.969032-6.737704-6.262296-12.030967-13-13-.784012.41618-1.507388.937685-2.15,1.55v1.43c6.715122.005504,12.158976,5.444885,12.170001,12.16h1.43c.606833-.643471,1.127829-1.36278,1.549999-2.14" fill="#fff"/>
  <path d="M21,9.62C21.000072,4.307021,16.69311-.000058,11.380131-.00013c-.01671,0-.033421.000043-.050131.00013-.34,0-.67,0-1,.05l-.22.64c4.742704,1.662003,8.473319,5.388938,10.14,10.13l.639999-.23c0-.32.059999-.64.059999-1" fill="#fff"/>
  <path d="M11.44,21c-6.298663.000059-11.41247-5.091398-11.44-11.39C-.009232,6.574027,1.19716,3.660678,3.35,1.52l.65.61C-.142136,6.235657-.171708,12.921814,3.933949,17.06395c.021919.022114.043937.044132.066051.066051,4.105658,4.142136,10.791814,4.171707,14.93395.06605.022114-.021919.04413-.043936.06605-.06605l.610001.610001c-2.174408,2.140699-5.119175,3.315722-8.170001,3.259998" fill="#fff"/>
  <path d="M11.31,16.91c.209699-2.288654-.777203-4.523362-2.610001-5.91-.965856-.760548-2.127321-1.232068-3.35-1.36-.317122-.041412-.548421-.320716-.53-.64.025818-.324823.31007-.567215.634893-.541396.005042.000401.010077.000866.015107.001396,4.296639.446804,7.424884,4.281138,7,8.580001-.041175.457581-.128281.909859-.26,1.35l1.74.49c.514943-.148071,1.016673-.338728,1.5-.57.129451-.675585.193081-1.362131.19-2.049999-.006162-5.425555-3.967331-10.036307-9.329999-10.860002-.578487-.106334-1.171513-.106334-1.75,0-.732291.193467-1.390301.600807-1.89,1.17-1.350112,1.563225-1.177349,3.924952.385876,5.275064.375689.324471.812214.570906,1.284124.724936.309967.073918.623778.130671.94.17h0c1.686493.287576,2.919973,1.749165,2.920001,3.460001-.000036.670889-.194552,1.327381-.56,1.889999l1.2.77c.588152.161341,1.191314.261868,1.8.299999.358722-.719885.58242-1.499439.66-2.299999" fill="#fff"/>
  <rect x="104.18" y="3.17" width="2.209999" height="14.699999" fill="#fff"/>
  <path d="M68.389999,11.73c.934212-.428624,1.512688-1.383507,1.459999-2.41v-3.51c.020866-.729899-.261513-1.435841-.779999-1.95-.482834-.451028-1.119278-.701314-1.779999-.7h-6.380001v14.73h2.220001v-5.889999h2.27c1.010521-.008571,1.868668.738016,2,1.74l.870003,4.17h2.419998l-.940002-3.91c-.091888-.9084-.592461-1.725511-1.360001-2.22M63.130001,5.24h3.799999c.413773.019045.733765.369916.714722.783692-.00087.018822-.002441.037605-.004723.056308v3c.05014.411167-.242523.785133-.653694.835278-.0187.002281-.037483.003857-.056305.004723h-3.799999v-4.68Z" fill="#fff"/>
  <path d="M29.09,3.87c-.528358.528182-.811258,1.253568-.780001,2v9.4c-.020863.729899.261515,1.435842.780001,1.95.483917.449312,1.119654.699322,1.780001.700001h6.000002v-2.1h-5.6c-.419273-.019711-.743183-.375577-.723473-.79485.00071-.015081.001867-.030138.003473-.04515v-3.78h5.449997v-2.059999h-5.48v-3.06c-.044645-.417355.257494-.791881.67485-.836527.015011-.001606.030067-.002764.045149-.003473h5.6v-2.07h-6c-.659603.004563-1.293982.254038-1.780001.7" fill="#fff"/>
  <path d="M111.239998,5.24h5.599998v-2.07h-6c-.659599.004564-1.293983.254039-1.779999.7-.524223.530874-.806389,1.254386-.779999,2v11.999999h2.209999v-6.669999h5.510002v-2.059999h-5.519997v-3.06c-.044647-.417355.257492-.791881.67485-.836527.015015-.001606.030067-.002764.045151-.003473" fill="#fff"/>
  <path d="M45.200001,9.14h-3.43c-.428474-.010851-.770138-.361387-.77-.79v-2.27c-.050144-.411167.242523-.785134.65369-.835278.018703-.002281.037487-.003856.056309-.004723h5.490002v-2.07h-5.869999c-.659603.004564-1.29398.254039-1.779999.7-.528358.528182-.811256,1.253568-.779999,2v3.01c-.000011,1.426522,1.153492,2.584494,2.580002,2.59h3.439999c.436306,0,.790001.353694.790001.789999h0v2.740001c.044647.417356-.257496.791882-.67485.836527-.015011.001606-.030067.002765-.045151.003473h-6.090004v2.07h6.459999c1.40831.006836,2.555511-1.129284,2.562347-2.537594.000198-.040814-.000584-.081629-.002346-.122406v-3.5c.016579-1.424798-1.125008-2.593266-2.549805-2.609845-.013397-.000155-.026798-.000207-.040195-.000154" fill="#fff"/>
  <path d="M72.650002,3.87c-.528358.528183-.811256,1.253568-.779999,2v9.4c-.020866.729898.261513,1.435842.779999,1.95.483917.449312,1.119652.69932,1.779999.700001h6v-2.1h-5.599998c-.413773-.019046-.733765-.369916-.714722-.783691.00087-.018823.002441-.037605.004723-.056309v-3.78h5.510002v-2.059999h-5.550003v-3.06c-.05014-.411167.242523-.785134.653694-.835278.0187-.002281.037483-.003856.056305-.004723h5.599998v-2.07h-6c-.659599.004564-1.293983.254039-1.779999.7" fill="#fff"/>
  <path d="M88.760002,9.14h-3.43c-.436302,0-.790001-.353694-.790001-.789999h0v-2.270001c-.05014-.411167.242523-.785134.653694-.835278.0187-.002281.037483-.003856.056305-.004723h5.510002v-2.07h-5.880005c-.656517.005128-1.28756.254696-1.769997.7-.528358.528182-.811256,1.253568-.779999,2v3.01c-.005524,1.424884,1.145096,2.584457,2.569977,2.589981.003342.000012.006683.000019.010025.000019h3.43c.436302,0,.790001.353694.790001.789999h0v2.740001c.05014.411167-.242523.785133-.653694.835278-.0187.002281-.037483.003857-.056305.004723h-6.090004v2.07h6.459999c.65863-.003931,1.291222-.257685,1.769997-.709999.536301-.523634.823692-1.251218.790001-2v-3.5c.000008-1.424894-1.155083-2.580009-2.579979-2.580019-.003342,0-.006676.000006-.010017.000019" fill="#fff"/>
  <path d="M99.599998,9.14h-3.43c-.436302,0-.790001-.353694-.790001-.789999h0v-2.270001c-.05014-.411167.242523-.785134.653694-.835278.0187-.002281.037483-.003856.056305-.004723h5.510002v-2.07h-5.869995c-.659599.004564-1.293983.254039-1.779999.7-.528358.528182-.811256,1.253568-.779999,2v3.01c-.000008,1.426522,1.153488,2.584494,2.580002,2.59h3.440002c.436302,0,.790001.353694.790001.789999h0v2.740001c.044647.417356-.257492.791882-.67485.836527-.015015.001606-.030067.002765-.045151.003473h-6.090012v2.07h6.459999c1.40831.006834,2.555511-1.129288,2.56234-2.537598.000198-.040813-.00058-.081626-.002342-.122402v-3.5c.016579-1.424798-1.125008-2.593266-2.549805-2.609845-.013397-.000155-.026794-.000207-.040192-.000154" fill="#fff"/>
  <path d="M56.48,3.16h-6.689999v14.729999h2.209999v-5.719999h4.48c.657845.001801,1.291336-.248731,1.77-.7.536297-.523635.823696-1.251218.790001-2v-3.66c.017036-.731165-.268864-1.436864-.790001-1.95-.478664-.451269-1.112156-.701802-1.77-.7M56.82,9.27c.050144.411167-.242523.785133-.65369.835278-.018703.002281-.037487.003857-.056309.004723h-4.110001v-4.890001h4.110001c.413776.019045.733768.369916.714722.783692-.000866.018822-.002441.037605-.004723.056308v3.210001Z" fill="#fff"/>
</svg>