<?xml version="1.0" encoding="UTF-8"?>
<svg id="Layer_1" xmlns="http://www.w3.org/2000/svg" version="1.1" viewBox="0 0 118 36">
  <!-- Generator: Adobe Illustrator 29.6.1, SVG Export Plug-In . SVG Version: 2.1.1 Build 9)  -->
  <path d="M108.184998,13.14h-3.599998c-.948997,0-1.726997-.787-1.726997-1.746,0-.958.778-1.745,1.726997-1.745h10.945c.948997,0,1.726997.787,1.726997,1.745,0,.96-.778,1.746-1.726997,1.746h-3.599998v11.974c.013252,1.032688-.813156,1.880592-1.84584,1.893848-.009056.000116-.018105.000166-.027161.000151-1.032768.00119-1.870964-.835072-1.872154-1.867844-.000008-.008718.000038-.017439.000153-.026157v-11.973998ZM96.218002,11.394c0-1.057.827003-1.893,1.873001-1.893,1.044998,0,1.872002.836,1.872002,1.893v13.72c.013252,1.032688-.813156,1.88059-1.845848,1.893847-.008713.000113-.017433.000162-.026154.000153-1.032768.001743-1.871407-.834072-1.873154-1.866842-.000015-.009052.000038-.018106.000153-.027159v-13.719998ZM86.767998,18.356001l5.334-5.393c.745132-.756687.745132-1.971313,0-2.728-.733673-.745584-1.932854-.755238-2.678436-.021564-.00724.00713-.014427.014318-.021561.021564l-5.334,5.392-5.334-5.392c-.733955-.745308-1.933136-.754511-2.678444-.020555-.006905.006799-.013756.013651-.020554.020555-.745132.756687-.745132,1.971313,0,2.728l5.334,5.393-5.334,5.392c-.745132.756687-.745132,1.971313,0,2.728001.730522.745584,1.927139.757793,2.672722.027273.009186-.008999.01828-.018089.027275-.027273l5.334-5.392,5.334,5.392c.730804.745308,1.927429.757067,2.672737.026262.008835-.008667.017593-.017422.02626-.026262.744598-.756908.744598-1.971092,0-2.728001l-5.334-5.392ZM68.174004,11.394c0-1.057.827003-1.893,1.872002-1.893s1.873001.836,1.873001,1.893v13.72c.013252,1.032688-.813156,1.880592-1.84584,1.893848-.009056.000116-.018105.000166-.027161.000151-1.032768.00119-1.870964-.835072-1.872154-1.867844-.000008-.008718.000038-.017439.000153-.026157v-13.719998ZM52.047001,11.542c0-1.057.827999-1.893,1.874001-1.893h9.534c.948997,0,1.703003.762,1.703003,1.72,0,.96-.753998,1.722-1.702999,1.722h-7.661999v3.663001h6.568001c.948002,0,1.702003.763,1.702003,1.721001.012154.938805-.739052,1.709707-1.677856,1.721859-.008049.000105-.016094.000151-.024143.000141h-6.568001v4.917c.013256,1.032688-.813156,1.880592-1.845844,1.893848-.008717.000113-.017437.000162-.026157.000153-1.032768.002295-1.871857-.833071-1.874149-1.865841-.000023-.009386.000027-.018774.000149-.02816l-.000008-13.572002ZM44.046001,11.394c0-1.057.827-1.893,1.872002-1.893s1.873001.836,1.873001,1.893v13.72c.013256,1.032688-.813156,1.880592-1.845844,1.893848-.009052.000116-.018105.000166-.027157.000151-1.032772.00119-1.870964-.835072-1.872154-1.867844-.000011-.008718.000042-.017439.000153-.026157v-13.719998Z" fill="#fff"/>
  <path d="M22.768,18.757999l3.52,4.698c.292999.389999.309999,1.038.037001,1.443001l-.177999.264c-.27.403-.816.964001-1.210001,1.246l-.423.301001c-.393999.282-1.032.271999-1.416-.024l-4.65-3.563c-.384001-.295-1.014-.295-1.399,0l-4.65,3.563c-.384.296-1.025.309999-1.422.034l-.307-.212999c-.467246-.347891-.880395-.763062-1.226-1.232l-.265-.384001c-.276-.4-.264-1.045.026-1.434999l3.525-4.700001c.291-.389999.291-1.027,0-1.416l-3.525-4.702c-.29-.39-.301-1.034-.023-1.433l.3-.428c.277-.399.832-.95,1.231-1.223l.262-.18c.399-.275,1.04-.257,1.425.037l4.650001,3.563c.384001.295,1.014.295,1.398001,0l4.65-3.563c.384001-.294,1.038-.333,1.455-.085l.487.29c.416.248.948.801,1.181999,1.228l.172001.313c.233.426.187,1.094-.105,1.484l-3.52,4.7c-.292999.389999-.292999,1.028,0,1.417M17.806,0C7.972,0,0,8.059,0,17.999001c0,9.941,7.972,18.000999,17.806,18.000999s17.806-8.060001,17.806-18.000999C35.612,8.059,27.639999,0,17.806,0" fill="#fff"/>
</svg>