<?xml version="1.0" encoding="UTF-8"?><svg id="Layer_2" xmlns="http://www.w3.org/2000/svg" version="1.1" viewBox="0 0 204.4 204.4"><defs><style>
.st0 {
fill: #020202;
}
</style></defs><g id="Layer_2-2"><circle class="st0" cx="102.2" cy="181.4" r="21.5"/><circle class="st0" cx="173.3" cy="58" r="21.5"/><circle class="st0" cx="31.1" cy="59.1" r="21.5"/><path class="st0" d="M33.1,172.5c6.4,9,18.9,11.6,28.4,6,6.4-3.7,10-10.2,10.5-17,.3-4.4,2.9-8.4,6.6-10.9l2.4-1.6c4-2.6,9-3,13.5-1.2,5,2.1,10.7,2.2,15.8.3,4.1-1.5,8.8-.8,12.4,1.6l3.3,2.2c3.6,2.4,6.1,6.1,6.6,10.4.7,5.9,3.8,11.6,9,15.2,9.4,6.6,22.5,4.5,29.5-4.6,7.5-9.9,5.2-24-5-30.9-5.6-3.8-12.4-4.6-18.4-2.8-4.1,1.3-8.6.8-12.2-1.6l-5.1-3.4c-3.3-2.2-5.6-5.6-6.2-9.6-.7-4.9-3.2-9.7-7.4-13.3-7.4-6.3-18.3-6.8-26.2-1.2-4.6,3.3-7.5,7.9-8.7,12.9-.8,3.6-2.8,6.8-5.9,8.9l-8.2,5.4c-3.4,2.2-7.5,2.7-11.4,1.7-5.7-1.6-11.9-.8-17.2,2.6-10.4,6.6-13.2,20.6-5.9,30.7h0Z"/><path class="st0" d="M72.2,1.5c-11,1.1-19.5,10.6-19.3,21.7,0,7.4,3.8,13.8,9.5,17.6,3.7,2.5,5.9,6.7,6.2,11.2l.2,2.8c.3,4.8-1.9,9.3-5.7,12.3-4.3,3.3-7.2,8.2-8.1,13.5-.7,4.3-3.6,8-7.6,10l-3.5,1.8c-3.8,1.9-8.4,2.2-12.3.5-5.5-2.4-11.9-2.5-17.7.2-10.3,4.9-15.1,17.3-10.7,27.8,4.8,11.5,18.2,16.4,29.3,11,6.1-3,10.2-8.5,11.6-14.6,1-4.2,3.6-7.9,7.4-9.8l5.5-2.8c3.5-1.8,7.7-2.1,11.4-.6,4.6,1.8,10,2.1,15.2.2,9.1-3.3,15-12.5,14.1-22.2-.5-5.7-3.1-10.5-6.9-13.9-2.7-2.5-4.5-5.9-4.8-9.6l-.6-9.7c-.2-4,1.4-7.9,4.2-10.7,4.2-4.1,6.6-9.9,6.3-16.3-.6-12.3-11.3-21.7-23.7-20.4h0Z"/><path class="st0" d="M132.2,1.5c11,1.1,19.5,10.6,19.3,21.7,0,7.4-3.8,13.8-9.5,17.6-3.7,2.5-5.9,6.7-6.2,11.2l-.2,2.8c-.3,4.8,1.9,9.3,5.7,12.3,4.3,3.3,7.2,8.2,8.1,13.5.7,4.3,3.6,8,7.6,10l3.5,1.8c3.8,1.9,8.4,2.2,12.3.5,5.5-2.4,11.9-2.5,17.7.2,10.3,4.9,15.1,17.3,10.7,27.8-4.8,11.5-18.2,16.4-29.3,11-6.1-3-10.2-8.5-11.6-14.6-1-4.2-3.6-7.9-7.4-9.8l-5.5-2.8c-3.5-1.8-7.7-2.1-11.4-.6-4.6,1.8-10,2.1-15.2.2-9.1-3.3-15-12.5-14.1-22.2.5-5.7,3.1-10.5,6.9-13.9,2.7-2.5,4.5-5.9,4.8-9.6l.6-9.7c.2-4-1.4-7.9-4.2-10.7-4.2-4.1-6.6-9.9-6.3-16.3.6-12.3,11.3-21.7,23.7-20.4h0Z"/></g></svg>