<?xml version="1.0"?><svg height="24px" id="Layer_1" style="enable-background:new 0 0 24 24;" version="1.1" viewBox="0 0 24 24" width="24px" xml:space="preserve" xmlns="http://www.w3.org/2000/svg" xmlns:xlink="http://www.w3.org/1999/xlink"><rect height="8" transform="matrix(4.456530e-011 -1 1 4.456530e-011 -1 23)" width="2" x="10" y="8"/><polygon points="12.7070313,16.7070313 11.2929688,15.2929688 14.5859375,12 11.2929688,8.7070313 12.7070313,7.2929688   17.4140625,12 "/><path d="M12,4c4.4112091,0,8,3.5887909,8,8s-3.5887909,8-8,8s-8-3.5887909-8-8S7.5887909,4,12,4 M12,2C6.47715,2,2,6.4771576,2,12  s4.47715,10,10,10s10-4.4771576,10-10S17.52285,2,12,2L12,2z"/></svg>