<?xml version="1.0"?><svg data-name="Layer 7" height="24" id="Layer_7" viewBox="0 0 24 24" width="24" xmlns="http://www.w3.org/2000/svg"><title/><path d="M12,17c-4.24945,0-7.71539-1.10541-7.97473-2.50006A.91941.91941,0,0,0,4,14.66663v2.66669C4,18.806,7.58173,20,12,20s8-1.194,8-2.66669V14.66663a.91941.91941,0,0,0-.02527-.16669C19.71539,15.89459,16.24945,17,12,17Z"/><path d="M12,11C7.75055,11,4.28461,9.89459,4.02527,8.49994A.91941.91941,0,0,0,4,8.66663v2.66669C4,12.806,7.58173,14,12,14s8-1.194,8-2.66669V8.66663a.91941.91941,0,0,0-.02527-.16669C19.71539,9.89459,16.24945,11,12,11Z"/><ellipse cx="12" cy="5.5" rx="8" ry="2.5"/></svg>