<?xml version="1.0"?><svg height="24px" id="Layer_1" style="enable-background:new 0 0 24 24;" version="1.1" viewBox="0 0 24 24" width="24px" xml:space="preserve" xmlns="http://www.w3.org/2000/svg" xmlns:xlink="http://www.w3.org/1999/xlink"><path d="M12,4c4.4112091,0,8,3.5887909,8,8s-3.5887909,8-8,8s-8-3.5887909-8-8S7.5887909,4,12,4 M12,2C6.4771576,2,2,6.47715,2,12  s4.4771576,10,10,10s10-4.47715,10-10S17.5228424,2,12,2L12,2z"/><rect height="1.9997864" transform="matrix(0.7071068 -0.7071068 0.7071068 0.7071068 -4.9705629 12)" width="10.4657326" x="6.7671337" y="11.0001068"/><rect height="10.4657326" transform="matrix(0.7071068 -0.7071068 0.7071068 0.7071068 -4.9705629 12)" width="1.9997864" x="11.0001068" y="6.7671337"/></svg>