<?xml version="1.0"?><svg height="24px" id="Layer_1" style="enable-background:new 0 0 24 24;" version="1.1" viewBox="0 0 24 24" width="24px" xml:space="preserve" xmlns="http://www.w3.org/2000/svg" xmlns:xlink="http://www.w3.org/1999/xlink"><polygon points="10,9.2789917 8.3604736,7.6395264 7,9 4,9 4,15 7,15 10,18 "/><g><path d="M18,12c0,0.8213501-0.1331787,1.6099854-0.3643188,2.3561401l1.5566406,1.5566406   C19.7061768,14.7103271,20,13.3910522,20,12c0-3.8696289-2.2018433-7.2191162-5.4174194-8.8817139l-0.828125,1.8218384   C16.27771,6.2874756,18,8.9453735,18,12z"/><path d="M13.6347656,10.3553467l2.3189697,2.3189087C15.9786987,12.4521484,16,12.2288208,16,12   c0-2.2507935-1.2410889-4.2094116-3.0745239-5.2360229l-0.8366699,1.8406982   C12.7632446,9.0211182,13.302002,9.6316528,13.6347656,10.3553467z"/><path d="M16.8468018,16.1256104c-0.7472534,1.2340088-1.815918,2.2526855-3.0923462,2.9342651l0.828125,1.8218384   c1.4993286-0.7752075,2.7639771-1.9279785,3.7020874-3.3183594L16.8468018,16.1256104z"/><path d="M15.3700562,14.6489258l-1.5344238-1.5344238c-0.2820435,0.9574585-0.9130859,1.7659912-1.7468262,2.2808228   l0.8366699,1.8406982C13.9819946,16.6444702,14.8310547,15.7370605,15.3700562,14.6489258z"/></g><rect height="26.9843884" transform="matrix(0.7071236 -0.7070899 0.7070899 0.7071236 -5.1608605 11.8734303)" width="1.8090048" x="10.8480492" y="-1.3255591"/></svg>