<?xml version="1.0"?><svg height="24px" id="Layer_1" style="enable-background:new 0 0 24 24;" version="1.1" viewBox="0 0 24 24" width="24px" xml:space="preserve" xmlns="http://www.w3.org/2000/svg" xmlns:xlink="http://www.w3.org/1999/xlink"><polygon points="22,16.4142456 20.5858154,15 16.8825436,18.7032719 14.9612064,16.7819328 13.5470219,18.1961784   16.8825436,21.5436649 "/><path d="M15,2H4C2.8954468,2,2,2.8953857,2,4v10c0,1.1045532,0.8954468,2,2,2h11c1.1045532,0,2-0.8954468,2-2V4  C17,2.8953857,16.1045532,2,15,2z M12,4.4097223c0.8783216,0,1.5902777,0.711956,1.5902777,1.5902777  c0,0.8782248-0.711956,1.5902777-1.5902777,1.5902777S10.4097223,6.8782248,10.4097223,6  C10.4097223,5.1216784,11.1216784,4.4097223,12,4.4097223z M4,14V9.8000002l2-2l4,5l3-3L15,12v2H4z"/></svg>