<?xml version="1.0" encoding="UTF-8"?>
<svg id="Layer_1" xmlns="http://www.w3.org/2000/svg" version="1.1" viewBox="0 0 57.987342 33.265823">
  <!-- Generator: Adobe Illustrator 29.6.1, SVG Export Plug-In . SVG Version: 2.1.1 Build 9)  -->
  <g>
    <circle cx="27.443579" cy="23.455788" r="3.210222" fill="#050505"/>
    <circle cx="5.38879" cy="23.455788" r="3.210222" fill="#050505"/>
    <path d="M17.404594,20.389599c.153357.554041.441172,1.031679.817404,1.409321.612574.614868.976303,1.434053.976303,2.301989v.372511c0,.867876-.360128,1.689478-.97287,2.304098-.612534.614412-.977587,1.475504-.932653,2.421637.078369,1.650198,1.425373,2.985851,3.076139,3.051186,1.832321.072521,3.340588-1.391424,3.340588-3.207642,0-.900408-.370899-1.713867-.96813-2.296595-.613564-.598663-.941113-1.432001-.941113-2.28924v-.350651c0-.852503.331776-1.676975.941378-2.272917.403549-.394506.695568-.888903.847813-1.428886.234894-.833124.804789-1.531549,1.567356-1.941135l.064701-.034752c.778042-.417896,1.688669-.481651,2.532129-.219809.802464.249117,1.701363.184937,2.49712-.252068,1.494921-.820961,2.089413-2.702221,1.334551-4.231585-.810596-1.642287-2.814121-2.269051-4.409544-1.404565-.776215.42059-1.309202,1.114856-1.544544,1.898422-.242186.806349-.813883,1.47315-1.555597,1.871535l-.236641.127104c-.750275.402983-1.62686.474464-2.44438.235785-.61375-.179188-1.28783-.177378-1.941954.047756-1.592648.548149-2.497379,2.2652-2.048056,3.8885Z" fill="#050505"/>
    <path d="M2.570287,17.975019c.85513.455065,1.812924.484459,2.643024.171589.758688-.285954,1.604474-.225655,2.318751.157993l.092033.049433c.728924.391516,1.23322,1.088154,1.417527,1.894779.144592.632811.478913,1.209497.955993,1.64934.566697.522465.872958,1.269447.872958,2.040237v.748081c0,.768211-.334826,1.490078-.895128,2.015635-.659173.618298-1.057181,1.511522-1.010388,2.497013.078353,1.650194,1.425338,2.985855,3.076098,3.051216,1.832335.072548,3.340623-1.391407,3.340623-3.20764,0-.927298-.393381-1.762379-1.022234-2.348183-.568811-.529873-.887001-1.275595-.887001-2.052969v-.705536c0-.790045.342219-1.532679.914663-2.077179.427554-.406681.748405-.936338.901005-1.553524.408103-1.650553-.564019-3.355888-2.19274-3.843884-.618241-.185238-1.245285-.175667-1.818068-.008654-.706419.205978-1.465661.122736-2.113908-.225445l-.674246-.362146c-.651584-.349974-1.121459-.95225-1.337465-1.659629-.255041-.835212-.847758-1.563854-1.699826-1.965861-1.6769-.791162-3.692494-.004008-4.369635,1.759578-.576226,1.500757.068819,3.220542,1.487964,3.975755Z" fill="#050505"/>
    <path d="M6.415207,10.385017c.789713.579048,1.744466.742575,2.617556.542771.745939-.170705,1.528549-.053091,2.171037.362571l.782651.506341c.58483.37836,1.027525.94954,1.214283,1.620586.156029.560633.467005,1.087117.933441,1.511705,1.216059,1.106954,3.101259,1.10666,4.316961-.000685.480066-.437278.79542-.982537.946489-1.561831.178394-.684072.622042-1.269065,1.215605-1.653075l.699385-.452473c.67384-.435946,1.497721-.548749,2.275576-.351136.945663.240244,1.993069.049852,2.821033-.623344,1.272348-1.034512,1.553965-2.89418.646954-4.260351-1.013975-1.527287-3.083241-1.892875-4.555492-.829971-.675503.487686-1.104887,1.189293-1.262701,1.945251-.161743.774783-.606438,1.46115-1.270977,1.891077l-.221489.143294c-.733889.474794-1.640886.585544-2.473492.319477-.64362-.205675-1.339244-.203185-1.981642.007413-.849228.278403-1.776212.183411-2.526569-.302038l-.002312-.001496c-.683154-.441971-1.141594-1.152354-1.282041-1.953798-.147843-.843649-.630891-1.626456-1.404115-2.132497-1.551731-1.015543-3.657284-.514163-4.57141,1.139643-.774564,1.401315-.379952,3.185793.911269,4.132566Z" fill="#050505"/>
    <circle cx="16.29228" cy="4.464789" r="3.210222" fill="#050505"/>
  </g>
  <path d="M43.94051,31.091045h-4.376343L50.274021,2.416443h4.337914s-10.671429,28.674602-10.671425,28.674602Z" fill="#050505"/>
</svg>