<?xml version="1.0"?><svg height="24px" id="Layer_1" style="enable-background:new 0 0 24 24;" version="1.1" viewBox="0 0 24 24" width="24px" xml:space="preserve" xmlns="http://www.w3.org/2000/svg" xmlns:xlink="http://www.w3.org/1999/xlink"><g><circle cx="12" cy="12" r="2"/><path d="M18,12c0-3.3137207-2.6862793-6-6-6s-6,2.6862793-6,6c0,2.2507935,1.2410889,4.2094116,3.0745239,5.2360229   l0.8366699-1.8406982C8.7692871,14.6901855,8,13.4378052,8,12c0-2.2056274,1.7943726-4,4-4s4,1.7943726,4,4   c0,1.4378052-0.7692871,2.6901855-1.9111938,3.3953247l0.8366699,1.8406982C16.7589111,16.2094116,18,14.2507935,18,12z"/><path d="M12,2C6.4771729,2,2,6.4771118,2,12c0,3.8696289,2.2018433,7.2191162,5.4174194,8.8817139l0.828125-1.8218384   C5.72229,17.7125244,4,15.0546265,4,12c0-4.4111938,3.5888062-8,8-8s8,3.5888062,8,8   c0,3.0546265-1.72229,5.7125244-4.2455444,7.0598755l0.828125,1.8218384C19.7981567,19.2191162,22,15.8696289,22,12   C22,6.4771118,17.5228271,2,12,2z"/></g></svg>