<?xml version="1.0" encoding="UTF-8"?><svg id="Layer_2" xmlns="http://www.w3.org/2000/svg" version="1.1" viewBox="0 0 176.95282 136.196777"><defs><style>
.st0 {
fill: #020202;
}
</style></defs><g id="Layer_2-2"><path class="st0" d="M128.787582,88.309807h44.154785c2.031006.000977,3.678467-1.644531,3.679443-3.675293v-.004387C176.621811,37.1731,137.828354,0,88.312241,0,41.63768,1.39941,3.54174,37.791752.01,84.353271c-.14697,2.008057,1.34351,3.762703,3.34888,3.942139.10986.010246.22021.014893.33057.014397,1.88452-.003418,3.46118-1.431152,3.65088-3.306152,3.06592-30.598633,28.169428-54.283691,58.894533-55.567139,33.561768,0,58.873047,23.72681,58.873047,55.193596-.001221,2.031013,1.644287,3.678467,3.675293,3.679688h.004395l-.000015.000008Z"/><path class="st0" d="M47.234119,120.004883c1.474609-2.238533,2.21191-4.750732,2.21191-7.508537.108891-7.59082-6.306641-13.952393-13.87109-13.87085H1.3662c-.6355,0-1.15063.515137-1.15063,1.150627v34.395996c0,.635742.51514,1.150879,1.15063,1.150879h12.006349c.6355,0,1.15088-.515137,1.15088-1.150879v-7.805656h12.778321l6.562988,8.508537c.218021.282471.55444.447998.911381.447998h12.317871c.95752,0,1.496342-1.101074.908691-1.856934l-6.556881-8.436523c2.40332-1.120361,4.341061-2.812988,5.78833-5.024658h-.000011ZM34.18285,114.708252c-.60083.599854-1.338131.900391-2.21191.900391H14.52343v-6.25293h17.44751c1.747559,0,3.140621,1.393311,3.140621,3.140617,0,.846443-.300289,1.58374-.928711,2.211906v.000015Z"/><path class="st0" d="M86.548332,98.652832h-31.505859c-.635502,0-1.150631.515381-1.150631,1.150879v34.395996c0,.635498.515141,1.150635,1.150631,1.150635h31.505859c10.075676.136719,17.556641-8.383057,17.475098-18.348633.081543-10.020752-7.399406-18.485352-17.475098-18.348877ZM83.872299,123.71875h-15.672607v-13.434082h15.672607c3.713867,0,5.815674,3.003174,5.815674,6.717041,0,3.686523-2.101807,6.717041-5.815674,6.717041Z"/><rect class="st0" x="107.95507" y="98.5979" width="14.307861" height="36.69751" rx="1.150879" ry="1.150879"/><path class="st0" d="M151.914291,97.696533c-13.816162.027588-25.119873,4.014648-25.065918,17.912109v2.67627c-.053963,13.871094,11.249756,17.884277,25.065918,17.911865,13.788574-.027588,25.093262-4.040771,25.03833-17.911865v-2.67627c0-13.870117-11.222412-17.912109-25.03833-17.912109ZM162.64476,117.383537c.08252,6.007317-4.887207,7.099121-10.730469,7.181396-5.87085-.082283-10.839355-1.174072-10.758057-7.181396v-.901367c-.081299-5.979744,4.887207-7.071289,10.758057-7.152832,5.843262.081543,10.812988,1.173103,10.730469,7.152832v.901367Z"/></g></svg>