<?xml version="1.0"?><svg height="24px" id="Layer_1" style="enable-background:new 0 0 24 24;" version="1.1" viewBox="0 0 24 24" width="24px" xml:space="preserve" xmlns="http://www.w3.org/2000/svg" xmlns:xlink="http://www.w3.org/1999/xlink"><path d="M12,3c-4.9628906,0-9,4.0371094-9,9s4.0371094,9,9,9c0.00177,0,0.00354-0.0002441,0.0053101-0.0002441l0.0106201-2.0005493  C12.0105591,18.9992065,12.0053711,19,12,19c-3.859375,0-7-3.140625-7-7s3.140625-7,7-7s7,3.140625,7,7  c0,2.6207886-1.4503784,4.9069824-3.588501,6.1065063l0.4125977,2.0288086C18.8773193,18.6940918,21,15.5943604,21,12  C21,7.0371094,16.9628906,3,12,3z"/><polygon points="14,15 15.9997864,15 15.9997864,19.0002136 20,19.0002136 20,21 14,21 "/></svg>