<?xml version="1.0" encoding="UTF-8"?><svg id="Layer_1" xmlns="http://www.w3.org/2000/svg" version="1.1" viewBox="0 0 142.41772 33.265823"><defs><style>
.st0 {
fill: #fff;
}
</style></defs><g><path class="st0" d="M44.725588,29.324491c-6.963504,0-8.305623-7.410458-8.305623-12.443409,0-5.031698,1.342127-12.442156,8.305623-12.442156s8.305623,7.410458,8.305623,12.442156c0,5.032951-1.342127,12.443405-8.305623,12.443409ZM44.725588,7.160732c-3.482997,0-5.065504,3.654524-5.065504,9.720354,0,6.067086,1.582507,9.720354,5.065504,9.720354,3.480491,0,5.065504-3.653271,5.065504-9.720354,0-6.065833-1.584997-9.720354-5.065504-9.720354Z"/><path class="st0" d="M55.099465,12.745798c0-4.411968,2.68925-8.306872,7.789808-8.306872,7.719691,0,8.480889,7.306547,8.480889,11.236502,0,2.585334-.450717,13.649064-8.788881,13.649064-5.688989,0-7.206382-4.136533-7.206382-6.480238h3.034794c.17027,2.447617,1.617553,3.963761,4.101478,3.963761,3.310221,0,5.068002-2.791908,5.824196-9.06432l-.07011-.068857c-.896422,1.860439-3.307731,2.894575-5.54877,2.894575-4.479579,0-7.61704-2.998486-7.617024-7.823614ZM67.81957,12.331389c0-2.756853-1.412237-5.170668-4.895234-5.170668-2.826963,0-4.687411,2.205988-4.687411,5.446103,0,4.653601,2.894567,5.239525,4.930289,5.239525,1.582507,0,4.652348-.723642,4.652356-5.51496Z"/><path class="st0" d="M26.56043,29.324486h-2.308642L32.730187,3.265823h2.276102s-8.445843,26.058663-8.445859,26.058663Z"/><path class="st0" d="M7.618667,21.333372c.032801,1.28981.677124,3.740569,4.903859,3.740569,2.289092,0,4.835919-.548258,4.835919-2.999015,0-1.806438-1.740835-2.290264-4.191596-2.870153l-2.483562-.58106c-3.741743-.870416-7.354619-1.709205-7.354619-6.805187,0-2.580794,1.387049-7.12852,8.903337-7.12852,7.094547,0,8.997051,4.64496,9.029852,7.48348h-4.643786c-.131205-1.032083-.515455-3.484012-4.74219-3.484012-1.836902,0-4.029942.678293-4.029942,2.77409,0,1.806439,1.480763,2.19303,2.450761,2.419126l5.641895,1.387047c3.163023.773184,6.063636,2.064166,6.063636,6.22413,0,6.966853-7.094547,7.579545-9.125903,7.579545-8.451132,0-9.901431-4.869885-9.901431-7.740036h4.643786s-.000031,0-.000015-.000004Z"/></g><g><path class="st0" d="M104.056148,11.025164c-1.735382,0-2.212646,1.496743-2.212646,5.46541s.477264,5.486477,2.212662,5.486477c1.734528,0,2.211792-1.517813,2.211792-5.486477s-.477264-5.46541-2.211792-5.46541h-.000015Z"/><path class="st0" d="M140.873332,17.915342V3.372955c0-1.211812-.982361-2.194181-2.194183-2.194181h-57.716705c-1.211823,0-2.194183.982367-2.194183,2.194181v26.519976c0,1.211779.982346,2.19412,2.194122,2.19412h45.739243c1.418701,0,2.779282-.563576,3.782471-1.56675l8.822479-8.822493c1.003159-1.003172,1.566757-2.363766,1.566757-3.782465h-.000015l.000015-.000002ZM97.52827,23.994064h-10.518906c.109207-1.799887.239044-3.686577,3.579147-6.115503,2.775894-2.017015,3.88179-2.797868,3.88179-4.532806,0-1.019037-.651016-2.190313-2.125793-2.190313-2.124939,0-2.190308,1.756425-2.211807,2.884301h-2.949615c0-5.009665,3.665085-5.443493,5.031586-5.443493,2.949615,0,5.291245,1.734939,5.291245,4.857855,0,2.646054-1.713013,3.990569-3.209351,5.009604-2.038925,1.431377-3.100937,2.125364-3.448395,2.841269h6.680099s0,2.689089,0,2.689087ZM104.056178,24.405975c-3.622116,0-5.335144-2.51536-5.335144-7.91539,0-5.400092,1.713013-7.894335,5.335144-7.894335,3.621201,0,5.334213,2.494243,5.334213,7.894335,0,5.40003-1.713013,7.915392-5.334213,7.91539ZM120.70306,23.994064h-10.518906c.109207-1.799887.239105-3.686577,3.579163-6.115503,2.775894-2.017015,3.88179-2.797868,3.88179-4.532806,0-1.019037-.650955-2.190313-2.125793-2.190313-2.124939,0-2.190308,1.756425-2.211807,2.884301h-2.949615c0-5.009665,3.665085-5.443493,5.031586-5.443493,2.949615,0,5.291245,1.734939,5.291245,4.857855,0,2.646054-1.713013,3.990569-3.209351,5.009604-2.038925,1.431377-3.100937,2.125364-3.448395,2.841269h6.680099s0,2.689089,0,2.689087h-.000015ZM121.728099,19.8736h3.036484c.129898,1.25771.802338,2.103449,2.146469,2.103449,1.453278,0,2.299469-1.236164,2.299469-2.884241,0-1.36606-.650955-2.754036-2.25563-2.754036-.411911,0-1.453278.021547-2.038925,1.1059l-2.710571-.130264,1.062927-8.457629h8.457565v2.558824h-6.267319l-.542618,3.340044c.564087-.390426,1.258087-.845799,2.754395-.845799,2.060425,0,4.662643,1.430948,4.662643,4.966205,0,2.103449-1.062866,5.529926-5.594818,5.529926-2.407867,0-4.857864-1.431376-5.010101-4.532375,0,0,.000031,0,.000031-.000002Z"/></g><circle class="st0" cx="138.375362" cy="29.345816" r="2.255109"/></svg>