<?xml version="1.0"?><svg height="24px" id="Layer_1" style="enable-background:new 0 0 24 24;" version="1.1" viewBox="0 0 24 24" width="24px" xml:space="preserve" xmlns="http://www.w3.org/2000/svg" xmlns:xlink="http://www.w3.org/1999/xlink"><polygon points="15.2929688,11 22.7070313,11 19,7.2929688 "/><polygon points="1.2929688,13 5,16.7070313 8.7070313,13 "/><path d="M8.3635864,16.7614136C9.3738403,17.5348511,10.6321411,18,12,18c3.3085938,0,6-2.6914063,6-6  c0-0.9536743-0.2294922-1.8527222-0.6270752-2.6541748l1.4694214-1.4694214C19.5720215,9.0824585,20,10.4904785,20,12  c0,4.4111328-3.5888672,8-8,8c-1.9196777,0-3.6827393-0.6807251-5.0629272-1.8120728L8.3635864,16.7614136z"/><path d="M17.045105,5.798645l-1.4265747,1.4265747C14.6112061,6.4599609,13.3598633,6,12,6c-3.3085938,0-6,2.6914063-6,6  c0,0.9453735,0.225769,1.8369141,0.6168823,2.6331177L5.145813,16.104187C4.4234009,14.9024048,4,13.5014038,4,12  c0-4.4111328,3.5888672-8,8-8C13.9116821,4,15.6674805,4.6757202,17.045105,5.798645z"/></svg>