<?xml version="1.0"?><svg height="24px" id="Layer_1" style="enable-background:new 0 0 24 24;" version="1.1" viewBox="0 0 24 24" width="24px" xml:space="preserve" xmlns="http://www.w3.org/2000/svg" xmlns:xlink="http://www.w3.org/1999/xlink"><circle cx="12" cy="12" r="1"/><path d="M12,2C6.4771729,2,2,6.4771118,2,12c0,5.5228271,4.4771729,10,10,10s10-4.4771729,10-10C22,6.4771118,17.5228271,2,12,2z   M10.5669556,19.8816528c-3.2723999-0.5939331-5.8546753-3.1765137-6.4486084-6.4486084l1.982666-0.3604736  c0.4432983,2.4525757,2.3738403,4.3831177,4.826416,4.826416L10.5669556,19.8816528z M12,16c-2.2091675,0-4-1.7908936-4-4  c0-2.2091675,1.7908325-4,4-4s4,1.7908325,4,4C16,14.2091064,14.2091675,16,12,16z M17.8989258,10.9274292  c-0.4433594-2.4525757-2.3738403-4.3831177-4.826355-4.826416l0.3604736-1.9827271  c3.2723999,0.5939331,5.8546143,3.1765137,6.4486084,6.4486694L17.8989258,10.9274292z"/></svg>