<?xml version="1.0" encoding="utf-8"?>
<!-- Generator: Adobe Illustrator 26.0.0, SVG Export Plug-In . SVG Version: 6.00 Build 0)  -->
<svg version="1.1" id="Layer_1" xmlns="http://www.w3.org/2000/svg" xmlns:xlink="http://www.w3.org/1999/xlink" x="0px" y="0px"
	 width="296.592072px" height="83.060631px" viewBox="0 0 296.592072 83.060631"
	 style="enable-background:new 0 0 296.592072 83.060631;" xml:space="preserve">
<style type="text/css">
	.st0{fill:#E3E2D3;}
</style>
<g>
	<path class="st0" d="M52.732979,0.123786h15.597076v10.274266H52.732979V0.123786z"/>
	<path class="st0" d="M126.385849,0.123786h15.597076v10.274266h-15.597076V0.123786z"/>
	<path class="st0" d="M150.400391,0.123786h16.525482l0.06189,0.061893v65.111618l-0.557037,0.06189h-14.978149l-0.123779-0.123787
		l-0.618927,0.123787l-0.309479-0.06189V0.123786z"/>
	<path class="st0" d="M185.431931,0.123786l17.94902,0.061893l-16.463593,32.060661l16.95874,33.050953l-0.309464,0.06189
		l-0.247574-0.123787l-0.123795,0.123787h-16.092224h-0.247574l-0.247574-0.123787l-0.247574,0.123787l-0.433243-0.185677
		L170.577576,35.341l-1.485443-3.218445l13.987854-27.109207L185.431931,0.123786z"/>
	<path class="st0" d="M52.918659,16.216009l0.123787,0.123787h15.287609v48.957497l-0.06189,0.06189H53.290016h-0.24757
		l-0.309467-0.185677V16.40169L52.918659,16.216009z"/>
	<path class="st0" d="M91.539993,16.216009l0.123787,0.123787h26.242706h0.247574l0.309464,0.061893v66.535156H90.982956V72.662575
		h12.254845v-7.241493l-0.185677-0.185684l-0.371361,0.123787h-11.63591l-0.123787-0.123787H89.55941l-0.123779-0.123787
		l-1.361656-0.123787l-2.847084-0.866501l-1.980583-0.990292l-2.104362-1.485435l-1.67112-1.671116l-1.361649-1.856796
		l-1.114075-2.104366l-0.742722-2.228153l-0.371353-1.980583v-1.237862l-0.123787-0.123787V31.25605l0.123787-0.123787V29.8944
		l0.123779-0.123787l0.123787-1.361649l0.866508-2.723299l1.733009-3.09466l1.794899-2.042473l2.351944-1.856796l2.723297-1.361649
		l2.475723-0.74272h0.618935l0.866501-0.247572h1.856796L91.539993,16.216009z M92.097031,26.490276l-0.247566,0.247572
		l0.123779,0.123787v27.480566v0.247574l-0.123779,0.371357l0.247566,0.123787h10.64563l0.123787-0.123787V26.737848
		l-0.123787-0.247572H92.097031z"/>
	<path class="st0" d="M126.447739,16.216009l0.123787,0.123787h14.978142l0.433258-0.061893l-0.06189,49.081284h-0.247574
		h-14.978149l-0.123787-0.123787l-0.185677,0.061897L126.447739,16.216009z"/>
	<path class="st0" d="M221.144287,16.216009l0.123779,0.123787h12.131073l0.123779,0.123787h0.866501l1.237869,0.247572
		l1.980576,0.618933l2.10437,0.99029l1.980591,1.36165l1.547318,1.423542l1.11409,1.36165l1.609207,2.723299l0.866516,2.35194
		l0.371353,1.733009v0.742718l0.123795,0.123785v17.515766h-25.933243l-0.06189,0.061893v7.179607l0.185669,0.18568h20.981796
		v10.088589l-0.185684,0.185677l-0.495148-0.123787l-0.123779,0.123787H220.52536l-0.123795-0.123787h-1.237854l-0.123795-0.123787
		h-0.247574h-0.618927l-2.10437-0.49514l-2.723297-1.114082l-1.980576-1.237862l-2.537628-2.413834l-1.114075-1.485435
		l-1.237869-2.35194l-0.618927-1.733009l-0.495148-2.475727v-0.990292l-0.123779-0.123787v-19.18688V31.25605l0.123779-1.485437
		l0.495148-2.35194l1.114075-2.847086l1.609222-2.475725l1.671112-1.794903l2.10437-1.609222l2.723297-1.361649l3.218445-0.866505
		l2.723312-0.123787L221.144287,16.216009z M221.577545,26.490276l-0.247574,0.247572v10.521837l0.247574,0.123787h10.645615
		V26.490276H221.577545z"/>
	<path class="st0" d="M281.056885,16.216009l0.123779,0.123787h15.411407v66.597046h-27.109222V72.662575h12.131073v-7.241493
		l-0.185699-0.185684l-0.123779,0.123787h-11.016968l-0.12381-0.123787l-0.495148,0.123787l-0.123779-0.123787h-1.361633
		l-0.12381-0.123787l-1.361633-0.123787l-1.485443-0.371353l-2.228149-0.866508l-2.599518-1.609222l-2.290039-2.16626
		l-1.361664-1.856796l-0.866501-1.609222l-0.866501-2.35194l-0.495148-2.475727v-1.856792l-0.123779-0.123787v-33.36042h15.720856
		v38.683228l0.06189,0.061893h10.70752V16.40169L281.056885,16.216009z"/>
	<path class="st0" d="M53.290016,0h14.978149l0.185677,0.185679l-0.06189,10.088587l-0.061897-10.15048H53.290016V0z"/>
	<path class="st0" d="M126.695312,0l15.040039,0.061893l-15.040039,0.061893V0z"/>
	<path class="st0" d="M150.833649,0l15.658966,0.061893l-15.658966,0.061893V0z"/>
	<path class="st0" d="M166.678299,0l0.433258,0.185679l-0.061905,65.049721l-0.06189-65.11161h-0.309464V0z"/>
	<path class="st0" d="M186.236542,0l17.144409,0.061893l-17.144409,0.061893V0z"/>
	<path class="st0" d="M53.042446,16.216009h15.225719l0.185677,0.18568l-0.06189,48.83371l-0.061897-48.895599H53.042446V16.216009z
		"/>
	<path class="st0" d="M91.66378,16.216009l26.304596,0.061893L91.66378,16.339796V16.216009z"/>
	<path class="st0" d="M118.15406,16.216009l0.309464,0.061893l-0.309464,0.061893V16.216009z"/>
	<path class="st0" d="M126.571526,16.216009l15.040047,0.061893l-15.040047,0.061893V16.216009z"/>
	<path class="st0" d="M221.268066,16.216009l10.58374,0.061893l-10.58374,0.061893V16.216009z"/>
	<path class="st0" d="M254.44281,16.216009l15.658966,0.061893l-15.658966,0.061893V16.216009z"/>
	<path class="st0" d="M281.180664,16.216009l15.411407,0.061893l-15.411407,0.061893V16.216009z"/>
	<path class="st0" d="M210.498657,20.053387l-0.123779,0.247572L210.498657,20.053387z"/>
	<path class="st0" d="M80.894371,20.177172l-0.247574,0.371361L80.894371,20.177172z"/>
	<path class="st0" d="M242.311752,20.177172l0.247574,0.371361L242.311752,20.177172z"/>
	<path class="st0" d="M80.027863,21.043676l-0.247566,0.371359L80.027863,21.043676z"/>
	<path class="st0" d="M243.302048,21.167463l0.123779,0.247572L243.302048,21.167463z"/>
	<path class="st0" d="M209.137009,21.415035l-0.123779,0.247574L209.137009,21.415035z"/>
	<path class="st0" d="M221.391861,26.737848l0.06189,10.088587h-0.123779L221.391861,26.737848z"/>
	<path class="st0" d="M205.299637,30.451439l0.06189,0.433252h-0.123779L205.299637,30.451439z"/>
	<path class="st0" d="M75.81913,30.822798l0.061897,0.309465H75.75724L75.81913,30.822798z"/>
	<path class="st0" d="M247.386993,31.194157l0.06189,16.277905h-0.123779L247.386993,31.194157z"/>
	<path class="st0" d="M221.391861,47.905312l0.06189,6.87014h-0.123779L221.391861,47.905312z"/>
	<path class="st0" d="M254.44281,49.762108l0.06189,0.804611h-0.123779L254.44281,49.762108z"/>
	<path class="st0" d="M75.81913,50.504826l0.061897,0.309464H75.75724L75.81913,50.504826z"/>
	<path class="st0" d="M205.299637,50.752396l0.06189,0.309467h-0.123779L205.299637,50.752396z"/>
	<path class="st0" d="M208.641861,59.541225l0.123795,0.247574L208.641861,59.541225z"/>
	<path class="st0" d="M41.158958,60.40773l-0.123787,0.247574L41.158958,60.40773z"/>
	<path class="st0" d="M39.921093,61.645596l-0.123787,0.24757L39.921093,61.645596z"/>
	<path class="st0" d="M241.816605,65.235397l0.433258,0.061897l-0.433258,0.06189V65.235397z"/>
	<path class="st0" d="M91.292419,82.936844l26.55217,0.06189l-26.55217,0.061897V82.936844z"/>
	<path class="st0" d="M270.411255,82.936844l26.180817,0.06189l-26.180817,0.061897V82.936844z"/>
	<path class="st0" d="M52.671085,0l0.061893,10.336159h-0.123787L52.671085,0z"/>
	<path class="st0" d="M126.323952,0l0.061897,10.336159h-0.123787L126.323952,0z"/>
	<path class="st0" d="M31.503622,0.123786l0.309467,0.061893l-0.309467,0.061893V0.123786z"/>
	<path class="st0" d="M142.044815,0.123786l0.061905,10.088587h-0.123795L142.044815,0.123786z"/>
	<path class="st0" d="M32.370129,0.247573l0.309464,0.061893l-0.309464,0.061893V0.247573z"/>
	<path class="st0" d="M184.874893,1.237863l-0.06189,0.18568l-1.17598,2.290047l0.061905-0.18568L184.874893,1.237863z"/>
	<path class="st0" d="M38.188084,2.228154l0.123787,0.247573L38.188084,2.228154z"/>
	<path class="st0" d="M39.302162,2.970872l0.123787,0.247573L39.302162,2.970872z"/>
	<path class="st0" d="M39.797306,3.342231L40.04488,3.71359L39.797306,3.342231z"/>
	<path class="st0" d="M40.663811,4.084949l0.495148,0.618932L40.663811,4.084949z"/>
	<path class="st0" d="M201.090897,4.703881l-0.06189,0.185679l-0.06189,0.185679l-0.06189-0.185679L201.090897,4.703881z"/>
	<path class="st0" d="M41.530315,5.07524l0.371361,0.495145L41.530315,5.07524z"/>
	<path class="st0" d="M42.025463,5.694171l0.24757,0.371359L42.025463,5.694171z"/>
	<path class="st0" d="M200.595749,5.694171l-0.123779,0.247572L200.595749,5.694171z"/>
	<path class="st0" d="M42.39682,6.189317l0.123787,0.247572L42.39682,6.189317z"/>
	<path class="st0" d="M182.275375,6.313103l-0.06189,0.185679l-1.175964,2.290047l0.06189-0.185679L182.275375,6.313103z"/>
	<path class="st0" d="M42.644394,6.560676l0.123787,0.247573L42.644394,6.560676z"/>
	<path class="st0" d="M43.015751,7.179607l0.557041,1.052184h-0.123787L43.015751,7.179607z"/>
	<path class="st0" d="M43.758469,8.665044l0.18568,0.433251h-0.123787L43.758469,8.665044z"/>
	<path class="st0" d="M44.253616,10.026693l0.061893,0.309465h-0.123787L44.253616,10.026693z"/>
	<path class="st0" d="M44.377403,10.521838l0.061893,0.309466H44.31551L44.377403,10.521838z"/>
	<path class="st0" d="M198.120026,10.521838l-0.06189,0.185679l-0.06189,0.185679l-0.06189-0.185679L198.120026,10.521838z"/>
	<path class="st0" d="M44.501186,11.016984l0.061893,0.309465h-0.123783L44.501186,11.016984z"/>
	<path class="st0" d="M197.748672,11.14077l0.06189,0.185679l-0.247574,0.123787L197.748672,11.14077z"/>
	<path class="st0" d="M179.675873,11.388343l-0.061905,0.185679l-1.175964,2.290048l0.06189-0.18568L179.675873,11.388343z"/>
	<path class="st0" d="M44.624973,11.635916l0.061893,0.433252H44.56308L44.624973,11.635916z"/>
	<path class="st0" d="M197.501099,11.635916l0.06189,0.185679l-0.309464,0.433252l0.06189-0.185679L197.501099,11.635916z"/>
	<path class="st0" d="M44.74876,12.378633l0.061893,0.557038h-0.123787L44.74876,12.378633z"/>
	<path class="st0" d="M44.872547,13.740283l0.061893,36.826435h-0.123787L44.872547,13.740283z"/>
	<path class="st0" d="M195.891876,14.854361l-0.06189,0.185679l-0.185684,0.433251l-0.06189-0.185679L195.891876,14.854361z"/>
	<path class="st0" d="M195.520523,15.597078l-0.061905,0.185679l-0.185669,0.309466l0.06189-0.18568L195.520523,15.597078z"/>
	<path class="st0" d="M52.671085,16.216009l0.061893,49.081284h-0.123787L52.671085,16.216009z"/>
	<path class="st0" d="M90.178345,16.216009l1.299759,0.061893l-1.299759,0.061893V16.216009z"/>
	<path class="st0" d="M126.323952,16.216009l0.061897,49.081284h-0.123787L126.323952,16.216009z"/>
	<path class="st0" d="M195.149155,16.216009l0.06189,0.18568l-0.557037,0.928398l0.061905-0.18568L195.149155,16.216009z"/>
	<path class="st0" d="M219.658844,16.216009l1.17598,0.061893l-1.17598,0.061893V16.216009z"/>
	<path class="st0" d="M231.913696,16.216009l1.17598,0.061893l-1.17598,0.061893V16.216009z"/>
	<path class="st0" d="M89.06427,16.339796l0.43325,0.061893l-0.43325,0.061893V16.339796z"/>
	<path class="st0" d="M142.044815,16.339796l0.061905,48.83371h-0.123795L142.044815,16.339796z"/>
	<path class="st0" d="M218.544769,16.339796l0.433258,0.061893l-0.433258,0.061893V16.339796z"/>
	<path class="st0" d="M233.770493,16.339796l0.433258,0.061893l-0.433258,0.061893V16.339796z"/>
	<path class="st0" d="M177.076355,16.463583l-0.06189,0.185678l-1.17598,2.290049l0.06189-0.18568L177.076355,16.463583z"/>
	<path class="st0" d="M217.802063,16.463583l0.309464,0.061893l-0.309464,0.061892V16.463583z"/>
	<path class="st0" d="M234.636993,16.463583l0.309464,0.061893l-0.309464,0.061892V16.463583z"/>
	<path class="st0" d="M83.370094,18.320377l-0.123787,0.247572L83.370094,18.320377z"/>
	<path class="st0" d="M239.836029,18.320377l0.123779,0.247572L239.836029,18.320377z"/>
	<path class="st0" d="M212.603027,18.444164l-0.123779,0.247572L212.603027,18.444164z"/>
	<path class="st0" d="M212.231674,18.691736l-0.123795,0.247574L212.231674,18.691736z"/>
	<path class="st0" d="M211.860306,18.93931l-0.123779,0.247572L211.860306,18.93931z"/>
	<path class="st0" d="M81.884659,19.310669l-0.123787,0.247572L81.884659,19.310669z"/>
	<path class="st0" d="M211.365173,19.310669l-0.123795,0.247572L211.365173,19.310669z"/>
	<path class="st0" d="M241.321457,19.310669l0.123795,0.247572L241.321457,19.310669z"/>
	<path class="st0" d="M210.870026,19.682028l-0.247574,0.371359L210.870026,19.682028z"/>
	<path class="st0" d="M81.265732,19.805813l-0.247574,0.371359L81.265732,19.805813z"/>
	<path class="st0" d="M241.940399,19.805813l0.247559,0.371359L241.940399,19.805813z"/>
	<path class="st0" d="M193.292358,19.9296l-0.06189,0.18568l-0.309464,0.680824l-0.06189-0.18568L193.292358,19.9296z"/>
	<path class="st0" d="M192.797211,20.919891l-0.06189,0.185678l-0.680817,1.299757l0.06189-0.18568L192.797211,20.919891z"/>
	<path class="st0" d="M79.656509,21.415035l-0.371361,0.495146L79.656509,21.415035z"/>
	<path class="st0" d="M243.549622,21.415035l0.371353,0.495146L243.549622,21.415035z"/>
	<path class="st0" d="M208.889435,21.662609l-0.247574,0.371359L208.889435,21.662609z"/>
	<path class="st0" d="M79.037575,22.157753l-0.123787,0.247574L79.037575,22.157753z"/>
	<path class="st0" d="M244.168549,22.157753l0.123779,0.247574L244.168549,22.157753z"/>
	<path class="st0" d="M208.394302,22.28154l-0.123795,0.247574L208.394302,22.28154z"/>
	<path class="st0" d="M78.666214,22.652899l-0.123787,0.247574L78.666214,22.652899z"/>
	<path class="st0" d="M244.539902,22.652899l0.123795,0.247574L244.539902,22.652899z"/>
	<path class="st0" d="M173.85791,22.776686l-0.06189,0.185678l-0.557037,1.052185l0.06189-0.18568L173.85791,22.776686z"/>
	<path class="st0" d="M208.022934,22.776686l-0.123779,0.247572L208.022934,22.776686z"/>
	<path class="st0" d="M78.41864,23.024258l-0.123779,0.247574L78.41864,23.024258z"/>
	<path class="st0" d="M244.787476,23.024258l0.123795,0.247574L244.787476,23.024258z"/>
	<path class="st0" d="M207.77536,23.148045l-0.123779,0.247572L207.77536,23.148045z"/>
	<path class="st0" d="M78.171074,23.395617l-0.123787,0.247574L78.171074,23.395617z"/>
	<path class="st0" d="M245.035049,23.395617l0.123795,0.247574L245.035049,23.395617z"/>
	<path class="st0" d="M207.404007,23.766975l-0.123795,0.247574L207.404007,23.766975z"/>
	<path class="st0" d="M245.530197,24.262121l0.557037,1.052185h-0.123795L245.530197,24.262121z"/>
	<path class="st0" d="M190.692856,25.004839l-0.061905,0.18568l-1.299759,2.537621l0.061905-0.18568L190.692856,25.004839z"/>
	<path class="st0" d="M92.035141,26.490276l10.583733,0.061892l-10.583733,0.061893V26.490276z"/>
	<path class="st0" d="M221.51564,26.490276l10.70752,0.061892l-10.70752,0.061893l-0.123779,0.123787L221.51564,26.490276z"/>
	<path class="st0" d="M102.80455,26.861635l0.061897,27.790033h-0.123787L102.80455,26.861635z"/>
	<path class="st0" d="M171.258392,27.851925l-0.123779,0.247574L171.258392,27.851925z"/>
	<path class="st0" d="M189.207413,27.851925l0.06189,0.18568l-0.433243,0.680824l0.06189-0.18568L189.207413,27.851925z"/>
	<path class="st0" d="M171.010818,28.223284l0.06189,0.18568l-0.433243,0.680824l0.06189-0.185678L171.010818,28.223284z"/>
	<path class="st0" d="M76.066704,28.594643l0.06189,0.309467h-0.123787L76.066704,28.594643z"/>
	<path class="st0" d="M247.13942,28.594643l0.06189,0.309467h-0.123779L247.13942,28.594643z"/>
	<path class="st0" d="M205.423416,29.089788l0.061905,0.309465h-0.123795L205.423416,29.089788z"/>
	<path class="st0" d="M247.263199,29.213575l0.061905,0.557037h-0.123795L247.263199,29.213575z"/>
	<path class="st0" d="M75.942917,29.33736l0.06189,0.309467h-0.123779L75.942917,29.33736z"/>
	<path class="st0" d="M205.299637,29.956293l0.06189,0.433252h-0.123779L205.299637,29.956293z"/>
	<path class="st0" d="M188.093338,30.08008l-0.06189,0.185678l-1.052185,2.042477l0.06189-0.18568L188.093338,30.08008z"/>
	<path class="st0" d="M247.386993,30.08008l0.06189,1.052183h-0.123779L247.386993,30.08008z"/>
	<path class="st0" d="M75.81913,30.327652l0.061897,0.433252H75.75724L75.81913,30.327652z"/>
	<path class="st0" d="M205.175858,31.565516l0.06189,18.506056h-0.123795L205.175858,31.565516z"/>
	<path class="st0" d="M169.030243,32.184448l0.185684,0.309464l-0.247574-0.123787L169.030243,32.184448z"/>
	<path class="st0" d="M187.103043,32.432018l0.804611,1.423546l-0.247574-0.123787L187.103043,32.432018z"/>
	<path class="st0" d="M170.887039,35.898037l0.680817,1.175972l-0.247574-0.123787L170.887039,35.898037z"/>
	<path class="st0" d="M189.083633,36.269398l0.433243,0.804611h-0.123779L189.083633,36.269398z"/>
	<path class="st0" d="M221.391861,37.135899l0.123779,0.123787l10.70752,0.061893l-10.70752,0.061893L221.391861,37.135899z"/>
	<path class="st0" d="M189.578766,37.259686l0.680832,1.175972l-0.247574-0.123787L189.578766,37.259686z"/>
	<path class="st0" d="M190.321487,38.621338l0.185684,0.309464l-0.247574-0.123787L190.321487,38.621338z"/>
	<path class="st0" d="M173.238983,40.47813l0.680817,1.175972l-0.247574-0.123787L173.238983,40.47813z"/>
	<path class="st0" d="M191.93071,41.839783l0.804611,1.423542l-0.247574-0.123787L191.93071,41.839783z"/>
	<path class="st0" d="M175.590912,45.058228l0.680832,1.175968l-0.247574-0.123787L175.590912,45.058228z"/>
	<path class="st0" d="M194.282654,46.419876l0.804611,1.423542l-0.247574-0.123787L194.282654,46.419876z"/>
	<path class="st0" d="M176.457428,46.66745l0.309464,0.557037l-0.247574-0.123787L176.457428,46.66745z"/>
	<path class="st0" d="M247.386993,47.533951l-0.123795,0.247574L247.386993,47.533951z"/>
	<path class="st0" d="M177.942856,49.638321l1.175964,2.16626l-0.247559-0.123787L177.942856,49.638321z"/>
	<path class="st0" d="M254.44281,50.628613l0.06189,0.928394h-0.123779L254.44281,50.628613z"/>
	<path class="st0" d="M75.81913,50.876183l0.061897,0.433254H75.75724L75.81913,50.876183z"/>
	<path class="st0" d="M205.299637,51.123756l0.06189,0.557037h-0.123779L205.299637,51.123756z"/>
	<path class="st0" d="M44.74876,51.247543l0.061893,0.804611h-0.123787L44.74876,51.247543z"/>
	<path class="st0" d="M196.758377,51.247543l0.433258,0.804611h-0.123795L196.758377,51.247543z"/>
	<path class="st0" d="M254.566605,51.866474l0.06189,0.557037H254.5047L254.566605,51.866474z"/>
	<path class="st0" d="M75.942917,51.990261l0.06189,0.309464h-0.123779L75.942917,51.990261z"/>
	<path class="st0" d="M205.423416,52.114048l0.061905,0.309464h-0.123795L205.423416,52.114048z"/>
	<path class="st0" d="M197.253525,52.237835l0.123779,0.24757L197.253525,52.237835z"/>
	<path class="st0" d="M44.624973,52.485405l0.061893,0.433254H44.56308L44.624973,52.485405z"/>
	<path class="st0" d="M254.690384,52.609192l0.06189,0.433254h-0.123779L254.690384,52.609192z"/>
	<path class="st0" d="M76.066704,52.732979l0.06189,0.309467h-0.123787L76.066704,52.732979z"/>
	<path class="st0" d="M205.547211,52.856766l0.06189,0.309464h-0.123779L205.547211,52.856766z"/>
	<path class="st0" d="M44.501186,53.228123l0.061893,0.433254h-0.123783L44.501186,53.228123z"/>
	<path class="st0" d="M254.814163,53.228123l0.061905,0.433254h-0.123795L254.814163,53.228123z"/>
	<path class="st0" d="M44.377403,53.847057l0.061893,0.309464H44.31551L44.377403,53.847057z"/>
	<path class="st0" d="M180.2948,54.218414l1.299759,2.413834l-0.247574-0.123787L180.2948,54.218414z"/>
	<path class="st0" d="M255.061737,54.218414l0.433258,1.299755h-0.123779l-0.371368-0.990288L255.061737,54.218414z"/>
	<path class="st0" d="M44.253616,54.342201l0.061893,0.309467h-0.123787L44.253616,54.342201z"/>
	<path class="st0" d="M102.80455,54.837345l-0.123787,0.247574l-10.70752-0.061893l10.70752-0.061893L102.80455,54.837345z"/>
	<path class="st0" d="M221.391861,54.837345l0.123779,0.123787h20.919891l0.185684,0.18568l-0.06189,10.088585l-0.06189-10.150478
		H221.51564L221.391861,54.837345z"/>
	<path class="st0" d="M270.287476,54.961132l10.58371,0.061893l-10.58371,0.061893V54.961132z"/>
	<path class="st0" d="M255.556885,55.70385l0.185684,0.433254h-0.123795L255.556885,55.70385z"/>
	<path class="st0" d="M199.110321,55.827637l0.185684,0.309467h-0.123795L199.110321,55.827637z"/>
	<path class="st0" d="M43.634686,56.322781l0.06189,0.18568l-0.185677,0.309467l-0.061893-0.18568L43.634686,56.322781z"/>
	<path class="st0" d="M255.928253,56.570354l0.309448,0.557037l-0.247559-0.123783L255.928253,56.570354z"/>
	<path class="st0" d="M199.605469,56.817928l0.123779,0.24757L199.605469,56.817928z"/>
	<path class="st0" d="M207.032639,57.189285l0.123795,0.247574L207.032639,57.189285z"/>
	<path class="st0" d="M43.139538,57.436859l0.061893,0.18568l-0.309467,0.43325l0.061893-0.18568L43.139538,57.436859z"/>
	<path class="st0" d="M256.423401,57.560646l0.309448,0.43325l-0.247559-0.123787L256.423401,57.560646z"/>
	<path class="st0" d="M77.9235,57.80822l0.123787,0.24757L77.9235,57.80822z"/>
	<path class="st0" d="M207.527786,58.05579l0.123795,0.247574L207.527786,58.05579z"/>
	<path class="st0" d="M256.794739,58.179577l0.12381,0.247574L256.794739,58.179577z"/>
	<path class="st0" d="M42.644394,58.427151l-0.061893,0.18568l-0.18568,0.309464l0.061893-0.18568L42.644394,58.427151z"/>
	<path class="st0" d="M207.77536,58.427151l0.123795,0.24757L207.77536,58.427151z"/>
	<path class="st0" d="M257.042328,58.550938l0.123779,0.24757L257.042328,58.550938z"/>
	<path class="st0" d="M182.646744,58.798508l1.299744,2.413834l-0.247559-0.123787L182.646744,58.798508z"/>
	<path class="st0" d="M208.022934,58.798508l0.123795,0.247574L208.022934,58.798508z"/>
	<path class="st0" d="M78.666214,58.922295l0.123787,0.247574L78.666214,58.922295z"/>
	<path class="st0" d="M257.289886,58.922295l0.680847,0.804611l-0.495148-0.371357L257.289886,58.922295z"/>
	<path class="st0" d="M42.273033,59.046082l-0.123787,0.247574L42.273033,59.046082z"/>
	<path class="st0" d="M208.394302,59.293655l0.123779,0.24757L208.394302,59.293655z"/>
	<path class="st0" d="M42.025463,59.417442l-0.247574,0.371357L42.025463,59.417442z"/>
	<path class="st0" d="M79.037575,59.417442l0.247574,0.371357L79.037575,59.417442z"/>
	<path class="st0" d="M41.654102,59.912586l-0.371361,0.495144L41.654102,59.912586z"/>
	<path class="st0" d="M209.013229,60.036373l1.361649,1.485435L209.013229,60.036373z"/>
	<path class="st0" d="M258.156403,60.036373l1.361664,1.485435L258.156403,60.036373z"/>
	<path class="st0" d="M79.656509,60.16016l1.114075,1.237862L79.656509,60.16016z"/>
	<path class="st0" d="M41.035172,60.655304l-0.866505,0.990292L41.035172,60.655304z"/>
	<path class="st0" d="M201.957413,61.398022l0.123779,0.247574L201.957413,61.398022z"/>
	<path class="st0" d="M259.889404,61.645596l0.371368,0.495144L259.889404,61.645596z"/>
	<path class="st0" d="M81.389519,61.769382l0.247566,0.371357L81.389519,61.769382z"/>
	<path class="st0" d="M210.870026,61.769382l0.247574,0.371357L210.870026,61.769382z"/>
	<path class="st0" d="M39.673519,61.893166l-0.24757,0.371361L39.673519,61.893166z"/>
	<path class="st0" d="M81.884659,62.140739l0.123787,0.247574L81.884659,62.140739z"/>
	<path class="st0" d="M260.508331,62.140739l0.247589,0.371361L260.508331,62.140739z"/>
	<path class="st0" d="M211.488953,62.264526l0.123795,0.247574L211.488953,62.264526z"/>
	<path class="st0" d="M39.054588,62.388313l-0.123787,0.247574L39.054588,62.388313z"/>
	<path class="st0" d="M82.379807,62.5121l0.123787,0.24757L82.379807,62.5121z"/>
	<path class="st0" d="M261.003479,62.5121l0.123779,0.24757L261.003479,62.5121z"/>
	<path class="st0" d="M38.683231,62.635887l-0.123787,0.24757L38.683231,62.635887z"/>
	<path class="st0" d="M212.231674,62.75967l0.123779,0.247574L212.231674,62.75967z"/>
	<path class="st0" d="M38.311871,62.883457l-0.123787,0.247574L38.311871,62.883457z"/>
	<path class="st0" d="M212.850601,63.131031l0.123795,0.247574L212.850601,63.131031z"/>
	<path class="st0" d="M37.69294,63.254818l-0.123787,0.24757L37.69294,63.254818z"/>
	<path class="st0" d="M83.617668,63.254818l0.123787,0.24757L83.617668,63.254818z"/>
	<path class="st0" d="M184.998672,63.378605l1.052185,1.91869l-0.247574-0.123787L184.998672,63.378605z"/>
	<path class="st0" d="M33.236633,64.864037l0.309464,0.061897l-0.309464,0.06189V64.864037z"/>
	<path class="st0" d="M31.627409,65.11161l0.433252,0.061897l-0.433252,0.06189V65.11161z"/>
	<path class="st0" d="M89.06427,65.11161l0.309464,0.061897l-0.309464,0.06189V65.11161z"/>
	<path class="st0" d="M218.42099,65.11161l0.433243,0.061897l-0.433243,0.06189V65.11161z"/>
	<path class="st0" d="M267.564148,65.11161l0.433258,0.061897l-0.433258,0.06189V65.11161z"/>
	<path class="st0" d="M90.054558,65.235397l0.928398,0.061897l-0.928398,0.06189V65.235397z"/>
	<path class="st0" d="M219.535065,65.235397l0.804611,0.061897l-0.804611,0.06189V65.235397z"/>
	<path class="st0" d="M268.678253,65.235397l0.804596,0.061897l-0.804596,0.06189V65.235397z"/>
	<path class="st0" d="M281.552032,65.359184l0.06189,7.241501h-0.12381L281.552032,65.359184z"/>
	<path class="st0" d="M269.420959,72.662575l0.06189,10.336159h-0.123779L269.420959,72.662575z"/>
	<path class="st0" d="M118.15406,82.936844l0.309464,0.06189l-0.309464,0.061897V82.936844z"/>
	<path class="st0" d="M150.338501,0.123786l0.06189,65.049721h-0.123779L150.338501,0.123786z"/>
	<path class="st0" d="M40.416241,3.837376l0.123783,0.247573L40.416241,3.837376z"/>
	<path class="st0" d="M41.282742,4.703881l0.123787,0.247572L41.282742,4.703881z"/>
	<path class="st0" d="M118.525414,16.339796l0.061897,66.535156h-0.123787L118.525414,16.339796z"/>
	<path class="st0" d="M210.127304,20.300959l-0.495148,0.618933L210.127304,20.300959z"/>
	<path class="st0" d="M209.384583,21.043676l-0.123779,0.247574L209.384583,21.043676z"/>
	<path class="st0" d="M221.51564,47.657738l25.685669,0.061893l-25.685669,0.061893V47.657738z"/>
	<path class="st0" d="M80.894371,61.398022l0.123787,0.247574L80.894371,61.398022z"/>
	<path class="st0" d="M103.175911,65.854332l0.06189,6.746353h-0.123787L103.175911,65.854332z"/>
	<path class="st0" d="M44.686867,13.307022v-0.990291l-0.247574-1.36165l-0.866505-2.599513l-0.618931-1.237864l-1.609222-2.228154
		l-2.16626-1.918688l-2.599514-1.485436l-3.094658-0.990291L31.25605,0.247564l-0.123787-0.123786H0v65.235397h29.027895
		l0.123787-0.123787l0.309465,0.06189l-0.077366,0.01548l0.139259,0.046417l0.247572-0.123787l2.599512-0.123787l3.342232-0.866501
		l2.35194-1.114079l1.980583-1.485439l1.671116-1.794899l1.733009-2.970875l0.990288-3.218445l0.247574-1.361649v-1.114075
		l0.123787-0.123787V13.430808L44.686867,13.307022z M28.223284,11.016975v43.572788h-0.185678H16.834942h-0.061893v-0.030945
		l-0.18568-0.092842l0.123787-0.123783V11.140761v-0.247573h11.32645h0.185678V11.016975z"/>
</g>
</svg>
