<?xml version="1.0" encoding="utf-8"?>
<!-- Generator: Adobe Illustrator 26.0.0, SVG Export Plug-In . SVG Version: 6.00 Build 0)  -->
<svg version="1.1" id="Layer_1" xmlns="http://www.w3.org/2000/svg" xmlns:xlink="http://www.w3.org/1999/xlink" x="0px" y="0px"
	 width="48px" height="48px" viewBox="0 0 48 48" style="enable-background:new 0 0 48 48;" xml:space="preserve">
<style type="text/css">
	.st0{fill:none;stroke:#CCCCCC;stroke-width:2;stroke-miterlimit:10;}
</style>
<g>
	<path class="st0" d="M28.908146,21.354607c0,2.71125-2.196894,4.908955-4.910564,4.908955
		c-2.709639,0-4.907339-2.198509-4.907339-4.908955s2.197702-4.908955,4.907339-4.908955
		C26.711248,16.445652,28.908146,18.644159,28.908146,21.354607z"/>
	<path class="st0" d="M33.771145,39.136158v-4.438133c-0.001614-2.121113-1.738976-3.854445-3.860086-3.851217H18.079266
		c-2.120308,0.003225-3.853638,1.749456-3.850413,3.868956l-0.001613,4.438938"/>
	<path class="st0" d="M39.022732,8.643246h-5.967495l-7.891891-6.930903c-0.636898-0.618356-1.678509-0.618356-2.314598-0.000807
		l-7.903989,6.93171h-5.9683c-2.217051,0-4.031002,1.813951-4.031002,4.031001v30.046276
		c0,2.217052,1.813951,4.031002,4.031002,4.031002H39.02354c2.217052,0,4.031002-1.81395,4.031002-4.031002V12.674247
		C43.053738,10.457196,41.239784,8.643246,39.022732,8.643246z"/>
</g>
</svg>
