<?xml version="1.0" encoding="utf-8"?>
<!-- Generator: Adobe Illustrator 26.0.0, SVG Export Plug-In . SVG Version: 6.00 Build 0)  -->
<svg version="1.1" id="Layer_1" xmlns="http://www.w3.org/2000/svg" xmlns:xlink="http://www.w3.org/1999/xlink" x="0px" y="0px"
	 width="48px" height="48px" viewBox="0 0 48 48" style="enable-background:new 0 0 48 48;" xml:space="preserve">
<style type="text/css">
	.st0{fill:none;stroke:#CCCCCC;stroke-width:2.103068;stroke-miterlimit:10;}
</style>
<g>
	<path class="st0" d="M38.942474,7.639526c0.423695,0.265143,0.642033,0.760269,0.548763,1.251306
		c-0.262081,1.379729-0.592964,4.32889,0.61916,7.016946c1.064812,2.361368,4.114933,4.19311,5.480484,4.919422
		c0.413139,0.219742,0.660915,0.657036,0.639816,1.124504l-0.304028,6.736069c-0.02087,0.462414-0.30051,0.873344-0.725571,1.056608
		c-1.226826,0.528948-3.819458,1.874855-5.534496,4.377373c-1.524277,2.224163-1.620335,5.403313-1.575119,6.835087
		c0.014679,0.464714-0.233608,0.897018-0.644432,1.114731l-5.884991,3.118668c-0.38862,0.205944-0.856127,0.186363-1.225504-0.05238
		c-1.189976-0.769135-4.00165-2.409626-6.523039-2.545601c-3.263714-0.17601-5.505499,1.21043-6.520102,2.017059
		c-0.398216,0.316593-0.955893,0.339428-1.387141,0.069557L9.801378,40.85849
		c-0.423694-0.265141-0.642033-0.760269-0.54876-1.251305c0.262079-1.37973,0.592961-4.328888-0.619163-7.016945
		c-1.06481-2.361368-4.114931-4.193111-5.480481-4.919422c-0.413141-0.219742-0.660915-0.657036-0.639816-1.124506
		l0.304026-6.736067c0.020871-0.462416,0.30051-0.873344,0.72557-1.05661c1.226826-0.528948,3.819458-1.874855,5.534498-4.377372
		c1.524276-2.224162,1.620335-5.403314,1.575116-6.835087c-0.014676-0.464712,0.23361-0.897019,0.644432-1.114729l5.884993-3.118669
		c0.38862-0.205944,0.856125-0.186363,1.225504,0.052382c1.189976,0.769132,4.001648,2.409623,6.523039,2.545599
		c3.263714,0.176009,5.505499-1.210432,6.5201-2.01706c0.398218-0.316591,0.955894-0.339426,1.387142-0.069555L38.942474,7.639526z"
		/>
	<circle class="st0" cx="24.371927" cy="24.249008" r="9.912869"/>
</g>
</svg>
