<?xml version="1.0" encoding="utf-8"?>
<!-- Generator: Adobe Illustrator 26.0.0, SVG Export Plug-In . SVG Version: 6.00 Build 0)  -->
<svg version="1.1" id="Layer_1" xmlns="http://www.w3.org/2000/svg" xmlns:xlink="http://www.w3.org/1999/xlink" x="0px" y="0px"
	 width="48px" height="48px" viewBox="0 0 48 48" style="enable-background:new 0 0 48 48;" xml:space="preserve">
<style type="text/css">
	.st0{fill:none;stroke:#CCCCCC;stroke-width:2.103068;stroke-miterlimit:10;}
</style>
<g>
	<path class="st0" d="M32.984837,25.095619v2.434813c0,4.175875-3.417843,7.592379-7.592381,7.592379H23.35273
		c-4.175875,0-7.59238-3.416504-7.59238-7.592379v-4.296236"/>
	<g>
		<g>
			<path class="st0" d="M28.493389,20.045017H15.761022v-9.700901c0-4.175876,3.416505-7.593049,7.592381-7.593049h2.039724
				c4.174538,0,7.592381,3.417173,7.592381,7.593049v15.274321"/>
		</g>
	</g>
	<line class="st0" x1="24.372595" y1="40.325741" x2="24.372595" y2="46.798485"/>
	<path class="st0" d="M37,24.070896v4.360029c0,6.40243-5.207792,11.61022-11.61022,11.61022h-2.035706
		c-6.40176,0-11.61022-5.207794-11.61022-11.61022v-4.360029"/>
</g>
</svg>
