<?xml version="1.0" encoding="utf-8"?>
<!-- Generator: Adobe Illustrator 26.0.0, SVG Export Plug-In . SVG Version: 6.00 Build 0)  -->
<svg version="1.1" id="Layer_1" xmlns="http://www.w3.org/2000/svg" xmlns:xlink="http://www.w3.org/1999/xlink" x="0px" y="0px"
	 width="415.546204px" height="91.785851px" viewBox="0 0 415.546204 91.785851"
	 style="enable-background:new 0 0 415.546204 91.785851;" xml:space="preserve">
<style type="text/css">
	.st0{fill:#E3E2D3;}
</style>
<g>
	<g>
		<g id="Page-1_00000004544041801990578980000016707436626264541590_">
			<path id="Fill-17_00000139973629663860930560000017826114646506813369_" class="st0" d="M6.078897,12.384459v-7.60745h7.612075
				c0,0-1.05344-2.349346-1.033527-3.289274H2.789624v9.867821C3.734022,11.327159,6.078897,12.384459,6.078897,12.384459z
				 M91.600006,11.355556c-0.943855-0.028397-3.589745,1.028903-3.589745,1.028903v-7.60745h-7.607689
				c0,0,1.355202-2.349346,1.329613-3.289274h6.278076h3.589745V11.355556z M6.078897,79.399208v7.609634h7.612075
				c0,0-1.05344,2.346237-1.033527,3.289276H2.789624v-9.867821C3.734022,80.455864,6.078897,79.399208,6.078897,79.399208z
				 M88.310738,79.399208v7.609634h-7.607689c0,0,1.054726,2.346237,1.029137,3.289276h9.867821v-9.867821
				C90.656151,80.455864,88.310738,79.399208,88.310738,79.399208z"/>
			<path id="Fill-1-copy-2_00000150083797471055819360000010908102027649049763_" class="st0" d="M9.78988,24.154238
				c-0.47953-0.477882-0.639375-14.972896,0-15.610073s15.185479-0.637177,15.665011,0
				c0.47953,0.637177,0.47953,15.132191,0,15.610073C24.975359,24.63212,10.269411,24.63212,9.78988,24.154238z M29.52552,24.154238
				c-0.47953-0.477882-0.639374-14.972896,0-15.610073c0.639376-0.637177,15.185478-0.637177,15.665012,0
				c0.47953,0.637177,0.47953,15.132191,0,15.610073C44.710999,24.63212,30.005051,24.63212,29.52552,24.154238z
				 M49.261162,24.154238c-0.47953-0.477882-0.639374-14.972896,0-15.610073s15.185478-0.637177,15.665009,0
				c0.479538,0.637177,0.479538,15.132191,0,15.610073C64.44664,24.63212,49.740692,24.63212,49.261162,24.154238z
				 M68.996803,24.154238c-0.47953-0.477882-0.639374-14.972896,0-15.610073s15.185478-0.637177,15.665009,0
				c0.479538,0.637177,0.479538,15.132191,0,15.610073C84.182281,24.63212,69.476334,24.63212,68.996803,24.154238z
				 M9.78988,43.889877c-0.47953-0.477882-0.639375-14.972895,0-15.610071c0.639375-0.637178,15.185479-0.637178,15.665011,0
				c0.47953,0.637177,0.47953,15.132189,0,15.610071C24.975359,44.367764,10.269411,44.367764,9.78988,43.889877z
				 M29.52552,43.889877c-0.47953-0.477882-0.639374-14.972895,0-15.610071c0.639376-0.637178,15.185478-0.637178,15.665012,0
				c0.47953,0.637177,0.47953,15.132189,0,15.610071C44.710999,44.367764,30.005051,44.367764,29.52552,43.889877z
				 M49.261162,43.889877c-0.47953-0.477882-0.639374-14.972895,0-15.610071c0.639374-0.637178,15.185478-0.637178,15.665009,0
				c0.479538,0.637177,0.479538,15.132189,0,15.610071C64.44664,44.367764,49.740692,44.367764,49.261162,43.889877z
				 M68.996803,43.889877c-0.47953-0.477882-0.639374-14.972895,0-15.610071c0.639374-0.637178,15.185478-0.637178,15.665009,0
				c0.479538,0.637177,0.479538,15.132189,0,15.610071C84.182281,44.367764,69.476334,44.367764,68.996803,43.889877z
				 M9.78988,63.625515c-0.47953-0.477879-0.639375-14.972893,0-15.610065c0.639375-0.63718,15.185479-0.63718,15.665011,0
				c0.47953,0.637173,0.47953,15.132187,0,15.610065C24.975359,64.103401,10.269411,64.103401,9.78988,63.625515z
				 M29.52552,63.625515c-0.47953-0.477879-0.639374-14.972893,0-15.610065c0.639376-0.63718,15.185478-0.63718,15.665012,0
				c0.47953,0.637173,0.47953,15.132187,0,15.610065C44.710999,64.103401,30.005051,64.103401,29.52552,63.625515z
				 M49.261162,63.625515c-0.47953-0.477879-0.639374-14.972893,0-15.610065c0.639374-0.63718,15.185478-0.63718,15.665009,0
				c0.479538,0.637173,0.479538,15.132187,0,15.610065C64.44664,64.103401,49.740692,64.103401,49.261162,63.625515z
				 M68.996803,63.625515c-0.47953-0.477879-0.639374-14.972893,0-15.610065c0.639374-0.63718,15.185478-0.63718,15.665009,0
				c0.479538,0.637173,0.479538,15.132187,0,15.610065C84.182281,64.103401,69.476334,64.103401,68.996803,63.625515z
				 M9.78988,83.36116c-0.47953-0.477882-0.639375-14.972893,0-15.610077c0.639375-0.637169,15.185479-0.637169,15.665011,0
				c0.47953,0.637184,0.47953,15.132195,0,15.610077C24.975359,83.839043,10.269411,83.839043,9.78988,83.36116z M29.52552,83.36116
				c-0.47953-0.477882-0.639374-14.972893,0-15.610077c0.639376-0.637169,15.185478-0.637169,15.665012,0
				c0.47953,0.637184,0.47953,15.132195,0,15.610077C44.710999,83.839043,30.005051,83.839043,29.52552,83.36116z
				 M49.261162,83.36116c-0.47953-0.477882-0.639374-14.972893,0-15.610077c0.639374-0.637169,15.185478-0.637169,15.665009,0
				c0.479538,0.637184,0.479538,15.132195,0,15.610077C64.44664,83.839043,49.740692,83.839043,49.261162,83.36116z
				 M68.996803,83.36116c-0.47953-0.477882-0.639374-14.972893,0-15.610077c0.639374-0.637169,15.185478-0.637169,15.665009,0
				c0.479538,0.637184,0.479538,15.132195,0,15.610077C84.182281,83.839043,69.476334,83.839043,68.996803,83.36116z"/>
		</g>
	</g>
	<g>
		<path class="st0" d="M120.07338,49.922821c0.050087,2.014977,1.057571,5.84293,7.655907,5.84293
			c3.576714,0,7.555748-0.856407,7.555748-4.684361c0-2.821301-2.720306-3.575874-6.548264-4.482361l-3.878029-0.90649
			c-5.842934-1.360565-11.484695-2.671051-11.484695-10.629124c0-4.028282,2.166054-11.131615,13.902-11.131615
			c11.081528,0,14.05307,7.25358,14.103165,11.68586h-7.252747c-0.201996-1.610981-0.806335-5.438932-7.404663-5.438932
			c-2.870552,0-6.296173,1.056734-6.296173,4.330446c0,2.821301,2.317139,3.425625,3.82795,3.77787l8.815315,2.166893
			c4.935608,1.208649,9.468887,3.223625,9.468887,9.720963c0,10.879536-11.080704,11.836109-14.254242,11.836109
			c-13.196678,0-15.463737-7.605827-15.463737-12.088188H120.07338z"/>
		<path class="st0" d="M171.901001,61.054436h-6.74942v-3.77787h-0.100159c-1.611816,2.871384-4.433121,4.482361-8.16008,4.482361
			c-5.288681,0-9.116638-3.021629-9.116638-9.871212V34.258762h7.05159v16.620628c0,4.130119,2.417297,4.936443,4.583359,4.936443
			c2.317139,0,5.439774-1.308819,5.439774-6.095013V34.258762h7.051575V61.054436z"/>
		<path class="st0" d="M185.096832,38.136799h0.101013c1.309647-2.115143,3.273697-4.584198,8.008987-4.584198
			c5.893005,0,11.131607,4.534115,11.131607,13.801003c0,7.353741-3.324631,14.405323-11.2827,14.405323
			c-4.936432,0-6.699326-2.669384-7.55574-4.130116h-0.100998V71.48156h-7.051575V34.258762h6.749405V38.136799z
			 M191.292847,55.967751c4.533279,0,5.792007-4.936443,5.792007-8.109989c0-4.230278-1.510803-8.210148-5.994003-8.210148
			c-4.835449,0-5.994019,4.332115-5.994019,8.612476C185.096832,52.23996,186.809647,55.967751,191.292847,55.967751z"/>
		<path class="st0" d="M215.870712,38.136799h0.100998c1.309662-2.115143,3.273712-4.584198,8.008987-4.584198
			c5.893021,0,11.131622,4.534115,11.131622,13.801003c0,7.353741-3.324631,14.405323-11.2827,14.405323
			c-4.936447,0-6.699341-2.669384-7.55574-4.130116h-0.100998V71.48156h-7.05159V34.258762h6.74942V38.136799z
			 M222.066727,55.967751c4.533279,0,5.792007-4.936443,5.792007-8.109989c0-4.230278-1.510818-8.210148-5.994003-8.210148
			c-4.835449,0-5.994019,4.332115-5.994019,8.612476C215.870712,52.23996,217.583527,55.967751,222.066727,55.967751z"/>
		<path class="st0" d="M247.299835,61.054436h-7.05159V24.890041h7.05159V61.054436z"/>
		<path class="st0" d="M267.950409,60.600357c-3.323792,9.922966-4.230286,11.233452-10.375366,11.233452
			c-0.957397,0-2.166061-0.050087-3.173553-0.101837v-5.64093c0.30217,0.050079,0.755417,0.101837,1.359741,0.101837
			c2.569214,0,3.979034-0.35392,4.634277-4.029957l-9.872879-27.90416h7.857895l5.741943,19.744095h0.100983l5.489868-19.744095
			h7.454742L267.950409,60.600357z"/>
		<path class="st0" d="M289.457397,61.054436h-7.051575V39.295368h-3.878876v-5.036606h3.878876v-2.166893
			c0-5.540766,3.022461-7.655907,7.85791-7.655907c2.065063,0,3.021637,0.050081,3.625946,0.100164v5.692682h-1.96405
			c-2.418152,0-2.468231,0.754574-2.468231,2.971546v1.058407h4.583374v5.036606h-4.583374V61.054436z"/>
		<path class="st0" d="M298.018951,34.258762h6.74942v4.632607h0.101013c1.460724-2.719463,3.07254-5.338768,7.353729-5.338768
			c0.453247,0,0.906494,0.050083,1.359741,0.100166v7.153416c-0.604309-0.100166-1.359741-0.100166-2.014984-0.100166
			c-5.489838,0-6.497314,3.423958-6.497314,6.395504v13.952915h-7.051605V34.258762z"/>
		<path class="st0" d="M338.36438,55.815834c0,3.173546,0.704498,3.878036,1.560913,4.180199v1.058403h-7.605835
			c-0.402313-1.258732-0.503326-1.662731-0.654388-3.173546c-1.611816,1.662731-3.878876,3.878036-8.663422,3.878036
			c-4.029938,0-8.160065-2.265388-8.160065-7.806152c0-5.238605,3.324646-7.90799,7.807007-8.562397l6.347076-0.958241
			c1.107666-0.150246,2.467407-0.604324,2.467407-2.115139c0-2.97155-2.820465-3.123463-4.633453-3.123463
			c-3.525787,0-4.130127,2.166889-4.332123,3.727787h-6.7995c0.805481-8.210152,6.497345-9.368721,11.988037-9.368721
			c3.777039,0,10.678345,1.158569,10.678345,7.757744V55.815834z M331.463074,48.008011
			c-0.704498,0.554241-1.863068,1.00832-4.784546,1.460732c-2.619293,0.454079-4.785339,1.108486-4.785339,4.029953
			c0,2.469055,1.913971,3.223625,3.273712,3.223625c3.123444,0,6.296173-2.014977,6.296173-5.288685V48.008011z"/>
		<path class="st0" d="M382.990173,61.054436h-7.051575V44.784382c0-3.978199-1.762878-5.288685-3.827942-5.288685
			c-3.525787,0-4.78537,2.317139-4.78537,5.490685v16.068054h-7.051575V44.936298c0-2.267056,0-5.440601-4.23111-5.440601
			c-3.324646,0-4.382202,2.317139-4.382202,5.238602v16.320137h-7.051575V34.258762h6.74942v3.928116h0.100983
			c0.906494-1.762894,2.870544-4.634277,7.605835-4.634277c3.878021,0,5.64093,1.410652,7.454742,4.282032
			c0.906494-1.310486,2.870544-4.282032,7.151733-4.282032c5.238617,0,9.318634,3.073383,9.318634,8.966393V61.054436z"/>
		<path class="st0" d="M412.453583,53.196529c-1.863068,6.447258-7.202667,8.562397-11.786041,8.562397
			c-7.555725,0-13.347748-3.625954-13.347748-14.657406c0-3.223629,1.107666-13.54892,12.844421-13.54892
			c5.288696,0,12.592346,2.519138,12.592346,14.759239v1.258736h-18.385193c0.201172,2.014977,0.60434,6.547421,6.296173,6.547421
			c1.964081,0,3.979034-1.006653,4.533295-2.921467H412.453583z M405.502991,44.986382
			c-0.403168-4.332115-3.173553-5.640934-5.439758-5.640934c-3.324646,0-5.087524,2.115143-5.490692,5.640934H405.502991z"/>
	</g>
</g>
</svg>
